ISO-10303-21;
HEADER;
/* Generated by software containing ST-Developer
 * from STEP Tools, Inc. (www.steptools.com) 
 */

FILE_DESCRIPTION(
/* description */ (''),
/* implementation_level */ '2;1');

FILE_NAME(
/* name */ 'HP Front Shroud.step',
/* time_stamp */ '2026-08-26T02:02:44-07:00',
/* author */ (''),
/* organization */ (''),
/* preprocessor_version */ 'ST-DEVELOPER v20.1',
/* originating_system */ 'Autodesk Translation Framework v15.8.0.0',
/* authorisation */ '');

FILE_SCHEMA (('AUTOMOTIVE_DESIGN { 1 0 10303 214 3 1 1 }'));
ENDSEC;

DATA;
#10=MECHANICAL_DESIGN_GEOMETRIC_PRESENTATION_REPRESENTATION('',(#13),#1146);
#11=SHAPE_REPRESENTATION_RELATIONSHIP('SRR','None',#1153,#12);
#12=ADVANCED_BREP_SHAPE_REPRESENTATION('',(#14),#1145);
#13=STYLED_ITEM('',(#1163),#14);
#14=MANIFOLD_SOLID_BREP('HP Front Shroud',#698);
#15=SPHERICAL_SURFACE('',#721,3.);
#16=SPHERICAL_SURFACE('',#725,3.);
#17=CYLINDRICAL_SURFACE('',#716,3.);
#18=CYLINDRICAL_SURFACE('',#718,3.);
#19=CYLINDRICAL_SURFACE('',#723,3.);
#20=CYLINDRICAL_SURFACE('',#728,3.);
#21=CYLINDRICAL_SURFACE('',#731,10.);
#22=CYLINDRICAL_SURFACE('',#742,3.);
#23=CIRCLE('',#714,3.);
#24=CIRCLE('',#715,3.);
#25=CIRCLE('',#717,3.);
#26=CIRCLE('',#719,3.00000000000001);
#27=CIRCLE('',#720,3.);
#28=CIRCLE('',#722,3.);
#29=CIRCLE('',#724,2.99999999999999);
#30=CIRCLE('',#726,2.99999999999999);
#31=CIRCLE('',#729,3.);
#32=CIRCLE('',#732,10.);
#33=CIRCLE('',#733,10.);
#34=CIRCLE('',#743,3.);
#35=FACE_OUTER_BOUND('',#72,.T.);
#36=FACE_OUTER_BOUND('',#73,.T.);
#37=FACE_OUTER_BOUND('',#74,.T.);
#38=FACE_OUTER_BOUND('',#75,.T.);
#39=FACE_OUTER_BOUND('',#76,.T.);
#40=FACE_OUTER_BOUND('',#77,.T.);
#41=FACE_OUTER_BOUND('',#78,.T.);
#42=FACE_OUTER_BOUND('',#79,.T.);
#43=FACE_OUTER_BOUND('',#80,.T.);
#44=FACE_OUTER_BOUND('',#81,.T.);
#45=FACE_OUTER_BOUND('',#82,.T.);
#46=FACE_OUTER_BOUND('',#83,.T.);
#47=FACE_OUTER_BOUND('',#84,.T.);
#48=FACE_OUTER_BOUND('',#85,.T.);
#49=FACE_OUTER_BOUND('',#86,.T.);
#50=FACE_OUTER_BOUND('',#87,.T.);
#51=FACE_OUTER_BOUND('',#88,.T.);
#52=FACE_OUTER_BOUND('',#89,.T.);
#53=FACE_OUTER_BOUND('',#90,.T.);
#54=FACE_OUTER_BOUND('',#91,.T.);
#55=FACE_OUTER_BOUND('',#92,.T.);
#56=FACE_OUTER_BOUND('',#93,.T.);
#57=FACE_OUTER_BOUND('',#94,.T.);
#58=FACE_OUTER_BOUND('',#95,.T.);
#59=FACE_OUTER_BOUND('',#96,.T.);
#60=FACE_OUTER_BOUND('',#97,.T.);
#61=FACE_OUTER_BOUND('',#98,.T.);
#62=FACE_OUTER_BOUND('',#99,.T.);
#63=FACE_OUTER_BOUND('',#100,.T.);
#64=FACE_OUTER_BOUND('',#101,.T.);
#65=FACE_OUTER_BOUND('',#102,.T.);
#66=FACE_OUTER_BOUND('',#103,.T.);
#67=FACE_OUTER_BOUND('',#104,.T.);
#68=FACE_OUTER_BOUND('',#105,.T.);
#69=FACE_OUTER_BOUND('',#106,.T.);
#70=FACE_OUTER_BOUND('',#107,.T.);
#71=FACE_OUTER_BOUND('',#108,.T.);
#72=EDGE_LOOP('',(#438,#439,#440,#441));
#73=EDGE_LOOP('',(#442,#443,#444,#445,#446,#447,#448,#449,#450,#451));
#74=EDGE_LOOP('',(#452,#453,#454,#455));
#75=EDGE_LOOP('',(#456,#457,#458,#459));
#76=EDGE_LOOP('',(#460,#461,#462));
#77=EDGE_LOOP('',(#463,#464,#465,#466));
#78=EDGE_LOOP('',(#467,#468,#469));
#79=EDGE_LOOP('',(#470,#471,#472,#473,#474,#475,#476,#477));
#80=EDGE_LOOP('',(#478,#479,#480,#481));
#81=EDGE_LOOP('',(#482,#483,#484,#485,#486,#487,#488,#489));
#82=EDGE_LOOP('',(#490,#491,#492,#493));
#83=EDGE_LOOP('',(#494,#495,#496,#497,#498));
#84=EDGE_LOOP('',(#499,#500,#501,#502,#503,#504,#505,#506));
#85=EDGE_LOOP('',(#507,#508,#509,#510));
#86=EDGE_LOOP('',(#511,#512,#513,#514,#515));
#87=EDGE_LOOP('',(#516,#517,#518,#519));
#88=EDGE_LOOP('',(#520,#521,#522,#523));
#89=EDGE_LOOP('',(#524,#525,#526,#527));
#90=EDGE_LOOP('',(#528,#529,#530,#531));
#91=EDGE_LOOP('',(#532,#533,#534,#535));
#92=EDGE_LOOP('',(#536,#537,#538,#539,#540,#541,#542,#543));
#93=EDGE_LOOP('',(#544,#545,#546,#547));
#94=EDGE_LOOP('',(#548,#549,#550,#551));
#95=EDGE_LOOP('',(#552,#553,#554,#555));
#96=EDGE_LOOP('',(#556,#557,#558,#559));
#97=EDGE_LOOP('',(#560,#561,#562,#563,#564,#565,#566,#567,#568,#569,#570,
#571,#572,#573,#574,#575,#576,#577,#578,#579,#580,#581,#582,#583,#584,#585,
#586,#587));
#98=EDGE_LOOP('',(#588,#589,#590,#591));
#99=EDGE_LOOP('',(#592,#593,#594,#595));
#100=EDGE_LOOP('',(#596,#597,#598,#599));
#101=EDGE_LOOP('',(#600,#601,#602,#603));
#102=EDGE_LOOP('',(#604,#605,#606,#607));
#103=EDGE_LOOP('',(#608,#609,#610,#611));
#104=EDGE_LOOP('',(#612,#613,#614,#615));
#105=EDGE_LOOP('',(#616,#617,#618,#619));
#106=EDGE_LOOP('',(#620,#621,#622,#623));
#107=EDGE_LOOP('',(#624,#625,#626,#627));
#108=EDGE_LOOP('',(#628,#629,#630,#631));
#109=LINE('',#950,#194);
#110=LINE('',#952,#195);
#111=LINE('',#954,#196);
#112=LINE('',#955,#197);
#113=LINE('',#958,#198);
#114=LINE('',#960,#199);
#115=LINE('',#962,#200);
#116=LINE('',#964,#201);
#117=LINE('',#968,#202);
#118=LINE('',#972,#203);
#119=LINE('',#973,#204);
#120=LINE('',#976,#205);
#121=LINE('',#979,#206);
#122=LINE('',#984,#207);
#123=LINE('',#987,#208);
#124=LINE('',#992,#209);
#125=LINE('',#994,#210);
#126=LINE('',#999,#211);
#127=LINE('',#1001,#212);
#128=LINE('',#1003,#213);
#129=LINE('',#1005,#214);
#130=LINE('',#1007,#215);
#131=LINE('',#1008,#216);
#132=LINE('',#1011,#217);
#133=LINE('',#1015,#218);
#134=LINE('',#1017,#219);
#135=LINE('',#1019,#220);
#136=LINE('',#1021,#221);
#137=LINE('',#1023,#222);
#138=LINE('',#1024,#223);
#139=LINE('',#1030,#224);
#140=LINE('',#1033,#225);
#141=LINE('',#1036,#226);
#142=LINE('',#1038,#227);
#143=LINE('',#1040,#228);
#144=LINE('',#1041,#229);
#145=LINE('',#1044,#230);
#146=LINE('',#1045,#231);
#147=LINE('',#1047,#232);
#148=LINE('',#1049,#233);
#149=LINE('',#1050,#234);
#150=LINE('',#1054,#235);
#151=LINE('',#1056,#236);
#152=LINE('',#1057,#237);
#153=LINE('',#1059,#238);
#154=LINE('',#1062,#239);
#155=LINE('',#1063,#240);
#156=LINE('',#1066,#241);
#157=LINE('',#1067,#242);
#158=LINE('',#1069,#243);
#159=LINE('',#1072,#244);
#160=LINE('',#1076,#245);
#161=LINE('',#1078,#246);
#162=LINE('',#1080,#247);
#163=LINE('',#1082,#248);
#164=LINE('',#1083,#249);
#165=LINE('',#1087,#250);
#166=LINE('',#1089,#251);
#167=LINE('',#1091,#252);
#168=LINE('',#1092,#253);
#169=LINE('',#1094,#254);
#170=LINE('',#1095,#255);
#171=LINE('',#1097,#256);
#172=LINE('',#1099,#257);
#173=LINE('',#1102,#258);
#174=LINE('',#1104,#259);
#175=LINE('',#1105,#260);
#176=LINE('',#1107,#261);
#177=LINE('',#1109,#262);
#178=LINE('',#1110,#263);
#179=LINE('',#1112,#264);
#180=LINE('',#1114,#265);
#181=LINE('',#1115,#266);
#182=LINE('',#1117,#267);
#183=LINE('',#1120,#268);
#184=LINE('',#1121,#269);
#185=LINE('',#1124,#270);
#186=LINE('',#1125,#271);
#187=LINE('',#1128,#272);
#188=LINE('',#1129,#273);
#189=LINE('',#1132,#274);
#190=LINE('',#1133,#275);
#191=LINE('',#1135,#276);
#192=LINE('',#1137,#277);
#193=LINE('',#1141,#278);
#194=VECTOR('',#765,10.);
#195=VECTOR('',#766,10.);
#196=VECTOR('',#767,10.);
#197=VECTOR('',#768,10.);
#198=VECTOR('',#771,10.);
#199=VECTOR('',#772,10.);
#200=VECTOR('',#773,10.);
#201=VECTOR('',#774,10.);
#202=VECTOR('',#777,10.);
#203=VECTOR('',#780,10.);
#204=VECTOR('',#781,10.);
#205=VECTOR('',#784,10.);
#206=VECTOR('',#787,10.);
#207=VECTOR('',#792,10.);
#208=VECTOR('',#795,10.);
#209=VECTOR('',#802,10.);
#210=VECTOR('',#805,10.);
#211=VECTOR('',#812,10.);
#212=VECTOR('',#813,10.);
#213=VECTOR('',#814,10.);
#214=VECTOR('',#815,10.);
#215=VECTOR('',#816,10.);
#216=VECTOR('',#817,10.);
#217=VECTOR('',#820,10.);
#218=VECTOR('',#825,10.);
#219=VECTOR('',#826,10.);
#220=VECTOR('',#827,10.);
#221=VECTOR('',#828,10.);
#222=VECTOR('',#829,10.);
#223=VECTOR('',#830,10.);
#224=VECTOR('',#835,10.);
#225=VECTOR('',#838,10.);
#226=VECTOR('',#841,10.);
#227=VECTOR('',#842,10.);
#228=VECTOR('',#843,10.);
#229=VECTOR('',#844,10.);
#230=VECTOR('',#847,10.);
#231=VECTOR('',#848,10.);
#232=VECTOR('',#849,10.);
#233=VECTOR('',#850,10.);
#234=VECTOR('',#851,10.);
#235=VECTOR('',#856,10.);
#236=VECTOR('',#857,10.);
#237=VECTOR('',#858,10.);
#238=VECTOR('',#861,10.);
#239=VECTOR('',#864,10.);
#240=VECTOR('',#865,10.);
#241=VECTOR('',#868,10.);
#242=VECTOR('',#869,10.);
#243=VECTOR('',#872,10.);
#244=VECTOR('',#875,10.);
#245=VECTOR('',#880,10.);
#246=VECTOR('',#881,10.);
#247=VECTOR('',#882,10.);
#248=VECTOR('',#883,10.);
#249=VECTOR('',#884,10.);
#250=VECTOR('',#887,10.);
#251=VECTOR('',#888,10.);
#252=VECTOR('',#889,10.);
#253=VECTOR('',#890,10.);
#254=VECTOR('',#893,10.);
#255=VECTOR('',#894,10.);
#256=VECTOR('',#897,10.);
#257=VECTOR('',#900,10.);
#258=VECTOR('',#903,10.);
#259=VECTOR('',#904,10.);
#260=VECTOR('',#905,10.);
#261=VECTOR('',#906,10.);
#262=VECTOR('',#907,10.);
#263=VECTOR('',#908,10.);
#264=VECTOR('',#909,10.);
#265=VECTOR('',#910,10.);
#266=VECTOR('',#911,10.);
#267=VECTOR('',#914,10.);
#268=VECTOR('',#917,10.);
#269=VECTOR('',#918,10.);
#270=VECTOR('',#921,10.);
#271=VECTOR('',#922,10.);
#272=VECTOR('',#925,10.);
#273=VECTOR('',#926,10.);
#274=VECTOR('',#929,10.);
#275=VECTOR('',#930,10.);
#276=VECTOR('',#933,10.);
#277=VECTOR('',#936,10.);
#278=VECTOR('',#943,10.);
#279=VERTEX_POINT('',#948);
#280=VERTEX_POINT('',#949);
#281=VERTEX_POINT('',#951);
#282=VERTEX_POINT('',#953);
#283=VERTEX_POINT('',#957);
#284=VERTEX_POINT('',#959);
#285=VERTEX_POINT('',#961);
#286=VERTEX_POINT('',#963);
#287=VERTEX_POINT('',#965);
#288=VERTEX_POINT('',#967);
#289=VERTEX_POINT('',#969);
#290=VERTEX_POINT('',#971);
#291=VERTEX_POINT('',#975);
#292=VERTEX_POINT('',#977);
#293=VERTEX_POINT('',#981);
#294=VERTEX_POINT('',#983);
#295=VERTEX_POINT('',#985);
#296=VERTEX_POINT('',#991);
#297=VERTEX_POINT('',#998);
#298=VERTEX_POINT('',#1000);
#299=VERTEX_POINT('',#1002);
#300=VERTEX_POINT('',#1004);
#301=VERTEX_POINT('',#1006);
#302=VERTEX_POINT('',#1010);
#303=VERTEX_POINT('',#1014);
#304=VERTEX_POINT('',#1016);
#305=VERTEX_POINT('',#1018);
#306=VERTEX_POINT('',#1020);
#307=VERTEX_POINT('',#1022);
#308=VERTEX_POINT('',#1026);
#309=VERTEX_POINT('',#1027);
#310=VERTEX_POINT('',#1029);
#311=VERTEX_POINT('',#1031);
#312=VERTEX_POINT('',#1035);
#313=VERTEX_POINT('',#1037);
#314=VERTEX_POINT('',#1039);
#315=VERTEX_POINT('',#1043);
#316=VERTEX_POINT('',#1046);
#317=VERTEX_POINT('',#1048);
#318=VERTEX_POINT('',#1053);
#319=VERTEX_POINT('',#1055);
#320=VERTEX_POINT('',#1061);
#321=VERTEX_POINT('',#1065);
#322=VERTEX_POINT('',#1071);
#323=VERTEX_POINT('',#1075);
#324=VERTEX_POINT('',#1077);
#325=VERTEX_POINT('',#1079);
#326=VERTEX_POINT('',#1081);
#327=VERTEX_POINT('',#1085);
#328=VERTEX_POINT('',#1086);
#329=VERTEX_POINT('',#1088);
#330=VERTEX_POINT('',#1090);
#331=VERTEX_POINT('',#1101);
#332=VERTEX_POINT('',#1103);
#333=VERTEX_POINT('',#1106);
#334=VERTEX_POINT('',#1108);
#335=VERTEX_POINT('',#1111);
#336=VERTEX_POINT('',#1113);
#337=VERTEX_POINT('',#1119);
#338=VERTEX_POINT('',#1123);
#339=VERTEX_POINT('',#1127);
#340=VERTEX_POINT('',#1131);
#341=EDGE_CURVE('',#279,#280,#109,.F.);
#342=EDGE_CURVE('',#280,#281,#110,.T.);
#343=EDGE_CURVE('',#281,#282,#111,.F.);
#344=EDGE_CURVE('',#282,#279,#112,.T.);
#345=EDGE_CURVE('',#281,#283,#113,.T.);
#346=EDGE_CURVE('',#284,#280,#114,.T.);
#347=EDGE_CURVE('',#285,#284,#115,.T.);
#348=EDGE_CURVE('',#285,#286,#116,.T.);
#349=EDGE_CURVE('',#287,#286,#23,.T.);
#350=EDGE_CURVE('',#287,#288,#117,.T.);
#351=EDGE_CURVE('',#289,#288,#24,.T.);
#352=EDGE_CURVE('',#290,#289,#118,.T.);
#353=EDGE_CURVE('',#283,#290,#119,.T.);
#354=EDGE_CURVE('',#288,#291,#120,.T.);
#355=EDGE_CURVE('',#291,#292,#25,.T.);
#356=EDGE_CURVE('',#292,#289,#121,.T.);
#357=EDGE_CURVE('',#293,#291,#26,.T.);
#358=EDGE_CURVE('',#291,#294,#122,.T.);
#359=EDGE_CURVE('',#294,#295,#27,.T.);
#360=EDGE_CURVE('',#295,#293,#123,.T.);
#361=EDGE_CURVE('',#293,#292,#28,.T.);
#362=EDGE_CURVE('',#286,#296,#124,.T.);
#363=EDGE_CURVE('',#296,#294,#29,.T.);
#364=EDGE_CURVE('',#294,#287,#125,.T.);
#365=EDGE_CURVE('',#296,#295,#30,.T.);
#366=EDGE_CURVE('',#297,#292,#126,.T.);
#367=EDGE_CURVE('',#297,#298,#127,.T.);
#368=EDGE_CURVE('',#298,#299,#128,.T.);
#369=EDGE_CURVE('',#300,#299,#129,.T.);
#370=EDGE_CURVE('',#300,#301,#130,.T.);
#371=EDGE_CURVE('',#301,#290,#131,.T.);
#372=EDGE_CURVE('',#293,#302,#132,.T.);
#373=EDGE_CURVE('',#302,#297,#31,.T.);
#374=EDGE_CURVE('',#303,#295,#133,.T.);
#375=EDGE_CURVE('',#303,#304,#134,.T.);
#376=EDGE_CURVE('',#304,#305,#135,.T.);
#377=EDGE_CURVE('',#306,#305,#136,.T.);
#378=EDGE_CURVE('',#307,#306,#137,.T.);
#379=EDGE_CURVE('',#307,#302,#138,.T.);
#380=EDGE_CURVE('',#308,#309,#32,.T.);
#381=EDGE_CURVE('',#308,#310,#139,.T.);
#382=EDGE_CURVE('',#311,#310,#33,.T.);
#383=EDGE_CURVE('',#311,#309,#140,.T.);
#384=EDGE_CURVE('',#309,#312,#141,.T.);
#385=EDGE_CURVE('',#313,#312,#142,.T.);
#386=EDGE_CURVE('',#313,#314,#143,.T.);
#387=EDGE_CURVE('',#314,#308,#144,.T.);
#388=EDGE_CURVE('',#315,#282,#145,.T.);
#389=EDGE_CURVE('',#312,#315,#146,.T.);
#390=EDGE_CURVE('',#316,#311,#147,.T.);
#391=EDGE_CURVE('',#317,#316,#148,.T.);
#392=EDGE_CURVE('',#279,#317,#149,.T.);
#393=EDGE_CURVE('',#318,#310,#150,.T.);
#394=EDGE_CURVE('',#318,#319,#151,.T.);
#395=EDGE_CURVE('',#319,#316,#152,.T.);
#396=EDGE_CURVE('',#314,#318,#153,.T.);
#397=EDGE_CURVE('',#320,#315,#154,.T.);
#398=EDGE_CURVE('',#320,#313,#155,.T.);
#399=EDGE_CURVE('',#321,#282,#156,.T.);
#400=EDGE_CURVE('',#321,#320,#157,.T.);
#401=EDGE_CURVE('',#283,#321,#158,.T.);
#402=EDGE_CURVE('',#296,#322,#159,.T.);
#403=EDGE_CURVE('',#322,#303,#34,.T.);
#404=EDGE_CURVE('',#285,#323,#160,.T.);
#405=EDGE_CURVE('',#323,#324,#161,.T.);
#406=EDGE_CURVE('',#325,#324,#162,.T.);
#407=EDGE_CURVE('',#325,#326,#163,.T.);
#408=EDGE_CURVE('',#326,#322,#164,.T.);
#409=EDGE_CURVE('',#327,#328,#165,.T.);
#410=EDGE_CURVE('',#329,#327,#166,.T.);
#411=EDGE_CURVE('',#330,#329,#167,.T.);
#412=EDGE_CURVE('',#328,#330,#168,.T.);
#413=EDGE_CURVE('',#305,#330,#169,.T.);
#414=EDGE_CURVE('',#328,#304,#170,.T.);
#415=EDGE_CURVE('',#329,#306,#171,.T.);
#416=EDGE_CURVE('',#307,#327,#172,.T.);
#417=EDGE_CURVE('',#326,#331,#173,.T.);
#418=EDGE_CURVE('',#331,#332,#174,.T.);
#419=EDGE_CURVE('',#332,#323,#175,.T.);
#420=EDGE_CURVE('',#333,#284,#176,.T.);
#421=EDGE_CURVE('',#334,#333,#177,.T.);
#422=EDGE_CURVE('',#319,#334,#178,.T.);
#423=EDGE_CURVE('',#301,#335,#179,.T.);
#424=EDGE_CURVE('',#335,#336,#180,.T.);
#425=EDGE_CURVE('',#336,#298,#181,.T.);
#426=EDGE_CURVE('',#279,#333,#182,.T.);
#427=EDGE_CURVE('',#337,#332,#183,.T.);
#428=EDGE_CURVE('',#324,#337,#184,.T.);
#429=EDGE_CURVE('',#338,#300,#185,.T.);
#430=EDGE_CURVE('',#335,#338,#186,.T.);
#431=EDGE_CURVE('',#339,#338,#187,.T.);
#432=EDGE_CURVE('',#339,#336,#188,.T.);
#433=EDGE_CURVE('',#340,#325,#189,.T.);
#434=EDGE_CURVE('',#331,#340,#190,.T.);
#435=EDGE_CURVE('',#299,#339,#191,.T.);
#436=EDGE_CURVE('',#337,#340,#192,.T.);
#437=EDGE_CURVE('',#334,#317,#193,.T.);
#438=ORIENTED_EDGE('',*,*,#341,.T.);
#439=ORIENTED_EDGE('',*,*,#342,.T.);
#440=ORIENTED_EDGE('',*,*,#343,.T.);
#441=ORIENTED_EDGE('',*,*,#344,.T.);
#442=ORIENTED_EDGE('',*,*,#345,.F.);
#443=ORIENTED_EDGE('',*,*,#342,.F.);
#444=ORIENTED_EDGE('',*,*,#346,.F.);
#445=ORIENTED_EDGE('',*,*,#347,.F.);
#446=ORIENTED_EDGE('',*,*,#348,.T.);
#447=ORIENTED_EDGE('',*,*,#349,.F.);
#448=ORIENTED_EDGE('',*,*,#350,.T.);
#449=ORIENTED_EDGE('',*,*,#351,.F.);
#450=ORIENTED_EDGE('',*,*,#352,.F.);
#451=ORIENTED_EDGE('',*,*,#353,.F.);
#452=ORIENTED_EDGE('',*,*,#351,.T.);
#453=ORIENTED_EDGE('',*,*,#354,.T.);
#454=ORIENTED_EDGE('',*,*,#355,.T.);
#455=ORIENTED_EDGE('',*,*,#356,.T.);
#456=ORIENTED_EDGE('',*,*,#357,.T.);
#457=ORIENTED_EDGE('',*,*,#358,.T.);
#458=ORIENTED_EDGE('',*,*,#359,.T.);
#459=ORIENTED_EDGE('',*,*,#360,.T.);
#460=ORIENTED_EDGE('',*,*,#357,.F.);
#461=ORIENTED_EDGE('',*,*,#361,.T.);
#462=ORIENTED_EDGE('',*,*,#355,.F.);
#463=ORIENTED_EDGE('',*,*,#349,.T.);
#464=ORIENTED_EDGE('',*,*,#362,.T.);
#465=ORIENTED_EDGE('',*,*,#363,.T.);
#466=ORIENTED_EDGE('',*,*,#364,.T.);
#467=ORIENTED_EDGE('',*,*,#363,.F.);
#468=ORIENTED_EDGE('',*,*,#365,.T.);
#469=ORIENTED_EDGE('',*,*,#359,.F.);
#470=ORIENTED_EDGE('',*,*,#356,.F.);
#471=ORIENTED_EDGE('',*,*,#366,.F.);
#472=ORIENTED_EDGE('',*,*,#367,.T.);
#473=ORIENTED_EDGE('',*,*,#368,.T.);
#474=ORIENTED_EDGE('',*,*,#369,.F.);
#475=ORIENTED_EDGE('',*,*,#370,.T.);
#476=ORIENTED_EDGE('',*,*,#371,.T.);
#477=ORIENTED_EDGE('',*,*,#352,.T.);
#478=ORIENTED_EDGE('',*,*,#361,.F.);
#479=ORIENTED_EDGE('',*,*,#372,.T.);
#480=ORIENTED_EDGE('',*,*,#373,.T.);
#481=ORIENTED_EDGE('',*,*,#366,.T.);
#482=ORIENTED_EDGE('',*,*,#360,.F.);
#483=ORIENTED_EDGE('',*,*,#374,.F.);
#484=ORIENTED_EDGE('',*,*,#375,.T.);
#485=ORIENTED_EDGE('',*,*,#376,.T.);
#486=ORIENTED_EDGE('',*,*,#377,.F.);
#487=ORIENTED_EDGE('',*,*,#378,.F.);
#488=ORIENTED_EDGE('',*,*,#379,.T.);
#489=ORIENTED_EDGE('',*,*,#372,.F.);
#490=ORIENTED_EDGE('',*,*,#380,.F.);
#491=ORIENTED_EDGE('',*,*,#381,.T.);
#492=ORIENTED_EDGE('',*,*,#382,.F.);
#493=ORIENTED_EDGE('',*,*,#383,.T.);
#494=ORIENTED_EDGE('',*,*,#380,.T.);
#495=ORIENTED_EDGE('',*,*,#384,.T.);
#496=ORIENTED_EDGE('',*,*,#385,.F.);
#497=ORIENTED_EDGE('',*,*,#386,.T.);
#498=ORIENTED_EDGE('',*,*,#387,.T.);
#499=ORIENTED_EDGE('',*,*,#344,.F.);
#500=ORIENTED_EDGE('',*,*,#388,.F.);
#501=ORIENTED_EDGE('',*,*,#389,.F.);
#502=ORIENTED_EDGE('',*,*,#384,.F.);
#503=ORIENTED_EDGE('',*,*,#383,.F.);
#504=ORIENTED_EDGE('',*,*,#390,.F.);
#505=ORIENTED_EDGE('',*,*,#391,.F.);
#506=ORIENTED_EDGE('',*,*,#392,.F.);
#507=ORIENTED_EDGE('',*,*,#354,.F.);
#508=ORIENTED_EDGE('',*,*,#350,.F.);
#509=ORIENTED_EDGE('',*,*,#364,.F.);
#510=ORIENTED_EDGE('',*,*,#358,.F.);
#511=ORIENTED_EDGE('',*,*,#382,.T.);
#512=ORIENTED_EDGE('',*,*,#393,.F.);
#513=ORIENTED_EDGE('',*,*,#394,.T.);
#514=ORIENTED_EDGE('',*,*,#395,.T.);
#515=ORIENTED_EDGE('',*,*,#390,.T.);
#516=ORIENTED_EDGE('',*,*,#381,.F.);
#517=ORIENTED_EDGE('',*,*,#387,.F.);
#518=ORIENTED_EDGE('',*,*,#396,.T.);
#519=ORIENTED_EDGE('',*,*,#393,.T.);
#520=ORIENTED_EDGE('',*,*,#389,.T.);
#521=ORIENTED_EDGE('',*,*,#397,.F.);
#522=ORIENTED_EDGE('',*,*,#398,.T.);
#523=ORIENTED_EDGE('',*,*,#385,.T.);
#524=ORIENTED_EDGE('',*,*,#388,.T.);
#525=ORIENTED_EDGE('',*,*,#399,.F.);
#526=ORIENTED_EDGE('',*,*,#400,.T.);
#527=ORIENTED_EDGE('',*,*,#397,.T.);
#528=ORIENTED_EDGE('',*,*,#345,.T.);
#529=ORIENTED_EDGE('',*,*,#401,.T.);
#530=ORIENTED_EDGE('',*,*,#399,.T.);
#531=ORIENTED_EDGE('',*,*,#343,.F.);
#532=ORIENTED_EDGE('',*,*,#365,.F.);
#533=ORIENTED_EDGE('',*,*,#402,.T.);
#534=ORIENTED_EDGE('',*,*,#403,.T.);
#535=ORIENTED_EDGE('',*,*,#374,.T.);
#536=ORIENTED_EDGE('',*,*,#362,.F.);
#537=ORIENTED_EDGE('',*,*,#348,.F.);
#538=ORIENTED_EDGE('',*,*,#404,.T.);
#539=ORIENTED_EDGE('',*,*,#405,.T.);
#540=ORIENTED_EDGE('',*,*,#406,.F.);
#541=ORIENTED_EDGE('',*,*,#407,.T.);
#542=ORIENTED_EDGE('',*,*,#408,.T.);
#543=ORIENTED_EDGE('',*,*,#402,.F.);
#544=ORIENTED_EDGE('',*,*,#409,.F.);
#545=ORIENTED_EDGE('',*,*,#410,.F.);
#546=ORIENTED_EDGE('',*,*,#411,.F.);
#547=ORIENTED_EDGE('',*,*,#412,.F.);
#548=ORIENTED_EDGE('',*,*,#412,.T.);
#549=ORIENTED_EDGE('',*,*,#413,.F.);
#550=ORIENTED_EDGE('',*,*,#376,.F.);
#551=ORIENTED_EDGE('',*,*,#414,.F.);
#552=ORIENTED_EDGE('',*,*,#411,.T.);
#553=ORIENTED_EDGE('',*,*,#415,.T.);
#554=ORIENTED_EDGE('',*,*,#377,.T.);
#555=ORIENTED_EDGE('',*,*,#413,.T.);
#556=ORIENTED_EDGE('',*,*,#410,.T.);
#557=ORIENTED_EDGE('',*,*,#416,.F.);
#558=ORIENTED_EDGE('',*,*,#378,.T.);
#559=ORIENTED_EDGE('',*,*,#415,.F.);
#560=ORIENTED_EDGE('',*,*,#416,.T.);
#561=ORIENTED_EDGE('',*,*,#409,.T.);
#562=ORIENTED_EDGE('',*,*,#414,.T.);
#563=ORIENTED_EDGE('',*,*,#375,.F.);
#564=ORIENTED_EDGE('',*,*,#403,.F.);
#565=ORIENTED_EDGE('',*,*,#408,.F.);
#566=ORIENTED_EDGE('',*,*,#417,.T.);
#567=ORIENTED_EDGE('',*,*,#418,.T.);
#568=ORIENTED_EDGE('',*,*,#419,.T.);
#569=ORIENTED_EDGE('',*,*,#404,.F.);
#570=ORIENTED_EDGE('',*,*,#347,.T.);
#571=ORIENTED_EDGE('',*,*,#420,.F.);
#572=ORIENTED_EDGE('',*,*,#421,.F.);
#573=ORIENTED_EDGE('',*,*,#422,.F.);
#574=ORIENTED_EDGE('',*,*,#394,.F.);
#575=ORIENTED_EDGE('',*,*,#396,.F.);
#576=ORIENTED_EDGE('',*,*,#386,.F.);
#577=ORIENTED_EDGE('',*,*,#398,.F.);
#578=ORIENTED_EDGE('',*,*,#400,.F.);
#579=ORIENTED_EDGE('',*,*,#401,.F.);
#580=ORIENTED_EDGE('',*,*,#353,.T.);
#581=ORIENTED_EDGE('',*,*,#371,.F.);
#582=ORIENTED_EDGE('',*,*,#423,.T.);
#583=ORIENTED_EDGE('',*,*,#424,.T.);
#584=ORIENTED_EDGE('',*,*,#425,.T.);
#585=ORIENTED_EDGE('',*,*,#367,.F.);
#586=ORIENTED_EDGE('',*,*,#373,.F.);
#587=ORIENTED_EDGE('',*,*,#379,.F.);
#588=ORIENTED_EDGE('',*,*,#426,.T.);
#589=ORIENTED_EDGE('',*,*,#420,.T.);
#590=ORIENTED_EDGE('',*,*,#346,.T.);
#591=ORIENTED_EDGE('',*,*,#341,.F.);
#592=ORIENTED_EDGE('',*,*,#419,.F.);
#593=ORIENTED_EDGE('',*,*,#427,.F.);
#594=ORIENTED_EDGE('',*,*,#428,.F.);
#595=ORIENTED_EDGE('',*,*,#405,.F.);
#596=ORIENTED_EDGE('',*,*,#423,.F.);
#597=ORIENTED_EDGE('',*,*,#370,.F.);
#598=ORIENTED_EDGE('',*,*,#429,.F.);
#599=ORIENTED_EDGE('',*,*,#430,.F.);
#600=ORIENTED_EDGE('',*,*,#430,.T.);
#601=ORIENTED_EDGE('',*,*,#431,.F.);
#602=ORIENTED_EDGE('',*,*,#432,.T.);
#603=ORIENTED_EDGE('',*,*,#424,.F.);
#604=ORIENTED_EDGE('',*,*,#417,.F.);
#605=ORIENTED_EDGE('',*,*,#407,.F.);
#606=ORIENTED_EDGE('',*,*,#433,.F.);
#607=ORIENTED_EDGE('',*,*,#434,.F.);
#608=ORIENTED_EDGE('',*,*,#425,.F.);
#609=ORIENTED_EDGE('',*,*,#432,.F.);
#610=ORIENTED_EDGE('',*,*,#435,.F.);
#611=ORIENTED_EDGE('',*,*,#368,.F.);
#612=ORIENTED_EDGE('',*,*,#427,.T.);
#613=ORIENTED_EDGE('',*,*,#418,.F.);
#614=ORIENTED_EDGE('',*,*,#434,.T.);
#615=ORIENTED_EDGE('',*,*,#436,.F.);
#616=ORIENTED_EDGE('',*,*,#428,.T.);
#617=ORIENTED_EDGE('',*,*,#436,.T.);
#618=ORIENTED_EDGE('',*,*,#433,.T.);
#619=ORIENTED_EDGE('',*,*,#406,.T.);
#620=ORIENTED_EDGE('',*,*,#429,.T.);
#621=ORIENTED_EDGE('',*,*,#369,.T.);
#622=ORIENTED_EDGE('',*,*,#435,.T.);
#623=ORIENTED_EDGE('',*,*,#431,.T.);
#624=ORIENTED_EDGE('',*,*,#392,.T.);
#625=ORIENTED_EDGE('',*,*,#437,.F.);
#626=ORIENTED_EDGE('',*,*,#421,.T.);
#627=ORIENTED_EDGE('',*,*,#426,.F.);
#628=ORIENTED_EDGE('',*,*,#391,.T.);
#629=ORIENTED_EDGE('',*,*,#395,.F.);
#630=ORIENTED_EDGE('',*,*,#422,.T.);
#631=ORIENTED_EDGE('',*,*,#437,.T.);
#632=PLANE('',#712);
#633=PLANE('',#713);
#634=PLANE('',#727);
#635=PLANE('',#730);
#636=PLANE('',#734);
#637=PLANE('',#735);
#638=PLANE('',#736);
#639=PLANE('',#737);
#640=PLANE('',#738);
#641=PLANE('',#739);
#642=PLANE('',#740);
#643=PLANE('',#741);
#644=PLANE('',#744);
#645=PLANE('',#745);
#646=PLANE('',#746);
#647=PLANE('',#747);
#648=PLANE('',#748);
#649=PLANE('',#749);
#650=PLANE('',#750);
#651=PLANE('',#751);
#652=PLANE('',#752);
#653=PLANE('',#753);
#654=PLANE('',#754);
#655=PLANE('',#755);
#656=PLANE('',#756);
#657=PLANE('',#757);
#658=PLANE('',#758);
#659=PLANE('',#759);
#660=PLANE('',#760);
#661=ADVANCED_FACE('',(#35),#632,.T.);
#662=ADVANCED_FACE('',(#36),#633,.T.);
#663=ADVANCED_FACE('',(#37),#17,.T.);
#664=ADVANCED_FACE('',(#38),#18,.T.);
#665=ADVANCED_FACE('',(#39),#15,.T.);
#666=ADVANCED_FACE('',(#40),#19,.T.);
#667=ADVANCED_FACE('',(#41),#16,.T.);
#668=ADVANCED_FACE('',(#42),#634,.T.);
#669=ADVANCED_FACE('',(#43),#20,.T.);
#670=ADVANCED_FACE('',(#44),#635,.T.);
#671=ADVANCED_FACE('',(#45),#21,.F.);
#672=ADVANCED_FACE('',(#46),#636,.T.);
#673=ADVANCED_FACE('',(#47),#637,.T.);
#674=ADVANCED_FACE('',(#48),#638,.T.);
#675=ADVANCED_FACE('',(#49),#639,.T.);
#676=ADVANCED_FACE('',(#50),#640,.T.);
#677=ADVANCED_FACE('',(#51),#641,.T.);
#678=ADVANCED_FACE('',(#52),#642,.T.);
#679=ADVANCED_FACE('',(#53),#643,.T.);
#680=ADVANCED_FACE('',(#54),#22,.T.);
#681=ADVANCED_FACE('',(#55),#644,.T.);
#682=ADVANCED_FACE('',(#56),#645,.F.);
#683=ADVANCED_FACE('',(#57),#646,.T.);
#684=ADVANCED_FACE('',(#58),#647,.T.);
#685=ADVANCED_FACE('',(#59),#648,.T.);
#686=ADVANCED_FACE('',(#60),#649,.F.);
#687=ADVANCED_FACE('',(#61),#650,.T.);
#688=ADVANCED_FACE('',(#62),#651,.F.);
#689=ADVANCED_FACE('',(#63),#652,.F.);
#690=ADVANCED_FACE('',(#64),#653,.T.);
#691=ADVANCED_FACE('',(#65),#654,.F.);
#692=ADVANCED_FACE('',(#66),#655,.F.);
#693=ADVANCED_FACE('',(#67),#656,.T.);
#694=ADVANCED_FACE('',(#68),#657,.T.);
#695=ADVANCED_FACE('',(#69),#658,.T.);
#696=ADVANCED_FACE('',(#70),#659,.T.);
#697=ADVANCED_FACE('',(#71),#660,.T.);
#698=CLOSED_SHELL('',(#661,#662,#663,#664,#665,#666,#667,#668,#669,#670,
#671,#672,#673,#674,#675,#676,#677,#678,#679,#680,#681,#682,#683,#684,#685,
#686,#687,#688,#689,#690,#691,#692,#693,#694,#695,#696,#697));
#699=DERIVED_UNIT_ELEMENT(#701,1.);
#700=DERIVED_UNIT_ELEMENT(#1148,-3.);
#701=(
MASS_UNIT()
NAMED_UNIT(*)
SI_UNIT(.KILO.,.GRAM.)
);
#702=DERIVED_UNIT((#699,#700));
#703=MEASURE_REPRESENTATION_ITEM('density measure',
POSITIVE_RATIO_MEASURE(7850.),#702);
#704=PROPERTY_DEFINITION_REPRESENTATION(#709,#706);
#705=PROPERTY_DEFINITION_REPRESENTATION(#710,#707);
#706=REPRESENTATION('material name',(#708),#1145);
#707=REPRESENTATION('density',(#703),#1145);
#708=DESCRIPTIVE_REPRESENTATION_ITEM('Steel','Steel');
#709=PROPERTY_DEFINITION('material property','material name',#1155);
#710=PROPERTY_DEFINITION('material property','density of part',#1155);
#711=AXIS2_PLACEMENT_3D('',#946,#761,#762);
#712=AXIS2_PLACEMENT_3D('',#947,#763,#764);
#713=AXIS2_PLACEMENT_3D('',#956,#769,#770);
#714=AXIS2_PLACEMENT_3D('',#966,#775,#776);
#715=AXIS2_PLACEMENT_3D('',#970,#778,#779);
#716=AXIS2_PLACEMENT_3D('',#974,#782,#783);
#717=AXIS2_PLACEMENT_3D('',#978,#785,#786);
#718=AXIS2_PLACEMENT_3D('',#980,#788,#789);
#719=AXIS2_PLACEMENT_3D('',#982,#790,#791);
#720=AXIS2_PLACEMENT_3D('',#986,#793,#794);
#721=AXIS2_PLACEMENT_3D('',#988,#796,#797);
#722=AXIS2_PLACEMENT_3D('',#989,#798,#799);
#723=AXIS2_PLACEMENT_3D('',#990,#800,#801);
#724=AXIS2_PLACEMENT_3D('',#993,#803,#804);
#725=AXIS2_PLACEMENT_3D('',#995,#806,#807);
#726=AXIS2_PLACEMENT_3D('',#996,#808,#809);
#727=AXIS2_PLACEMENT_3D('',#997,#810,#811);
#728=AXIS2_PLACEMENT_3D('',#1009,#818,#819);
#729=AXIS2_PLACEMENT_3D('',#1012,#821,#822);
#730=AXIS2_PLACEMENT_3D('',#1013,#823,#824);
#731=AXIS2_PLACEMENT_3D('',#1025,#831,#832);
#732=AXIS2_PLACEMENT_3D('',#1028,#833,#834);
#733=AXIS2_PLACEMENT_3D('',#1032,#836,#837);
#734=AXIS2_PLACEMENT_3D('',#1034,#839,#840);
#735=AXIS2_PLACEMENT_3D('',#1042,#845,#846);
#736=AXIS2_PLACEMENT_3D('',#1051,#852,#853);
#737=AXIS2_PLACEMENT_3D('',#1052,#854,#855);
#738=AXIS2_PLACEMENT_3D('',#1058,#859,#860);
#739=AXIS2_PLACEMENT_3D('',#1060,#862,#863);
#740=AXIS2_PLACEMENT_3D('',#1064,#866,#867);
#741=AXIS2_PLACEMENT_3D('',#1068,#870,#871);
#742=AXIS2_PLACEMENT_3D('',#1070,#873,#874);
#743=AXIS2_PLACEMENT_3D('',#1073,#876,#877);
#744=AXIS2_PLACEMENT_3D('',#1074,#878,#879);
#745=AXIS2_PLACEMENT_3D('',#1084,#885,#886);
#746=AXIS2_PLACEMENT_3D('',#1093,#891,#892);
#747=AXIS2_PLACEMENT_3D('',#1096,#895,#896);
#748=AXIS2_PLACEMENT_3D('',#1098,#898,#899);
#749=AXIS2_PLACEMENT_3D('',#1100,#901,#902);
#750=AXIS2_PLACEMENT_3D('',#1116,#912,#913);
#751=AXIS2_PLACEMENT_3D('',#1118,#915,#916);
#752=AXIS2_PLACEMENT_3D('',#1122,#919,#920);
#753=AXIS2_PLACEMENT_3D('',#1126,#923,#924);
#754=AXIS2_PLACEMENT_3D('',#1130,#927,#928);
#755=AXIS2_PLACEMENT_3D('',#1134,#931,#932);
#756=AXIS2_PLACEMENT_3D('',#1136,#934,#935);
#757=AXIS2_PLACEMENT_3D('',#1138,#937,#938);
#758=AXIS2_PLACEMENT_3D('',#1139,#939,#940);
#759=AXIS2_PLACEMENT_3D('',#1140,#941,#942);
#760=AXIS2_PLACEMENT_3D('',#1142,#944,#945);
#761=DIRECTION('axis',(0.,0.,1.));
#762=DIRECTION('refdir',(1.,0.,0.));
#763=DIRECTION('center_axis',(0.,0.707106781186548,-0.707106781186548));
#764=DIRECTION('ref_axis',(-1.,0.,0.));
#765=DIRECTION('',(0.577350269189619,-0.577350269189629,-0.577350269189629));
#766=DIRECTION('',(1.,0.,0.));
#767=DIRECTION('',(0.577350269189622,0.577350269189628,0.577350269189628));
#768=DIRECTION('',(-1.,0.,0.));
#769=DIRECTION('center_axis',(0.,1.,0.));
#770=DIRECTION('ref_axis',(-1.,0.,0.));
#771=DIRECTION('',(0.,0.,-1.));
#772=DIRECTION('',(0.,0.,1.));
#773=DIRECTION('',(1.,0.,0.));
#774=DIRECTION('',(0.,0.,1.));
#775=DIRECTION('center_axis',(0.,-1.,0.));
#776=DIRECTION('ref_axis',(-0.70710678118655,0.,0.707106781186545));
#777=DIRECTION('',(1.,0.,0.));
#778=DIRECTION('center_axis',(0.,-1.,0.));
#779=DIRECTION('ref_axis',(0.707106781186548,0.,0.707106781186548));
#780=DIRECTION('',(0.,0.,1.));
#781=DIRECTION('',(1.,0.,0.));
#782=DIRECTION('center_axis',(1.53134210293125E-16,-1.,0.));
#783=DIRECTION('ref_axis',(0.707106781186548,0.,0.707106781186548));
#784=DIRECTION('',(1.53134210293125E-16,-1.,0.));
#785=DIRECTION('center_axis',(0.,1.,0.));
#786=DIRECTION('ref_axis',(0.,0.,1.));
#787=DIRECTION('',(-1.53134210293125E-16,1.,0.));
#788=DIRECTION('center_axis',(-1.,0.,0.));
#789=DIRECTION('ref_axis',(0.,-0.70710678118655,0.707106781186545));
#790=DIRECTION('center_axis',(-1.,0.,0.));
#791=DIRECTION('ref_axis',(0.,-1.,0.));
#792=DIRECTION('',(-1.,0.,0.));
#793=DIRECTION('center_axis',(1.,0.,0.));
#794=DIRECTION('ref_axis',(0.,0.,1.));
#795=DIRECTION('',(1.,0.,0.));
#796=DIRECTION('center_axis',(0.408248290463864,-0.408248290463859,-0.816496580927728));
#797=DIRECTION('ref_axis',(0.577350269189627,-0.577350269189627,0.577350269189623));
#798=DIRECTION('center_axis',(0.,0.,1.));
#799=DIRECTION('ref_axis',(0.707106781186543,-0.707106781186552,0.));
#800=DIRECTION('center_axis',(-1.53134210293125E-16,1.,0.));
#801=DIRECTION('ref_axis',(-0.70710678118655,0.,0.707106781186545));
#802=DIRECTION('',(1.53134210293125E-16,-1.,0.));
#803=DIRECTION('center_axis',(0.,1.,0.));
#804=DIRECTION('ref_axis',(-1.,0.,0.));
#805=DIRECTION('',(-1.53134210293125E-16,1.,0.));
#806=DIRECTION('center_axis',(-0.816496580927728,0.408248290463864,-0.408248290463859));
#807=DIRECTION('ref_axis',(-0.577350269189623,-0.577350269189627,0.577350269189627));
#808=DIRECTION('center_axis',(0.,0.,1.));
#809=DIRECTION('ref_axis',(-0.707106781186542,-0.707106781186553,0.));
#810=DIRECTION('center_axis',(1.,1.53134210293125E-16,0.));
#811=DIRECTION('ref_axis',(-1.53134210293125E-16,1.,0.));
#812=DIRECTION('',(0.,0.,1.));
#813=DIRECTION('',(-1.53134210293125E-16,1.,0.));
#814=DIRECTION('',(0.,0.,-1.));
#815=DIRECTION('',(0.,-1.,0.));
#816=DIRECTION('',(0.,0.,1.));
#817=DIRECTION('',(0.,1.,0.));
#818=DIRECTION('center_axis',(0.,0.,1.));
#819=DIRECTION('ref_axis',(0.707106781186543,-0.707106781186552,0.));
#820=DIRECTION('',(0.,0.,-1.));
#821=DIRECTION('center_axis',(0.,0.,1.));
#822=DIRECTION('ref_axis',(0.707106781186543,-0.707106781186552,0.));
#823=DIRECTION('center_axis',(0.,-1.,0.));
#824=DIRECTION('ref_axis',(1.,0.,0.));
#825=DIRECTION('',(0.,0.,1.));
#826=DIRECTION('',(1.,0.,0.));
#827=DIRECTION('',(0.,0.,-1.));
#828=DIRECTION('',(-1.,0.,0.));
#829=DIRECTION('',(0.,0.,-1.));
#830=DIRECTION('',(1.,0.,0.));
#831=DIRECTION('center_axis',(1.,0.,0.));
#832=DIRECTION('ref_axis',(0.,-0.707106781186547,0.707106781186547));
#833=DIRECTION('center_axis',(-1.,4.22942104619107E-16,0.));
#834=DIRECTION('ref_axis',(0.,-0.707106781186547,0.707106781186547));
#835=DIRECTION('',(-1.,0.,0.));
#836=DIRECTION('center_axis',(0.999999999999999,3.54789552234468E-8,0.));
#837=DIRECTION('ref_axis',(2.50874098279131E-8,-0.707106781186547,0.707106781186547));
#838=DIRECTION('',(1.,0.,0.));
#839=DIRECTION('center_axis',(-1.,4.22942104619107E-16,0.));
#840=DIRECTION('ref_axis',(-4.22942104619107E-16,-1.,0.));
#841=DIRECTION('',(4.22942104619107E-16,1.,0.));
#842=DIRECTION('',(0.,0.,1.));
#843=DIRECTION('',(-4.22942104619107E-16,-1.,0.));
#844=DIRECTION('',(0.,0.,1.));
#845=DIRECTION('center_axis',(0.,0.,-1.));
#846=DIRECTION('ref_axis',(-1.,0.,0.));
#847=DIRECTION('',(1.11022302462516E-16,1.,0.));
#848=DIRECTION('',(1.,0.,0.));
#849=DIRECTION('',(3.54789552234468E-8,-0.999999999999999,0.));
#850=DIRECTION('',(1.,0.,0.));
#851=DIRECTION('',(0.,-1.,0.));
#852=DIRECTION('center_axis',(0.,0.,1.));
#853=DIRECTION('ref_axis',(1.,0.,0.));
#854=DIRECTION('center_axis',(0.999999999999999,3.54789552234468E-8,0.));
#855=DIRECTION('ref_axis',(-3.54789552234468E-8,0.999999999999999,0.));
#856=DIRECTION('',(0.,0.,1.));
#857=DIRECTION('',(-3.54789552234468E-8,0.999999999999999,0.));
#858=DIRECTION('',(0.,0.,1.));
#859=DIRECTION('center_axis',(0.,1.,0.));
#860=DIRECTION('ref_axis',(-1.,0.,0.));
#861=DIRECTION('',(-1.,0.,0.));
#862=DIRECTION('center_axis',(0.,1.,0.));
#863=DIRECTION('ref_axis',(-1.,0.,0.));
#864=DIRECTION('',(0.,0.,1.));
#865=DIRECTION('',(-1.,0.,0.));
#866=DIRECTION('center_axis',(-1.,1.11022302462516E-16,0.));
#867=DIRECTION('ref_axis',(-1.11022302462516E-16,-1.,0.));
#868=DIRECTION('',(0.,0.,1.));
#869=DIRECTION('',(-1.11022302462516E-16,-1.,0.));
#870=DIRECTION('center_axis',(-0.707106781186551,0.707106781186544,0.));
#871=DIRECTION('ref_axis',(0.,0.,1.));
#872=DIRECTION('',(-0.707106781186544,-0.707106781186551,0.));
#873=DIRECTION('center_axis',(0.,0.,1.));
#874=DIRECTION('ref_axis',(-0.707106781186541,-0.707106781186554,0.));
#875=DIRECTION('',(0.,0.,-1.));
#876=DIRECTION('center_axis',(0.,0.,1.));
#877=DIRECTION('ref_axis',(-0.707106781186541,-0.707106781186554,0.));
#878=DIRECTION('center_axis',(-1.,-1.53134210293125E-16,0.));
#879=DIRECTION('ref_axis',(1.53134210293125E-16,-1.,0.));
#880=DIRECTION('',(1.53134210293125E-16,-1.,0.));
#881=DIRECTION('',(0.,0.,-1.));
#882=DIRECTION('',(0.,1.,0.));
#883=DIRECTION('',(0.,0.,1.));
#884=DIRECTION('',(1.53134210293125E-16,-1.,0.));
#885=DIRECTION('center_axis',(0.,-1.,0.));
#886=DIRECTION('ref_axis',(0.,0.,-1.));
#887=DIRECTION('',(-1.,0.,0.));
#888=DIRECTION('',(0.,0.,1.));
#889=DIRECTION('',(1.,0.,0.));
#890=DIRECTION('',(0.,0.,-1.));
#891=DIRECTION('center_axis',(-1.,0.,0.));
#892=DIRECTION('ref_axis',(0.,1.,0.));
#893=DIRECTION('',(0.,1.,0.));
#894=DIRECTION('',(0.,-1.,0.));
#895=DIRECTION('center_axis',(0.,0.,-1.));
#896=DIRECTION('ref_axis',(-1.,0.,0.));
#897=DIRECTION('',(0.,-1.,0.));
#898=DIRECTION('center_axis',(1.,0.,0.));
#899=DIRECTION('ref_axis',(0.,-1.,0.));
#900=DIRECTION('',(0.,1.,0.));
#901=DIRECTION('center_axis',(0.,0.,1.));
#902=DIRECTION('ref_axis',(-1.,0.,0.));
#903=DIRECTION('',(1.,0.,0.));
#904=DIRECTION('',(0.,1.,0.));
#905=DIRECTION('',(-1.,0.,0.));
#906=DIRECTION('',(-0.707106781186541,0.707106781186554,0.));
#907=DIRECTION('',(0.,1.,0.));
#908=DIRECTION('',(-1.,0.,0.));
#909=DIRECTION('',(-1.,0.,0.));
#910=DIRECTION('',(0.,-1.,0.));
#911=DIRECTION('',(1.,0.,0.));
#912=DIRECTION('center_axis',(0.707106781186554,0.707106781186541,0.));
#913=DIRECTION('ref_axis',(0.,0.,-1.));
#914=DIRECTION('',(0.,0.,-1.));
#915=DIRECTION('center_axis',(0.,-1.,0.));
#916=DIRECTION('ref_axis',(0.,0.,-1.));
#917=DIRECTION('',(0.,0.,1.));
#918=DIRECTION('',(1.,0.,0.));
#919=DIRECTION('center_axis',(0.,-1.,0.));
#920=DIRECTION('ref_axis',(0.,0.,-1.));
#921=DIRECTION('',(1.,0.,0.));
#922=DIRECTION('',(0.,0.,-1.));
#923=DIRECTION('center_axis',(-1.,0.,0.));
#924=DIRECTION('ref_axis',(0.,1.,0.));
#925=DIRECTION('',(0.,1.,0.));
#926=DIRECTION('',(0.,0.,1.));
#927=DIRECTION('center_axis',(0.,1.,0.));
#928=DIRECTION('ref_axis',(0.,0.,1.));
#929=DIRECTION('',(-1.,0.,0.));
#930=DIRECTION('',(0.,0.,-1.));
#931=DIRECTION('center_axis',(0.,1.,0.));
#932=DIRECTION('ref_axis',(0.,0.,1.));
#933=DIRECTION('',(-1.,0.,0.));
#934=DIRECTION('center_axis',(1.,0.,0.));
#935=DIRECTION('ref_axis',(0.,-1.,0.));
#936=DIRECTION('',(0.,-1.,0.));
#937=DIRECTION('center_axis',(0.,0.,-1.));
#938=DIRECTION('ref_axis',(-1.,0.,0.));
#939=DIRECTION('center_axis',(0.,0.,-1.));
#940=DIRECTION('ref_axis',(-1.,0.,0.));
#941=DIRECTION('center_axis',(1.,0.,0.));
#942=DIRECTION('ref_axis',(0.,1.,0.));
#943=DIRECTION('',(0.,0.,1.));
#944=DIRECTION('center_axis',(0.,1.,0.));
#945=DIRECTION('ref_axis',(-1.,0.,0.));
#946=CARTESIAN_POINT('',(0.,0.,0.));
#947=CARTESIAN_POINT('Origin',(-37.5,146.5,66.5));
#948=CARTESIAN_POINT('',(-75.,146.,66.));
#949=CARTESIAN_POINT('',(-76.,147.,67.));
#950=CARTESIAN_POINT('',(-61.7500000000002,132.75,52.75));
#951=CARTESIAN_POINT('',(76.,147.,67.));
#952=CARTESIAN_POINT('',(-37.5,147.,67.));
#953=CARTESIAN_POINT('',(75.,146.,66.));
#954=CARTESIAN_POINT('',(49.2500000000002,120.25,40.25));
#955=CARTESIAN_POINT('',(-37.5,146.,66.));
#956=CARTESIAN_POINT('Origin',(-75.,147.,22.));
#957=CARTESIAN_POINT('',(76.,147.,22.));
#958=CARTESIAN_POINT('',(76.,147.,22.));
#959=CARTESIAN_POINT('',(-76.,147.,22.));
#960=CARTESIAN_POINT('',(-76.,147.,22.));
#961=CARTESIAN_POINT('',(-78.,147.,22.));
#962=CARTESIAN_POINT('',(-78.,147.,22.));
#963=CARTESIAN_POINT('',(-78.,147.,66.));
#964=CARTESIAN_POINT('',(-78.,147.,22.));
#965=CARTESIAN_POINT('',(-75.,147.,69.));
#966=CARTESIAN_POINT('Origin',(-75.,147.,66.));
#967=CARTESIAN_POINT('',(75.,147.,69.));
#968=CARTESIAN_POINT('',(-37.5,147.,69.));
#969=CARTESIAN_POINT('',(78.,147.,66.));
#970=CARTESIAN_POINT('Origin',(75.,147.,66.));
#971=CARTESIAN_POINT('',(78.,147.,22.));
#972=CARTESIAN_POINT('',(78.,147.,22.));
#973=CARTESIAN_POINT('',(-78.,147.,22.));
#974=CARTESIAN_POINT('Origin',(75.,128.75,66.));
#975=CARTESIAN_POINT('',(75.,117.,69.));
#976=CARTESIAN_POINT('',(75.,128.75,69.));
#977=CARTESIAN_POINT('',(78.,117.,66.));
#978=CARTESIAN_POINT('Origin',(75.,117.,66.));
#979=CARTESIAN_POINT('',(78.,128.75,66.));
#980=CARTESIAN_POINT('Origin',(-39.,117.,66.));
#981=CARTESIAN_POINT('',(75.,114.,66.));
#982=CARTESIAN_POINT('Origin',(75.,117.,66.));
#983=CARTESIAN_POINT('',(-75.,117.,69.));
#984=CARTESIAN_POINT('',(-39.,117.,69.));
#985=CARTESIAN_POINT('',(-75.,114.,66.));
#986=CARTESIAN_POINT('Origin',(-75.,117.,66.));
#987=CARTESIAN_POINT('',(-39.,114.,66.));
#988=CARTESIAN_POINT('Origin',(75.,117.,66.));
#989=CARTESIAN_POINT('Origin',(75.,117.,66.));
#990=CARTESIAN_POINT('Origin',(-75.,138.75,66.));
#991=CARTESIAN_POINT('',(-78.,117.,66.));
#992=CARTESIAN_POINT('',(-78.,138.75,66.));
#993=CARTESIAN_POINT('Origin',(-75.,117.,66.));
#994=CARTESIAN_POINT('',(-75.,138.75,69.));
#995=CARTESIAN_POINT('Origin',(-75.,117.,66.));
#996=CARTESIAN_POINT('Origin',(-75.,117.,66.));
#997=CARTESIAN_POINT('Origin',(78.,127.,22.));
#998=CARTESIAN_POINT('',(78.,117.,22.));
#999=CARTESIAN_POINT('',(78.,117.,63.5));
#1000=CARTESIAN_POINT('',(78.,117.1,22.));
#1001=CARTESIAN_POINT('',(78.,122.,22.));
#1002=CARTESIAN_POINT('',(78.,117.1,15.2));
#1003=CARTESIAN_POINT('',(78.,117.1,22.));
#1004=CARTESIAN_POINT('',(78.,126.9,15.2));
#1005=CARTESIAN_POINT('',(78.,127.,15.2));
#1006=CARTESIAN_POINT('',(78.,126.9,22.));
#1007=CARTESIAN_POINT('',(78.,126.9,22.));
#1008=CARTESIAN_POINT('',(78.,114.,22.));
#1009=CARTESIAN_POINT('Origin',(75.,117.,22.));
#1010=CARTESIAN_POINT('',(75.,114.,22.));
#1011=CARTESIAN_POINT('',(75.,114.,22.));
#1012=CARTESIAN_POINT('Origin',(75.,117.,22.));
#1013=CARTESIAN_POINT('Origin',(-78.,114.,22.));
#1014=CARTESIAN_POINT('',(-75.,114.,22.));
#1015=CARTESIAN_POINT('',(-75.,114.,22.));
#1016=CARTESIAN_POINT('',(-71.,114.,22.));
#1017=CARTESIAN_POINT('',(-78.,114.,22.));
#1018=CARTESIAN_POINT('',(-71.,114.,19.2));
#1019=CARTESIAN_POINT('',(-71.,114.,22.));
#1020=CARTESIAN_POINT('',(71.,114.,19.2));
#1021=CARTESIAN_POINT('',(-71.,114.,19.2));
#1022=CARTESIAN_POINT('',(71.,114.,22.));
#1023=CARTESIAN_POINT('',(71.,114.,22.));
#1024=CARTESIAN_POINT('',(-78.,114.,22.));
#1025=CARTESIAN_POINT('Origin',(35.5,126.,56.));
#1026=CARTESIAN_POINT('',(71.,116.,56.));
#1027=CARTESIAN_POINT('',(71.,126.,66.));
#1028=CARTESIAN_POINT('Origin',(71.,126.,56.));
#1029=CARTESIAN_POINT('',(-71.,116.,56.));
#1030=CARTESIAN_POINT('',(35.5,116.,56.));
#1031=CARTESIAN_POINT('',(-71.0000003547896,126.,66.));
#1032=CARTESIAN_POINT('Origin',(-71.0000003547896,126.,56.));
#1033=CARTESIAN_POINT('',(35.5,126.,66.));
#1034=CARTESIAN_POINT('Origin',(71.,137.,22.));
#1035=CARTESIAN_POINT('',(71.,137.,66.));
#1036=CARTESIAN_POINT('',(71.,133.75,66.));
#1037=CARTESIAN_POINT('',(71.,137.,22.));
#1038=CARTESIAN_POINT('',(71.,137.,22.));
#1039=CARTESIAN_POINT('',(71.,116.,22.));
#1040=CARTESIAN_POINT('',(71.,137.,22.));
#1041=CARTESIAN_POINT('',(71.,116.,60.5));
#1042=CARTESIAN_POINT('Origin',(1.77635683940025E-14,130.5,66.));
#1043=CARTESIAN_POINT('',(75.,137.,66.));
#1044=CARTESIAN_POINT('',(75.,138.75,66.));
#1045=CARTESIAN_POINT('',(37.5,137.,66.));
#1046=CARTESIAN_POINT('',(-71.0000007450581,137.,66.));
#1047=CARTESIAN_POINT('',(-71.0000002572224,123.249998740497,66.));
#1048=CARTESIAN_POINT('',(-75.,137.,66.));
#1049=CARTESIAN_POINT('',(-35.500000372529,137.,66.));
#1050=CARTESIAN_POINT('',(-75.,133.75,66.));
#1051=CARTESIAN_POINT('Origin',(1.77635683940025E-14,130.5,69.));
#1052=CARTESIAN_POINT('Origin',(-71.,116.,22.));
#1053=CARTESIAN_POINT('',(-71.,116.,22.));
#1054=CARTESIAN_POINT('',(-71.,116.,22.));
#1055=CARTESIAN_POINT('',(-71.0000007450581,137.,22.));
#1056=CARTESIAN_POINT('',(-71.,116.,22.));
#1057=CARTESIAN_POINT('',(-71.0000007450581,137.,22.));
#1058=CARTESIAN_POINT('Origin',(71.,116.,22.));
#1059=CARTESIAN_POINT('',(71.,116.,22.));
#1060=CARTESIAN_POINT('Origin',(75.,137.,22.));
#1061=CARTESIAN_POINT('',(75.,137.,22.));
#1062=CARTESIAN_POINT('',(75.,137.,22.));
#1063=CARTESIAN_POINT('',(75.,137.,22.));
#1064=CARTESIAN_POINT('Origin',(75.,147.,22.));
#1065=CARTESIAN_POINT('',(75.,146.,22.));
#1066=CARTESIAN_POINT('',(75.,146.,22.));
#1067=CARTESIAN_POINT('',(75.,217.,22.));
#1068=CARTESIAN_POINT('Origin',(75.5,146.5,22.));
#1069=CARTESIAN_POINT('',(52.6250000000002,123.625,22.));
#1070=CARTESIAN_POINT('Origin',(-75.,117.,22.));
#1071=CARTESIAN_POINT('',(-78.,117.,22.));
#1072=CARTESIAN_POINT('',(-78.,117.,22.));
#1073=CARTESIAN_POINT('Origin',(-75.,117.,22.));
#1074=CARTESIAN_POINT('Origin',(-78.,147.,22.));
#1075=CARTESIAN_POINT('',(-78.,126.9,22.));
#1076=CARTESIAN_POINT('',(-78.,137.,22.));
#1077=CARTESIAN_POINT('',(-78.,126.9,15.2));
#1078=CARTESIAN_POINT('',(-78.,126.9,22.));
#1079=CARTESIAN_POINT('',(-78.,117.1,15.2));
#1080=CARTESIAN_POINT('',(-78.,127.,15.2));
#1081=CARTESIAN_POINT('',(-78.,117.1,22.));
#1082=CARTESIAN_POINT('',(-78.,117.1,22.));
#1083=CARTESIAN_POINT('',(-78.,288.,22.));
#1084=CARTESIAN_POINT('Origin',(-71.,114.9,22.));
#1085=CARTESIAN_POINT('',(71.,114.9,22.));
#1086=CARTESIAN_POINT('',(-71.,114.9,22.));
#1087=CARTESIAN_POINT('',(-35.5,114.9,22.));
#1088=CARTESIAN_POINT('',(71.,114.9,19.2));
#1089=CARTESIAN_POINT('',(71.,114.9,22.));
#1090=CARTESIAN_POINT('',(-71.,114.9,19.2));
#1091=CARTESIAN_POINT('',(-35.5,114.9,19.2));
#1092=CARTESIAN_POINT('',(-71.,114.9,22.));
#1093=CARTESIAN_POINT('Origin',(-71.,114.,22.));
#1094=CARTESIAN_POINT('',(-71.,115.,19.2));
#1095=CARTESIAN_POINT('',(-71.,122.25,22.));
#1096=CARTESIAN_POINT('Origin',(-8.88178419700125E-15,114.5,19.2));
#1097=CARTESIAN_POINT('',(71.,114.,19.2));
#1098=CARTESIAN_POINT('Origin',(71.,115.,22.));
#1099=CARTESIAN_POINT('',(71.,122.75,22.));
#1100=CARTESIAN_POINT('Origin',(1.77635683940025E-14,130.5,22.));
#1101=CARTESIAN_POINT('',(-74.,117.1,22.));
#1102=CARTESIAN_POINT('',(-37.,117.1,22.));
#1103=CARTESIAN_POINT('',(-74.,126.9,22.));
#1104=CARTESIAN_POINT('',(-74.,128.75,22.));
#1105=CARTESIAN_POINT('',(-39.,126.9,22.));
#1106=CARTESIAN_POINT('',(-75.,146.,22.));
#1107=CARTESIAN_POINT('',(-52.6250000000003,123.625,22.));
#1108=CARTESIAN_POINT('',(-75.,137.,22.));
#1109=CARTESIAN_POINT('',(-75.,137.,22.));
#1110=CARTESIAN_POINT('',(-71.0000007450581,137.,22.));
#1111=CARTESIAN_POINT('',(74.,126.9,22.));
#1112=CARTESIAN_POINT('',(37.,126.9,22.));
#1113=CARTESIAN_POINT('',(74.,117.1,22.));
#1114=CARTESIAN_POINT('',(74.,123.75,22.));
#1115=CARTESIAN_POINT('',(39.,117.1,22.));
#1116=CARTESIAN_POINT('Origin',(-75.5,146.5,22.));
#1117=CARTESIAN_POINT('',(-75.,146.,22.));
#1118=CARTESIAN_POINT('Origin',(-78.,126.9,22.));
#1119=CARTESIAN_POINT('',(-74.,126.9,15.2));
#1120=CARTESIAN_POINT('',(-74.,126.9,22.));
#1121=CARTESIAN_POINT('',(-77.,126.9,15.2));
#1122=CARTESIAN_POINT('Origin',(74.,126.9,22.));
#1123=CARTESIAN_POINT('',(74.,126.9,15.2));
#1124=CARTESIAN_POINT('',(75.,126.9,15.2));
#1125=CARTESIAN_POINT('',(74.,126.9,22.));
#1126=CARTESIAN_POINT('Origin',(74.,117.,22.));
#1127=CARTESIAN_POINT('',(74.,117.1,15.2));
#1128=CARTESIAN_POINT('',(74.,117.,15.2));
#1129=CARTESIAN_POINT('',(74.,117.1,22.));
#1130=CARTESIAN_POINT('Origin',(-74.,117.1,22.));
#1131=CARTESIAN_POINT('',(-74.,117.1,15.2));
#1132=CARTESIAN_POINT('',(-75.,117.1,15.2));
#1133=CARTESIAN_POINT('',(-74.,117.1,22.));
#1134=CARTESIAN_POINT('Origin',(78.,117.1,22.));
#1135=CARTESIAN_POINT('',(77.,117.1,15.2));
#1136=CARTESIAN_POINT('Origin',(-74.,127.,22.));
#1137=CARTESIAN_POINT('',(-74.,117.,15.2));
#1138=CARTESIAN_POINT('Origin',(-76.,122.,15.2));
#1139=CARTESIAN_POINT('Origin',(76.,122.,15.2));
#1140=CARTESIAN_POINT('Origin',(-75.,137.,22.));
#1141=CARTESIAN_POINT('',(-75.,137.,22.));
#1142=CARTESIAN_POINT('Origin',(-71.0000007450581,137.,22.));
#1143=UNCERTAINTY_MEASURE_WITH_UNIT(LENGTH_MEASURE(0.01),#1147,
'DISTANCE_ACCURACY_VALUE',
'Maximum model space distance between geometric entities at asserted c
onnectivities');
#1144=UNCERTAINTY_MEASURE_WITH_UNIT(LENGTH_MEASURE(0.01),#1147,
'DISTANCE_ACCURACY_VALUE',
'Maximum model space distance between geometric entities at asserted c
onnectivities');
#1145=(
GEOMETRIC_REPRESENTATION_CONTEXT(3)
GLOBAL_UNCERTAINTY_ASSIGNED_CONTEXT((#1143))
GLOBAL_UNIT_ASSIGNED_CONTEXT((#1147,#1149,#1150))
REPRESENTATION_CONTEXT('','3D')
);
#1146=(
GEOMETRIC_REPRESENTATION_CONTEXT(3)
GLOBAL_UNCERTAINTY_ASSIGNED_CONTEXT((#1144))
GLOBAL_UNIT_ASSIGNED_CONTEXT((#1147,#1149,#1150))
REPRESENTATION_CONTEXT('','3D')
);
#1147=(
LENGTH_UNIT()
NAMED_UNIT(*)
SI_UNIT(.MILLI.,.METRE.)
);
#1148=(
LENGTH_UNIT()
NAMED_UNIT(*)
SI_UNIT($,.METRE.)
);
#1149=(
NAMED_UNIT(*)
PLANE_ANGLE_UNIT()
SI_UNIT($,.RADIAN.)
);
#1150=(
NAMED_UNIT(*)
SI_UNIT($,.STERADIAN.)
SOLID_ANGLE_UNIT()
);
#1151=SHAPE_DEFINITION_REPRESENTATION(#1152,#1153);
#1152=PRODUCT_DEFINITION_SHAPE('',$,#1155);
#1153=SHAPE_REPRESENTATION('',(#711),#1145);
#1154=PRODUCT_DEFINITION_CONTEXT('part definition',#1159,'design');
#1155=PRODUCT_DEFINITION('2026-08-26-02-02-44-234','HP Front Shroud',#1156,
#1154);
#1156=PRODUCT_DEFINITION_FORMATION('',$,#1161);
#1157=PRODUCT_RELATED_PRODUCT_CATEGORY('HP Front Shroud',
'HP Front Shroud',(#1161));
#1158=APPLICATION_PROTOCOL_DEFINITION('international standard',
'automotive_design',2009,#1159);
#1159=APPLICATION_CONTEXT(
'Core Data for Automotive Mechanical Design Process');
#1160=PRODUCT_CONTEXT('part definition',#1159,'mechanical');
#1161=PRODUCT('2026-08-26-02-02-44-234','HP Front Shroud',$,(#1160));
#1162=PRESENTATION_STYLE_ASSIGNMENT((#1164));
#1163=PRESENTATION_STYLE_ASSIGNMENT((#1165));
#1164=SURFACE_STYLE_USAGE(.BOTH.,#1166);
#1165=SURFACE_STYLE_USAGE(.BOTH.,#1167);
#1166=SURFACE_SIDE_STYLE('',(#1168));
#1167=SURFACE_SIDE_STYLE('',(#1169));
#1168=SURFACE_STYLE_FILL_AREA(#1170);
#1169=SURFACE_STYLE_FILL_AREA(#1171);
#1170=FILL_AREA_STYLE('Steel - Satin',(#1172));
#1171=FILL_AREA_STYLE('Nylon 12 (with Formlabs Fuse 1 3D Printer)',(#1173));
#1172=FILL_AREA_STYLE_COLOUR('Steel - Satin',#1174);
#1173=FILL_AREA_STYLE_COLOUR(
'Nylon 12 (with Formlabs Fuse 1 3D Printer)',#1175);
#1174=COLOUR_RGB('Steel - Satin',0.627450980392157,0.627450980392157,0.627450980392157);
#1175=COLOUR_RGB('Nylon 12 (with Formlabs Fuse 1 3D Printer)',0.247058823529412,
0.247058823529412,0.247058823529412);
ENDSEC;
END-ISO-10303-21;
