ISO-10303-21;
HEADER;
/* Generated by software containing ST-Developer
 * from STEP Tools, Inc. (www.steptools.com) 
 */

FILE_DESCRIPTION(
/* description */ (''),
/* implementation_level */ '2;1');

FILE_NAME(
/* name */ 'DGX Front Shroud.step',
/* time_stamp */ '2026-08-26T01:39:52-07:00',
/* author */ (''),
/* organization */ (''),
/* preprocessor_version */ 'ST-DEVELOPER v20.1',
/* originating_system */ 'Autodesk Translation Framework v15.8.0.0',
/* authorisation */ '');

FILE_SCHEMA (('AUTOMOTIVE_DESIGN { 1 0 10303 214 3 1 1 }'));
ENDSEC;

DATA;
#10=MECHANICAL_DESIGN_GEOMETRIC_PRESENTATION_REPRESENTATION('',(#13),#1146);
#11=SHAPE_REPRESENTATION_RELATIONSHIP('SRR','None',#1153,#12);
#12=ADVANCED_BREP_SHAPE_REPRESENTATION('',(#14),#1145);
#13=STYLED_ITEM('',(#1163),#14);
#14=MANIFOLD_SOLID_BREP('DGX Front Shroud',#698);
#15=CYLINDRICAL_SURFACE('',#729,3.);
#16=CYLINDRICAL_SURFACE('',#734,3.);
#17=CYLINDRICAL_SURFACE('',#735,3.);
#18=CYLINDRICAL_SURFACE('',#736,3.);
#19=CYLINDRICAL_SURFACE('',#737,3.);
#20=CYLINDRICAL_SURFACE('',#740,10.);
#21=SPHERICAL_SURFACE('',#725,3.00000000000001);
#22=SPHERICAL_SURFACE('',#730,3.00000000000001);
#23=CIRCLE('',#717,3.);
#24=CIRCLE('',#718,3.);
#25=CIRCLE('',#723,3.);
#26=CIRCLE('',#724,3.);
#27=CIRCLE('',#726,3.);
#28=CIRCLE('',#727,3.00000000000001);
#29=CIRCLE('',#728,3.);
#30=CIRCLE('',#731,3.00000000000001);
#31=CIRCLE('',#732,3.00000000000001);
#32=CIRCLE('',#733,3.);
#33=CIRCLE('',#741,10.);
#34=CIRCLE('',#742,10.);
#35=FACE_OUTER_BOUND('',#72,.T.);
#36=FACE_OUTER_BOUND('',#73,.T.);
#37=FACE_OUTER_BOUND('',#74,.T.);
#38=FACE_OUTER_BOUND('',#75,.T.);
#39=FACE_OUTER_BOUND('',#76,.T.);
#40=FACE_OUTER_BOUND('',#77,.T.);
#41=FACE_OUTER_BOUND('',#78,.T.);
#42=FACE_OUTER_BOUND('',#79,.T.);
#43=FACE_OUTER_BOUND('',#80,.T.);
#44=FACE_OUTER_BOUND('',#81,.T.);
#45=FACE_OUTER_BOUND('',#82,.T.);
#46=FACE_OUTER_BOUND('',#83,.T.);
#47=FACE_OUTER_BOUND('',#84,.T.);
#48=FACE_OUTER_BOUND('',#85,.T.);
#49=FACE_OUTER_BOUND('',#86,.T.);
#50=FACE_OUTER_BOUND('',#87,.T.);
#51=FACE_OUTER_BOUND('',#88,.T.);
#52=FACE_OUTER_BOUND('',#89,.T.);
#53=FACE_OUTER_BOUND('',#90,.T.);
#54=FACE_OUTER_BOUND('',#91,.T.);
#55=FACE_OUTER_BOUND('',#92,.T.);
#56=FACE_OUTER_BOUND('',#93,.T.);
#57=FACE_OUTER_BOUND('',#94,.T.);
#58=FACE_OUTER_BOUND('',#95,.T.);
#59=FACE_OUTER_BOUND('',#96,.T.);
#60=FACE_OUTER_BOUND('',#97,.T.);
#61=FACE_OUTER_BOUND('',#98,.T.);
#62=FACE_OUTER_BOUND('',#99,.T.);
#63=FACE_OUTER_BOUND('',#100,.T.);
#64=FACE_OUTER_BOUND('',#101,.T.);
#65=FACE_OUTER_BOUND('',#102,.T.);
#66=FACE_OUTER_BOUND('',#103,.T.);
#67=FACE_OUTER_BOUND('',#104,.T.);
#68=FACE_OUTER_BOUND('',#105,.T.);
#69=FACE_OUTER_BOUND('',#106,.T.);
#70=FACE_OUTER_BOUND('',#107,.T.);
#71=FACE_OUTER_BOUND('',#108,.T.);
#72=EDGE_LOOP('',(#438,#439,#440,#441));
#73=EDGE_LOOP('',(#442,#443,#444,#445));
#74=EDGE_LOOP('',(#446,#447,#448,#449));
#75=EDGE_LOOP('',(#450,#451,#452,#453));
#76=EDGE_LOOP('',(#454,#455,#456,#457,#458,#459,#460,#461,#462,#463,#464,
#465,#466,#467,#468,#469,#470,#471,#472,#473,#474,#475,#476,#477,#478,#479,
#480,#481));
#77=EDGE_LOOP('',(#482,#483,#484,#485));
#78=EDGE_LOOP('',(#486,#487,#488,#489));
#79=EDGE_LOOP('',(#490,#491,#492,#493));
#80=EDGE_LOOP('',(#494,#495,#496,#497,#498,#499,#500,#501,#502,#503));
#81=EDGE_LOOP('',(#504,#505,#506));
#82=EDGE_LOOP('',(#507,#508,#509,#510));
#83=EDGE_LOOP('',(#511,#512,#513));
#84=EDGE_LOOP('',(#514,#515,#516,#517));
#85=EDGE_LOOP('',(#518,#519,#520,#521));
#86=EDGE_LOOP('',(#522,#523,#524,#525));
#87=EDGE_LOOP('',(#526,#527,#528,#529));
#88=EDGE_LOOP('',(#530,#531,#532,#533,#534,#535,#536,#537));
#89=EDGE_LOOP('',(#538,#539,#540,#541));
#90=EDGE_LOOP('',(#542,#543,#544,#545));
#91=EDGE_LOOP('',(#546,#547,#548,#549,#550));
#92=EDGE_LOOP('',(#551,#552,#553,#554,#555,#556,#557,#558));
#93=EDGE_LOOP('',(#559,#560,#561,#562));
#94=EDGE_LOOP('',(#563,#564,#565,#566));
#95=EDGE_LOOP('',(#567,#568,#569,#570));
#96=EDGE_LOOP('',(#571,#572,#573,#574));
#97=EDGE_LOOP('',(#575,#576,#577,#578));
#98=EDGE_LOOP('',(#579,#580,#581,#582));
#99=EDGE_LOOP('',(#583,#584,#585,#586));
#100=EDGE_LOOP('',(#587,#588,#589,#590));
#101=EDGE_LOOP('',(#591,#592,#593,#594));
#102=EDGE_LOOP('',(#595,#596,#597,#598));
#103=EDGE_LOOP('',(#599,#600,#601,#602,#603));
#104=EDGE_LOOP('',(#604,#605,#606,#607));
#105=EDGE_LOOP('',(#608,#609,#610,#611));
#106=EDGE_LOOP('',(#612,#613,#614,#615));
#107=EDGE_LOOP('',(#616,#617,#618,#619,#620,#621,#622,#623));
#108=EDGE_LOOP('',(#624,#625,#626,#627,#628,#629,#630,#631));
#109=LINE('',#950,#194);
#110=LINE('',#952,#195);
#111=LINE('',#954,#196);
#112=LINE('',#955,#197);
#113=LINE('',#958,#198);
#114=LINE('',#960,#199);
#115=LINE('',#961,#200);
#116=LINE('',#964,#201);
#117=LINE('',#965,#202);
#118=LINE('',#968,#203);
#119=LINE('',#969,#204);
#120=LINE('',#972,#205);
#121=LINE('',#976,#206);
#122=LINE('',#978,#207);
#123=LINE('',#980,#208);
#124=LINE('',#982,#209);
#125=LINE('',#984,#210);
#126=LINE('',#986,#211);
#127=LINE('',#988,#212);
#128=LINE('',#990,#213);
#129=LINE('',#992,#214);
#130=LINE('',#994,#215);
#131=LINE('',#996,#216);
#132=LINE('',#998,#217);
#133=LINE('',#1000,#218);
#134=LINE('',#1002,#219);
#135=LINE('',#1004,#220);
#136=LINE('',#1006,#221);
#137=LINE('',#1008,#222);
#138=LINE('',#1010,#223);
#139=LINE('',#1012,#224);
#140=LINE('',#1014,#225);
#141=LINE('',#1016,#226);
#142=LINE('',#1019,#227);
#143=LINE('',#1022,#228);
#144=LINE('',#1024,#229);
#145=LINE('',#1025,#230);
#146=LINE('',#1028,#231);
#147=LINE('',#1030,#232);
#148=LINE('',#1031,#233);
#149=LINE('',#1033,#234);
#150=LINE('',#1034,#235);
#151=LINE('',#1037,#236);
#152=LINE('',#1041,#237);
#153=LINE('',#1044,#238);
#154=LINE('',#1053,#239);
#155=LINE('',#1054,#240);
#156=LINE('',#1063,#241);
#157=LINE('',#1064,#242);
#158=LINE('',#1066,#243);
#159=LINE('',#1067,#244);
#160=LINE('',#1069,#245);
#161=LINE('',#1070,#246);
#162=LINE('',#1072,#247);
#163=LINE('',#1073,#248);
#164=LINE('',#1076,#249);
#165=LINE('',#1078,#250);
#166=LINE('',#1079,#251);
#167=LINE('',#1086,#252);
#168=LINE('',#1089,#253);
#169=LINE('',#1092,#254);
#170=LINE('',#1093,#255);
#171=LINE('',#1094,#256);
#172=LINE('',#1097,#257);
#173=LINE('',#1098,#258);
#174=LINE('',#1100,#259);
#175=LINE('',#1102,#260);
#176=LINE('',#1103,#261);
#177=LINE('',#1106,#262);
#178=LINE('',#1107,#263);
#179=LINE('',#1110,#264);
#180=LINE('',#1112,#265);
#181=LINE('',#1113,#266);
#182=LINE('',#1116,#267);
#183=LINE('',#1117,#268);
#184=LINE('',#1120,#269);
#185=LINE('',#1121,#270);
#186=LINE('',#1124,#271);
#187=LINE('',#1125,#272);
#188=LINE('',#1127,#273);
#189=LINE('',#1130,#274);
#190=LINE('',#1132,#275);
#191=LINE('',#1134,#276);
#192=LINE('',#1136,#277);
#193=LINE('',#1139,#278);
#194=VECTOR('',#765,10.);
#195=VECTOR('',#766,10.);
#196=VECTOR('',#767,10.);
#197=VECTOR('',#768,10.);
#198=VECTOR('',#771,10.);
#199=VECTOR('',#772,10.);
#200=VECTOR('',#773,10.);
#201=VECTOR('',#776,10.);
#202=VECTOR('',#777,10.);
#203=VECTOR('',#780,10.);
#204=VECTOR('',#781,10.);
#205=VECTOR('',#784,10.);
#206=VECTOR('',#787,10.);
#207=VECTOR('',#788,10.);
#208=VECTOR('',#789,10.);
#209=VECTOR('',#790,10.);
#210=VECTOR('',#791,10.);
#211=VECTOR('',#792,10.);
#212=VECTOR('',#793,10.);
#213=VECTOR('',#794,10.);
#214=VECTOR('',#795,10.);
#215=VECTOR('',#796,10.);
#216=VECTOR('',#797,10.);
#217=VECTOR('',#798,10.);
#218=VECTOR('',#799,10.);
#219=VECTOR('',#800,10.);
#220=VECTOR('',#801,10.);
#221=VECTOR('',#802,10.);
#222=VECTOR('',#803,10.);
#223=VECTOR('',#804,10.);
#224=VECTOR('',#805,10.);
#225=VECTOR('',#806,10.);
#226=VECTOR('',#807,10.);
#227=VECTOR('',#810,10.);
#228=VECTOR('',#813,10.);
#229=VECTOR('',#814,10.);
#230=VECTOR('',#815,10.);
#231=VECTOR('',#818,10.);
#232=VECTOR('',#819,10.);
#233=VECTOR('',#820,10.);
#234=VECTOR('',#823,10.);
#235=VECTOR('',#824,10.);
#236=VECTOR('',#827,10.);
#237=VECTOR('',#830,10.);
#238=VECTOR('',#833,10.);
#239=VECTOR('',#844,10.);
#240=VECTOR('',#845,10.);
#241=VECTOR('',#856,10.);
#242=VECTOR('',#857,10.);
#243=VECTOR('',#860,10.);
#244=VECTOR('',#861,10.);
#245=VECTOR('',#864,10.);
#246=VECTOR('',#865,10.);
#247=VECTOR('',#868,10.);
#248=VECTOR('',#869,10.);
#249=VECTOR('',#872,10.);
#250=VECTOR('',#873,10.);
#251=VECTOR('',#874,10.);
#252=VECTOR('',#881,10.);
#253=VECTOR('',#884,10.);
#254=VECTOR('',#887,10.);
#255=VECTOR('',#888,10.);
#256=VECTOR('',#889,10.);
#257=VECTOR('',#892,10.);
#258=VECTOR('',#893,10.);
#259=VECTOR('',#894,10.);
#260=VECTOR('',#895,10.);
#261=VECTOR('',#896,10.);
#262=VECTOR('',#899,10.);
#263=VECTOR('',#900,10.);
#264=VECTOR('',#903,10.);
#265=VECTOR('',#904,10.);
#266=VECTOR('',#905,10.);
#267=VECTOR('',#908,10.);
#268=VECTOR('',#909,10.);
#269=VECTOR('',#912,10.);
#270=VECTOR('',#913,10.);
#271=VECTOR('',#916,10.);
#272=VECTOR('',#917,10.);
#273=VECTOR('',#920,10.);
#274=VECTOR('',#925,10.);
#275=VECTOR('',#928,10.);
#276=VECTOR('',#931,10.);
#277=VECTOR('',#934,10.);
#278=VECTOR('',#939,10.);
#279=VERTEX_POINT('',#948);
#280=VERTEX_POINT('',#949);
#281=VERTEX_POINT('',#951);
#282=VERTEX_POINT('',#953);
#283=VERTEX_POINT('',#957);
#284=VERTEX_POINT('',#959);
#285=VERTEX_POINT('',#963);
#286=VERTEX_POINT('',#967);
#287=VERTEX_POINT('',#971);
#288=VERTEX_POINT('',#973);
#289=VERTEX_POINT('',#975);
#290=VERTEX_POINT('',#977);
#291=VERTEX_POINT('',#979);
#292=VERTEX_POINT('',#981);
#293=VERTEX_POINT('',#983);
#294=VERTEX_POINT('',#985);
#295=VERTEX_POINT('',#987);
#296=VERTEX_POINT('',#989);
#297=VERTEX_POINT('',#991);
#298=VERTEX_POINT('',#993);
#299=VERTEX_POINT('',#995);
#300=VERTEX_POINT('',#997);
#301=VERTEX_POINT('',#999);
#302=VERTEX_POINT('',#1001);
#303=VERTEX_POINT('',#1003);
#304=VERTEX_POINT('',#1005);
#305=VERTEX_POINT('',#1007);
#306=VERTEX_POINT('',#1009);
#307=VERTEX_POINT('',#1011);
#308=VERTEX_POINT('',#1013);
#309=VERTEX_POINT('',#1015);
#310=VERTEX_POINT('',#1017);
#311=VERTEX_POINT('',#1021);
#312=VERTEX_POINT('',#1023);
#313=VERTEX_POINT('',#1027);
#314=VERTEX_POINT('',#1029);
#315=VERTEX_POINT('',#1036);
#316=VERTEX_POINT('',#1038);
#317=VERTEX_POINT('',#1040);
#318=VERTEX_POINT('',#1042);
#319=VERTEX_POINT('',#1046);
#320=VERTEX_POINT('',#1047);
#321=VERTEX_POINT('',#1049);
#322=VERTEX_POINT('',#1056);
#323=VERTEX_POINT('',#1057);
#324=VERTEX_POINT('',#1059);
#325=VERTEX_POINT('',#1075);
#326=VERTEX_POINT('',#1077);
#327=VERTEX_POINT('',#1082);
#328=VERTEX_POINT('',#1083);
#329=VERTEX_POINT('',#1085);
#330=VERTEX_POINT('',#1087);
#331=VERTEX_POINT('',#1091);
#332=VERTEX_POINT('',#1096);
#333=VERTEX_POINT('',#1099);
#334=VERTEX_POINT('',#1101);
#335=VERTEX_POINT('',#1105);
#336=VERTEX_POINT('',#1109);
#337=VERTEX_POINT('',#1111);
#338=VERTEX_POINT('',#1115);
#339=VERTEX_POINT('',#1119);
#340=VERTEX_POINT('',#1123);
#341=EDGE_CURVE('',#279,#280,#109,.T.);
#342=EDGE_CURVE('',#281,#279,#110,.T.);
#343=EDGE_CURVE('',#282,#281,#111,.T.);
#344=EDGE_CURVE('',#280,#282,#112,.T.);
#345=EDGE_CURVE('',#283,#282,#113,.T.);
#346=EDGE_CURVE('',#284,#283,#114,.T.);
#347=EDGE_CURVE('',#280,#284,#115,.T.);
#348=EDGE_CURVE('',#281,#285,#116,.T.);
#349=EDGE_CURVE('',#285,#283,#117,.T.);
#350=EDGE_CURVE('',#286,#279,#118,.T.);
#351=EDGE_CURVE('',#286,#285,#119,.T.);
#352=EDGE_CURVE('',#287,#284,#120,.T.);
#353=EDGE_CURVE('',#288,#287,#23,.T.);
#354=EDGE_CURVE('',#289,#288,#121,.T.);
#355=EDGE_CURVE('',#289,#290,#122,.T.);
#356=EDGE_CURVE('',#290,#291,#123,.T.);
#357=EDGE_CURVE('',#291,#292,#124,.T.);
#358=EDGE_CURVE('',#293,#292,#125,.T.);
#359=EDGE_CURVE('',#293,#294,#126,.T.);
#360=EDGE_CURVE('',#295,#294,#127,.T.);
#361=EDGE_CURVE('',#296,#295,#128,.T.);
#362=EDGE_CURVE('',#297,#296,#129,.T.);
#363=EDGE_CURVE('',#298,#297,#130,.T.);
#364=EDGE_CURVE('',#299,#298,#131,.T.);
#365=EDGE_CURVE('',#300,#299,#132,.T.);
#366=EDGE_CURVE('',#301,#300,#133,.T.);
#367=EDGE_CURVE('',#302,#301,#134,.T.);
#368=EDGE_CURVE('',#303,#302,#135,.T.);
#369=EDGE_CURVE('',#303,#304,#136,.T.);
#370=EDGE_CURVE('',#305,#304,#137,.T.);
#371=EDGE_CURVE('',#305,#306,#138,.T.);
#372=EDGE_CURVE('',#306,#307,#139,.T.);
#373=EDGE_CURVE('',#307,#308,#140,.T.);
#374=EDGE_CURVE('',#309,#308,#141,.T.);
#375=EDGE_CURVE('',#310,#309,#24,.T.);
#376=EDGE_CURVE('',#286,#310,#142,.T.);
#377=EDGE_CURVE('',#311,#303,#143,.T.);
#378=EDGE_CURVE('',#302,#312,#144,.T.);
#379=EDGE_CURVE('',#312,#311,#145,.T.);
#380=EDGE_CURVE('',#313,#295,#146,.T.);
#381=EDGE_CURVE('',#294,#314,#147,.T.);
#382=EDGE_CURVE('',#314,#313,#148,.T.);
#383=EDGE_CURVE('',#312,#313,#149,.T.);
#384=EDGE_CURVE('',#314,#311,#150,.T.);
#385=EDGE_CURVE('',#293,#315,#151,.T.);
#386=EDGE_CURVE('',#316,#315,#25,.T.);
#387=EDGE_CURVE('',#317,#316,#152,.T.);
#388=EDGE_CURVE('',#318,#317,#26,.T.);
#389=EDGE_CURVE('',#304,#318,#153,.T.);
#390=EDGE_CURVE('',#319,#320,#27,.F.);
#391=EDGE_CURVE('',#321,#319,#28,.F.);
#392=EDGE_CURVE('',#320,#321,#29,.F.);
#393=EDGE_CURVE('',#287,#321,#154,.T.);
#394=EDGE_CURVE('',#319,#288,#155,.T.);
#395=EDGE_CURVE('',#322,#323,#30,.F.);
#396=EDGE_CURVE('',#324,#322,#31,.F.);
#397=EDGE_CURVE('',#323,#324,#32,.F.);
#398=EDGE_CURVE('',#309,#324,#156,.T.);
#399=EDGE_CURVE('',#322,#310,#157,.T.);
#400=EDGE_CURVE('',#317,#323,#158,.T.);
#401=EDGE_CURVE('',#324,#318,#159,.T.);
#402=EDGE_CURVE('',#323,#320,#160,.T.);
#403=EDGE_CURVE('',#321,#322,#161,.T.);
#404=EDGE_CURVE('',#315,#319,#162,.T.);
#405=EDGE_CURVE('',#320,#316,#163,.T.);
#406=EDGE_CURVE('',#292,#325,#164,.T.);
#407=EDGE_CURVE('',#326,#325,#165,.T.);
#408=EDGE_CURVE('',#326,#289,#166,.T.);
#409=EDGE_CURVE('',#327,#328,#33,.T.);
#410=EDGE_CURVE('',#327,#329,#167,.T.);
#411=EDGE_CURVE('',#330,#329,#34,.T.);
#412=EDGE_CURVE('',#330,#328,#168,.T.);
#413=EDGE_CURVE('',#331,#329,#169,.T.);
#414=EDGE_CURVE('',#300,#331,#170,.T.);
#415=EDGE_CURVE('',#299,#330,#171,.T.);
#416=EDGE_CURVE('',#312,#332,#172,.T.);
#417=EDGE_CURVE('',#332,#331,#173,.T.);
#418=EDGE_CURVE('',#327,#333,#174,.T.);
#419=EDGE_CURVE('',#333,#334,#175,.T.);
#420=EDGE_CURVE('',#334,#313,#176,.T.);
#421=EDGE_CURVE('',#335,#291,#177,.T.);
#422=EDGE_CURVE('',#325,#335,#178,.T.);
#423=EDGE_CURVE('',#336,#305,#179,.T.);
#424=EDGE_CURVE('',#337,#336,#180,.T.);
#425=EDGE_CURVE('',#306,#337,#181,.T.);
#426=EDGE_CURVE('',#338,#337,#182,.T.);
#427=EDGE_CURVE('',#338,#307,#183,.T.);
#428=EDGE_CURVE('',#339,#326,#184,.T.);
#429=EDGE_CURVE('',#290,#339,#185,.T.);
#430=EDGE_CURVE('',#340,#338,#186,.T.);
#431=EDGE_CURVE('',#308,#340,#187,.T.);
#432=EDGE_CURVE('',#335,#339,#188,.T.);
#433=EDGE_CURVE('',#336,#340,#189,.T.);
#434=EDGE_CURVE('',#296,#334,#190,.T.);
#435=EDGE_CURVE('',#297,#333,#191,.T.);
#436=EDGE_CURVE('',#298,#328,#192,.T.);
#437=EDGE_CURVE('',#301,#332,#193,.T.);
#438=ORIENTED_EDGE('',*,*,#341,.F.);
#439=ORIENTED_EDGE('',*,*,#342,.F.);
#440=ORIENTED_EDGE('',*,*,#343,.F.);
#441=ORIENTED_EDGE('',*,*,#344,.F.);
#442=ORIENTED_EDGE('',*,*,#344,.T.);
#443=ORIENTED_EDGE('',*,*,#345,.F.);
#444=ORIENTED_EDGE('',*,*,#346,.F.);
#445=ORIENTED_EDGE('',*,*,#347,.F.);
#446=ORIENTED_EDGE('',*,*,#343,.T.);
#447=ORIENTED_EDGE('',*,*,#348,.T.);
#448=ORIENTED_EDGE('',*,*,#349,.T.);
#449=ORIENTED_EDGE('',*,*,#345,.T.);
#450=ORIENTED_EDGE('',*,*,#342,.T.);
#451=ORIENTED_EDGE('',*,*,#350,.F.);
#452=ORIENTED_EDGE('',*,*,#351,.T.);
#453=ORIENTED_EDGE('',*,*,#348,.F.);
#454=ORIENTED_EDGE('',*,*,#350,.T.);
#455=ORIENTED_EDGE('',*,*,#341,.T.);
#456=ORIENTED_EDGE('',*,*,#347,.T.);
#457=ORIENTED_EDGE('',*,*,#352,.F.);
#458=ORIENTED_EDGE('',*,*,#353,.F.);
#459=ORIENTED_EDGE('',*,*,#354,.F.);
#460=ORIENTED_EDGE('',*,*,#355,.T.);
#461=ORIENTED_EDGE('',*,*,#356,.T.);
#462=ORIENTED_EDGE('',*,*,#357,.T.);
#463=ORIENTED_EDGE('',*,*,#358,.F.);
#464=ORIENTED_EDGE('',*,*,#359,.T.);
#465=ORIENTED_EDGE('',*,*,#360,.F.);
#466=ORIENTED_EDGE('',*,*,#361,.F.);
#467=ORIENTED_EDGE('',*,*,#362,.F.);
#468=ORIENTED_EDGE('',*,*,#363,.F.);
#469=ORIENTED_EDGE('',*,*,#364,.F.);
#470=ORIENTED_EDGE('',*,*,#365,.F.);
#471=ORIENTED_EDGE('',*,*,#366,.F.);
#472=ORIENTED_EDGE('',*,*,#367,.F.);
#473=ORIENTED_EDGE('',*,*,#368,.F.);
#474=ORIENTED_EDGE('',*,*,#369,.T.);
#475=ORIENTED_EDGE('',*,*,#370,.F.);
#476=ORIENTED_EDGE('',*,*,#371,.T.);
#477=ORIENTED_EDGE('',*,*,#372,.T.);
#478=ORIENTED_EDGE('',*,*,#373,.T.);
#479=ORIENTED_EDGE('',*,*,#374,.F.);
#480=ORIENTED_EDGE('',*,*,#375,.F.);
#481=ORIENTED_EDGE('',*,*,#376,.F.);
#482=ORIENTED_EDGE('',*,*,#377,.T.);
#483=ORIENTED_EDGE('',*,*,#368,.T.);
#484=ORIENTED_EDGE('',*,*,#378,.T.);
#485=ORIENTED_EDGE('',*,*,#379,.T.);
#486=ORIENTED_EDGE('',*,*,#380,.T.);
#487=ORIENTED_EDGE('',*,*,#360,.T.);
#488=ORIENTED_EDGE('',*,*,#381,.T.);
#489=ORIENTED_EDGE('',*,*,#382,.T.);
#490=ORIENTED_EDGE('',*,*,#383,.T.);
#491=ORIENTED_EDGE('',*,*,#382,.F.);
#492=ORIENTED_EDGE('',*,*,#384,.T.);
#493=ORIENTED_EDGE('',*,*,#379,.F.);
#494=ORIENTED_EDGE('',*,*,#377,.F.);
#495=ORIENTED_EDGE('',*,*,#384,.F.);
#496=ORIENTED_EDGE('',*,*,#381,.F.);
#497=ORIENTED_EDGE('',*,*,#359,.F.);
#498=ORIENTED_EDGE('',*,*,#385,.T.);
#499=ORIENTED_EDGE('',*,*,#386,.F.);
#500=ORIENTED_EDGE('',*,*,#387,.F.);
#501=ORIENTED_EDGE('',*,*,#388,.F.);
#502=ORIENTED_EDGE('',*,*,#389,.F.);
#503=ORIENTED_EDGE('',*,*,#369,.F.);
#504=ORIENTED_EDGE('',*,*,#390,.F.);
#505=ORIENTED_EDGE('',*,*,#391,.F.);
#506=ORIENTED_EDGE('',*,*,#392,.F.);
#507=ORIENTED_EDGE('',*,*,#353,.T.);
#508=ORIENTED_EDGE('',*,*,#393,.T.);
#509=ORIENTED_EDGE('',*,*,#391,.T.);
#510=ORIENTED_EDGE('',*,*,#394,.T.);
#511=ORIENTED_EDGE('',*,*,#395,.F.);
#512=ORIENTED_EDGE('',*,*,#396,.F.);
#513=ORIENTED_EDGE('',*,*,#397,.F.);
#514=ORIENTED_EDGE('',*,*,#375,.T.);
#515=ORIENTED_EDGE('',*,*,#398,.T.);
#516=ORIENTED_EDGE('',*,*,#396,.T.);
#517=ORIENTED_EDGE('',*,*,#399,.T.);
#518=ORIENTED_EDGE('',*,*,#388,.T.);
#519=ORIENTED_EDGE('',*,*,#400,.T.);
#520=ORIENTED_EDGE('',*,*,#397,.T.);
#521=ORIENTED_EDGE('',*,*,#401,.T.);
#522=ORIENTED_EDGE('',*,*,#395,.T.);
#523=ORIENTED_EDGE('',*,*,#402,.T.);
#524=ORIENTED_EDGE('',*,*,#392,.T.);
#525=ORIENTED_EDGE('',*,*,#403,.T.);
#526=ORIENTED_EDGE('',*,*,#386,.T.);
#527=ORIENTED_EDGE('',*,*,#404,.T.);
#528=ORIENTED_EDGE('',*,*,#390,.T.);
#529=ORIENTED_EDGE('',*,*,#405,.T.);
#530=ORIENTED_EDGE('',*,*,#394,.F.);
#531=ORIENTED_EDGE('',*,*,#404,.F.);
#532=ORIENTED_EDGE('',*,*,#385,.F.);
#533=ORIENTED_EDGE('',*,*,#358,.T.);
#534=ORIENTED_EDGE('',*,*,#406,.T.);
#535=ORIENTED_EDGE('',*,*,#407,.F.);
#536=ORIENTED_EDGE('',*,*,#408,.T.);
#537=ORIENTED_EDGE('',*,*,#354,.T.);
#538=ORIENTED_EDGE('',*,*,#405,.F.);
#539=ORIENTED_EDGE('',*,*,#402,.F.);
#540=ORIENTED_EDGE('',*,*,#400,.F.);
#541=ORIENTED_EDGE('',*,*,#387,.T.);
#542=ORIENTED_EDGE('',*,*,#409,.F.);
#543=ORIENTED_EDGE('',*,*,#410,.T.);
#544=ORIENTED_EDGE('',*,*,#411,.F.);
#545=ORIENTED_EDGE('',*,*,#412,.T.);
#546=ORIENTED_EDGE('',*,*,#411,.T.);
#547=ORIENTED_EDGE('',*,*,#413,.F.);
#548=ORIENTED_EDGE('',*,*,#414,.F.);
#549=ORIENTED_EDGE('',*,*,#365,.T.);
#550=ORIENTED_EDGE('',*,*,#415,.T.);
#551=ORIENTED_EDGE('',*,*,#383,.F.);
#552=ORIENTED_EDGE('',*,*,#416,.T.);
#553=ORIENTED_EDGE('',*,*,#417,.T.);
#554=ORIENTED_EDGE('',*,*,#413,.T.);
#555=ORIENTED_EDGE('',*,*,#410,.F.);
#556=ORIENTED_EDGE('',*,*,#418,.T.);
#557=ORIENTED_EDGE('',*,*,#419,.T.);
#558=ORIENTED_EDGE('',*,*,#420,.T.);
#559=ORIENTED_EDGE('',*,*,#357,.F.);
#560=ORIENTED_EDGE('',*,*,#421,.F.);
#561=ORIENTED_EDGE('',*,*,#422,.F.);
#562=ORIENTED_EDGE('',*,*,#406,.F.);
#563=ORIENTED_EDGE('',*,*,#371,.F.);
#564=ORIENTED_EDGE('',*,*,#423,.F.);
#565=ORIENTED_EDGE('',*,*,#424,.F.);
#566=ORIENTED_EDGE('',*,*,#425,.F.);
#567=ORIENTED_EDGE('',*,*,#425,.T.);
#568=ORIENTED_EDGE('',*,*,#426,.F.);
#569=ORIENTED_EDGE('',*,*,#427,.T.);
#570=ORIENTED_EDGE('',*,*,#372,.F.);
#571=ORIENTED_EDGE('',*,*,#355,.F.);
#572=ORIENTED_EDGE('',*,*,#408,.F.);
#573=ORIENTED_EDGE('',*,*,#428,.F.);
#574=ORIENTED_EDGE('',*,*,#429,.F.);
#575=ORIENTED_EDGE('',*,*,#373,.F.);
#576=ORIENTED_EDGE('',*,*,#427,.F.);
#577=ORIENTED_EDGE('',*,*,#430,.F.);
#578=ORIENTED_EDGE('',*,*,#431,.F.);
#579=ORIENTED_EDGE('',*,*,#421,.T.);
#580=ORIENTED_EDGE('',*,*,#356,.F.);
#581=ORIENTED_EDGE('',*,*,#429,.T.);
#582=ORIENTED_EDGE('',*,*,#432,.F.);
#583=ORIENTED_EDGE('',*,*,#422,.T.);
#584=ORIENTED_EDGE('',*,*,#432,.T.);
#585=ORIENTED_EDGE('',*,*,#428,.T.);
#586=ORIENTED_EDGE('',*,*,#407,.T.);
#587=ORIENTED_EDGE('',*,*,#424,.T.);
#588=ORIENTED_EDGE('',*,*,#433,.T.);
#589=ORIENTED_EDGE('',*,*,#430,.T.);
#590=ORIENTED_EDGE('',*,*,#426,.T.);
#591=ORIENTED_EDGE('',*,*,#380,.F.);
#592=ORIENTED_EDGE('',*,*,#420,.F.);
#593=ORIENTED_EDGE('',*,*,#434,.F.);
#594=ORIENTED_EDGE('',*,*,#361,.T.);
#595=ORIENTED_EDGE('',*,*,#362,.T.);
#596=ORIENTED_EDGE('',*,*,#434,.T.);
#597=ORIENTED_EDGE('',*,*,#419,.F.);
#598=ORIENTED_EDGE('',*,*,#435,.F.);
#599=ORIENTED_EDGE('',*,*,#409,.T.);
#600=ORIENTED_EDGE('',*,*,#436,.F.);
#601=ORIENTED_EDGE('',*,*,#363,.T.);
#602=ORIENTED_EDGE('',*,*,#435,.T.);
#603=ORIENTED_EDGE('',*,*,#418,.F.);
#604=ORIENTED_EDGE('',*,*,#412,.F.);
#605=ORIENTED_EDGE('',*,*,#415,.F.);
#606=ORIENTED_EDGE('',*,*,#364,.T.);
#607=ORIENTED_EDGE('',*,*,#436,.T.);
#608=ORIENTED_EDGE('',*,*,#366,.T.);
#609=ORIENTED_EDGE('',*,*,#414,.T.);
#610=ORIENTED_EDGE('',*,*,#417,.F.);
#611=ORIENTED_EDGE('',*,*,#437,.F.);
#612=ORIENTED_EDGE('',*,*,#378,.F.);
#613=ORIENTED_EDGE('',*,*,#367,.T.);
#614=ORIENTED_EDGE('',*,*,#437,.T.);
#615=ORIENTED_EDGE('',*,*,#416,.F.);
#616=ORIENTED_EDGE('',*,*,#398,.F.);
#617=ORIENTED_EDGE('',*,*,#374,.T.);
#618=ORIENTED_EDGE('',*,*,#431,.T.);
#619=ORIENTED_EDGE('',*,*,#433,.F.);
#620=ORIENTED_EDGE('',*,*,#423,.T.);
#621=ORIENTED_EDGE('',*,*,#370,.T.);
#622=ORIENTED_EDGE('',*,*,#389,.T.);
#623=ORIENTED_EDGE('',*,*,#401,.F.);
#624=ORIENTED_EDGE('',*,*,#393,.F.);
#625=ORIENTED_EDGE('',*,*,#352,.T.);
#626=ORIENTED_EDGE('',*,*,#346,.T.);
#627=ORIENTED_EDGE('',*,*,#349,.F.);
#628=ORIENTED_EDGE('',*,*,#351,.F.);
#629=ORIENTED_EDGE('',*,*,#376,.T.);
#630=ORIENTED_EDGE('',*,*,#399,.F.);
#631=ORIENTED_EDGE('',*,*,#403,.F.);
#632=PLANE('',#712);
#633=PLANE('',#713);
#634=PLANE('',#714);
#635=PLANE('',#715);
#636=PLANE('',#716);
#637=PLANE('',#719);
#638=PLANE('',#720);
#639=PLANE('',#721);
#640=PLANE('',#722);
#641=PLANE('',#738);
#642=PLANE('',#739);
#643=PLANE('',#743);
#644=PLANE('',#744);
#645=PLANE('',#745);
#646=PLANE('',#746);
#647=PLANE('',#747);
#648=PLANE('',#748);
#649=PLANE('',#749);
#650=PLANE('',#750);
#651=PLANE('',#751);
#652=PLANE('',#752);
#653=PLANE('',#753);
#654=PLANE('',#754);
#655=PLANE('',#755);
#656=PLANE('',#756);
#657=PLANE('',#757);
#658=PLANE('',#758);
#659=PLANE('',#759);
#660=PLANE('',#760);
#661=ADVANCED_FACE('',(#35),#632,.F.);
#662=ADVANCED_FACE('',(#36),#633,.T.);
#663=ADVANCED_FACE('',(#37),#634,.T.);
#664=ADVANCED_FACE('',(#38),#635,.T.);
#665=ADVANCED_FACE('',(#39),#636,.F.);
#666=ADVANCED_FACE('',(#40),#637,.T.);
#667=ADVANCED_FACE('',(#41),#638,.T.);
#668=ADVANCED_FACE('',(#42),#639,.T.);
#669=ADVANCED_FACE('',(#43),#640,.T.);
#670=ADVANCED_FACE('',(#44),#21,.T.);
#671=ADVANCED_FACE('',(#45),#15,.T.);
#672=ADVANCED_FACE('',(#46),#22,.T.);
#673=ADVANCED_FACE('',(#47),#16,.T.);
#674=ADVANCED_FACE('',(#48),#17,.T.);
#675=ADVANCED_FACE('',(#49),#18,.T.);
#676=ADVANCED_FACE('',(#50),#19,.T.);
#677=ADVANCED_FACE('',(#51),#641,.T.);
#678=ADVANCED_FACE('',(#52),#642,.T.);
#679=ADVANCED_FACE('',(#53),#20,.F.);
#680=ADVANCED_FACE('',(#54),#643,.T.);
#681=ADVANCED_FACE('',(#55),#644,.F.);
#682=ADVANCED_FACE('',(#56),#645,.F.);
#683=ADVANCED_FACE('',(#57),#646,.F.);
#684=ADVANCED_FACE('',(#58),#647,.T.);
#685=ADVANCED_FACE('',(#59),#648,.F.);
#686=ADVANCED_FACE('',(#60),#649,.F.);
#687=ADVANCED_FACE('',(#61),#650,.T.);
#688=ADVANCED_FACE('',(#62),#651,.T.);
#689=ADVANCED_FACE('',(#63),#652,.T.);
#690=ADVANCED_FACE('',(#64),#653,.T.);
#691=ADVANCED_FACE('',(#65),#654,.T.);
#692=ADVANCED_FACE('',(#66),#655,.T.);
#693=ADVANCED_FACE('',(#67),#656,.T.);
#694=ADVANCED_FACE('',(#68),#657,.T.);
#695=ADVANCED_FACE('',(#69),#658,.T.);
#696=ADVANCED_FACE('',(#70),#659,.T.);
#697=ADVANCED_FACE('',(#71),#660,.T.);
#698=CLOSED_SHELL('',(#661,#662,#663,#664,#665,#666,#667,#668,#669,#670,
#671,#672,#673,#674,#675,#676,#677,#678,#679,#680,#681,#682,#683,#684,#685,
#686,#687,#688,#689,#690,#691,#692,#693,#694,#695,#696,#697));
#699=DERIVED_UNIT_ELEMENT(#701,1.);
#700=DERIVED_UNIT_ELEMENT(#1148,-3.);
#701=(
MASS_UNIT()
NAMED_UNIT(*)
SI_UNIT(.KILO.,.GRAM.)
);
#702=DERIVED_UNIT((#699,#700));
#703=MEASURE_REPRESENTATION_ITEM('density measure',
POSITIVE_RATIO_MEASURE(7850.),#702);
#704=PROPERTY_DEFINITION_REPRESENTATION(#709,#706);
#705=PROPERTY_DEFINITION_REPRESENTATION(#710,#707);
#706=REPRESENTATION('material name',(#708),#1145);
#707=REPRESENTATION('density',(#703),#1145);
#708=DESCRIPTIVE_REPRESENTATION_ITEM('Steel','Steel');
#709=PROPERTY_DEFINITION('material property','material name',#1155);
#710=PROPERTY_DEFINITION('material property','density of part',#1155);
#711=AXIS2_PLACEMENT_3D('',#946,#761,#762);
#712=AXIS2_PLACEMENT_3D('',#947,#763,#764);
#713=AXIS2_PLACEMENT_3D('',#956,#769,#770);
#714=AXIS2_PLACEMENT_3D('',#962,#774,#775);
#715=AXIS2_PLACEMENT_3D('',#966,#778,#779);
#716=AXIS2_PLACEMENT_3D('',#970,#782,#783);
#717=AXIS2_PLACEMENT_3D('',#974,#785,#786);
#718=AXIS2_PLACEMENT_3D('',#1018,#808,#809);
#719=AXIS2_PLACEMENT_3D('',#1020,#811,#812);
#720=AXIS2_PLACEMENT_3D('',#1026,#816,#817);
#721=AXIS2_PLACEMENT_3D('',#1032,#821,#822);
#722=AXIS2_PLACEMENT_3D('',#1035,#825,#826);
#723=AXIS2_PLACEMENT_3D('',#1039,#828,#829);
#724=AXIS2_PLACEMENT_3D('',#1043,#831,#832);
#725=AXIS2_PLACEMENT_3D('',#1045,#834,#835);
#726=AXIS2_PLACEMENT_3D('',#1048,#836,#837);
#727=AXIS2_PLACEMENT_3D('',#1050,#838,#839);
#728=AXIS2_PLACEMENT_3D('',#1051,#840,#841);
#729=AXIS2_PLACEMENT_3D('',#1052,#842,#843);
#730=AXIS2_PLACEMENT_3D('',#1055,#846,#847);
#731=AXIS2_PLACEMENT_3D('',#1058,#848,#849);
#732=AXIS2_PLACEMENT_3D('',#1060,#850,#851);
#733=AXIS2_PLACEMENT_3D('',#1061,#852,#853);
#734=AXIS2_PLACEMENT_3D('',#1062,#854,#855);
#735=AXIS2_PLACEMENT_3D('',#1065,#858,#859);
#736=AXIS2_PLACEMENT_3D('',#1068,#862,#863);
#737=AXIS2_PLACEMENT_3D('',#1071,#866,#867);
#738=AXIS2_PLACEMENT_3D('',#1074,#870,#871);
#739=AXIS2_PLACEMENT_3D('',#1080,#875,#876);
#740=AXIS2_PLACEMENT_3D('',#1081,#877,#878);
#741=AXIS2_PLACEMENT_3D('',#1084,#879,#880);
#742=AXIS2_PLACEMENT_3D('',#1088,#882,#883);
#743=AXIS2_PLACEMENT_3D('',#1090,#885,#886);
#744=AXIS2_PLACEMENT_3D('',#1095,#890,#891);
#745=AXIS2_PLACEMENT_3D('',#1104,#897,#898);
#746=AXIS2_PLACEMENT_3D('',#1108,#901,#902);
#747=AXIS2_PLACEMENT_3D('',#1114,#906,#907);
#748=AXIS2_PLACEMENT_3D('',#1118,#910,#911);
#749=AXIS2_PLACEMENT_3D('',#1122,#914,#915);
#750=AXIS2_PLACEMENT_3D('',#1126,#918,#919);
#751=AXIS2_PLACEMENT_3D('',#1128,#921,#922);
#752=AXIS2_PLACEMENT_3D('',#1129,#923,#924);
#753=AXIS2_PLACEMENT_3D('',#1131,#926,#927);
#754=AXIS2_PLACEMENT_3D('',#1133,#929,#930);
#755=AXIS2_PLACEMENT_3D('',#1135,#932,#933);
#756=AXIS2_PLACEMENT_3D('',#1137,#935,#936);
#757=AXIS2_PLACEMENT_3D('',#1138,#937,#938);
#758=AXIS2_PLACEMENT_3D('',#1140,#940,#941);
#759=AXIS2_PLACEMENT_3D('',#1141,#942,#943);
#760=AXIS2_PLACEMENT_3D('',#1142,#944,#945);
#761=DIRECTION('axis',(0.,0.,1.));
#762=DIRECTION('refdir',(1.,0.,0.));
#763=DIRECTION('center_axis',(0.,-1.,0.));
#764=DIRECTION('ref_axis',(0.,0.,-1.));
#765=DIRECTION('',(-1.,0.,0.));
#766=DIRECTION('',(0.,0.,1.));
#767=DIRECTION('',(1.,0.,0.));
#768=DIRECTION('',(0.,0.,-1.));
#769=DIRECTION('center_axis',(-1.,0.,0.));
#770=DIRECTION('ref_axis',(0.,1.,0.));
#771=DIRECTION('',(0.,1.,0.));
#772=DIRECTION('',(0.,0.,-1.));
#773=DIRECTION('',(0.,-1.,0.));
#774=DIRECTION('center_axis',(0.,0.,-1.));
#775=DIRECTION('ref_axis',(-1.,0.,0.));
#776=DIRECTION('',(0.,-1.,0.));
#777=DIRECTION('',(-1.,0.,0.));
#778=DIRECTION('center_axis',(1.,0.,0.));
#779=DIRECTION('ref_axis',(0.,-1.,0.));
#780=DIRECTION('',(0.,1.,0.));
#781=DIRECTION('',(0.,0.,-1.));
#782=DIRECTION('center_axis',(0.,0.,1.));
#783=DIRECTION('ref_axis',(-1.,0.,0.));
#784=DIRECTION('',(1.,0.,0.));
#785=DIRECTION('center_axis',(0.,0.,1.));
#786=DIRECTION('ref_axis',(-0.707106781186541,-0.707106781186554,0.));
#787=DIRECTION('',(1.53134210293125E-16,-1.,0.));
#788=DIRECTION('',(1.,0.,0.));
#789=DIRECTION('',(0.,1.,0.));
#790=DIRECTION('',(-1.,0.,0.));
#791=DIRECTION('',(1.53134210293125E-16,-1.,0.));
#792=DIRECTION('',(1.,0.,0.));
#793=DIRECTION('',(-0.707106781186541,0.707106781186554,0.));
#794=DIRECTION('',(0.,1.,0.));
#795=DIRECTION('',(-1.,0.,0.));
#796=DIRECTION('',(-3.54789552234468E-8,0.999999999999999,0.));
#797=DIRECTION('',(-1.,0.,0.));
#798=DIRECTION('',(-4.22942104619107E-16,-1.,0.));
#799=DIRECTION('',(-1.,0.,0.));
#800=DIRECTION('',(-1.11022302462516E-16,-1.,0.));
#801=DIRECTION('',(-0.707106781186544,-0.707106781186551,0.));
#802=DIRECTION('',(1.,0.,0.));
#803=DIRECTION('',(0.,1.,0.));
#804=DIRECTION('',(-1.,0.,0.));
#805=DIRECTION('',(0.,-1.,0.));
#806=DIRECTION('',(1.,0.,0.));
#807=DIRECTION('',(-1.53134210293125E-16,1.,0.));
#808=DIRECTION('center_axis',(0.,0.,1.));
#809=DIRECTION('ref_axis',(0.707106781186543,-0.707106781186552,0.));
#810=DIRECTION('',(1.,0.,0.));
#811=DIRECTION('center_axis',(-0.707106781186551,0.707106781186544,0.));
#812=DIRECTION('ref_axis',(0.,0.,1.));
#813=DIRECTION('',(0.,0.,-1.));
#814=DIRECTION('',(0.,0.,1.));
#815=DIRECTION('',(0.577350269189622,0.577350269189633,0.577350269189622));
#816=DIRECTION('center_axis',(0.707106781186554,0.707106781186541,0.));
#817=DIRECTION('ref_axis',(0.,0.,-1.));
#818=DIRECTION('',(0.,0.,-1.));
#819=DIRECTION('',(0.,0.,1.));
#820=DIRECTION('',(0.577350269189622,-0.577350269189633,-0.577350269189622));
#821=DIRECTION('center_axis',(0.,0.707106781186529,-0.707106781186566));
#822=DIRECTION('ref_axis',(-1.,0.,0.));
#823=DIRECTION('',(-1.,0.,0.));
#824=DIRECTION('',(1.,0.,0.));
#825=DIRECTION('center_axis',(0.,1.,0.));
#826=DIRECTION('ref_axis',(-1.,0.,0.));
#827=DIRECTION('',(0.,0.,1.));
#828=DIRECTION('center_axis',(0.,-1.,0.));
#829=DIRECTION('ref_axis',(-0.707106781186548,0.,0.707106781186548));
#830=DIRECTION('',(-1.,0.,0.));
#831=DIRECTION('center_axis',(0.,-1.,0.));
#832=DIRECTION('ref_axis',(0.707106781186545,0.,0.70710678118655));
#833=DIRECTION('',(0.,0.,1.));
#834=DIRECTION('center_axis',(-0.816496580927728,0.40824829046386,-0.408248290463862));
#835=DIRECTION('ref_axis',(-0.577350269189624,-0.577350269189629,0.577350269189624));
#836=DIRECTION('center_axis',(0.,-1.,0.));
#837=DIRECTION('ref_axis',(-1.,0.,0.));
#838=DIRECTION('center_axis',(0.,0.,1.));
#839=DIRECTION('ref_axis',(0.,-1.,0.));
#840=DIRECTION('center_axis',(-1.,0.,0.));
#841=DIRECTION('ref_axis',(0.,0.,1.));
#842=DIRECTION('center_axis',(0.,0.,1.));
#843=DIRECTION('ref_axis',(-0.707106781186541,-0.707106781186554,0.));
#844=DIRECTION('',(0.,0.,1.));
#845=DIRECTION('',(0.,0.,-1.));
#846=DIRECTION('center_axis',(0.408248290463864,-0.408248290463859,-0.816496580927728));
#847=DIRECTION('ref_axis',(0.577350269189631,-0.577350269189622,0.577350269189624));
#848=DIRECTION('center_axis',(1.,0.,-5.9211894646675E-15));
#849=DIRECTION('ref_axis',(0.,-1.,0.));
#850=DIRECTION('center_axis',(0.,0.,1.));
#851=DIRECTION('ref_axis',(1.,0.,0.));
#852=DIRECTION('center_axis',(0.,-1.,0.));
#853=DIRECTION('ref_axis',(0.,0.,1.));
#854=DIRECTION('center_axis',(0.,0.,1.));
#855=DIRECTION('ref_axis',(0.707106781186543,-0.707106781186552,0.));
#856=DIRECTION('',(0.,0.,1.));
#857=DIRECTION('',(0.,0.,-1.));
#858=DIRECTION('center_axis',(-1.53134210293125E-16,1.,0.));
#859=DIRECTION('ref_axis',(0.707106781186545,0.,0.70710678118655));
#860=DIRECTION('',(1.53134210293125E-16,-1.,0.));
#861=DIRECTION('',(-1.53134210293125E-16,1.,0.));
#862=DIRECTION('center_axis',(1.,0.,0.));
#863=DIRECTION('ref_axis',(0.,-0.707106781186552,0.707106781186543));
#864=DIRECTION('',(-1.,0.,0.));
#865=DIRECTION('',(1.,0.,0.));
#866=DIRECTION('center_axis',(1.53134210293125E-16,-1.,0.));
#867=DIRECTION('ref_axis',(-0.707106781186548,0.,0.707106781186548));
#868=DIRECTION('',(1.53134210293125E-16,-1.,0.));
#869=DIRECTION('',(-1.53134210293125E-16,1.,0.));
#870=DIRECTION('center_axis',(-1.,-1.53134210293125E-16,0.));
#871=DIRECTION('ref_axis',(1.53134210293125E-16,-1.,0.));
#872=DIRECTION('',(0.,0.,-1.));
#873=DIRECTION('',(0.,1.,0.));
#874=DIRECTION('',(0.,0.,1.));
#875=DIRECTION('center_axis',(0.,0.,1.));
#876=DIRECTION('ref_axis',(1.,0.,0.));
#877=DIRECTION('center_axis',(-1.,0.,0.));
#878=DIRECTION('ref_axis',(0.,-0.707106781186547,0.707106781186547));
#879=DIRECTION('center_axis',(0.999999999999999,3.54789552234468E-8,0.));
#880=DIRECTION('ref_axis',(2.50874098279131E-8,-0.707106781186547,0.707106781186547));
#881=DIRECTION('',(1.,0.,0.));
#882=DIRECTION('center_axis',(-1.,4.22942104619107E-16,0.));
#883=DIRECTION('ref_axis',(0.,-0.707106781186547,0.707106781186547));
#884=DIRECTION('',(-1.,0.,0.));
#885=DIRECTION('center_axis',(-1.,4.22942104619107E-16,0.));
#886=DIRECTION('ref_axis',(-4.22942104619107E-16,-1.,0.));
#887=DIRECTION('',(-4.22942104619107E-16,-1.,0.));
#888=DIRECTION('',(0.,0.,1.));
#889=DIRECTION('',(0.,0.,1.));
#890=DIRECTION('center_axis',(0.,0.,1.));
#891=DIRECTION('ref_axis',(-1.,0.,0.));
#892=DIRECTION('',(-1.11022302462516E-16,-1.,0.));
#893=DIRECTION('',(-1.,0.,0.));
#894=DIRECTION('',(-3.54789552234468E-8,0.999999999999999,0.));
#895=DIRECTION('',(-1.,0.,0.));
#896=DIRECTION('',(0.,1.,0.));
#897=DIRECTION('center_axis',(0.,-1.,0.));
#898=DIRECTION('ref_axis',(0.,0.,-1.));
#899=DIRECTION('',(0.,0.,1.));
#900=DIRECTION('',(1.,0.,0.));
#901=DIRECTION('center_axis',(0.,-1.,0.));
#902=DIRECTION('ref_axis',(0.,0.,-1.));
#903=DIRECTION('',(0.,0.,1.));
#904=DIRECTION('',(1.,0.,0.));
#905=DIRECTION('',(0.,0.,-1.));
#906=DIRECTION('center_axis',(-1.,0.,0.));
#907=DIRECTION('ref_axis',(0.,1.,0.));
#908=DIRECTION('',(0.,1.,0.));
#909=DIRECTION('',(0.,0.,1.));
#910=DIRECTION('center_axis',(0.,1.,0.));
#911=DIRECTION('ref_axis',(0.,0.,1.));
#912=DIRECTION('',(-1.,0.,0.));
#913=DIRECTION('',(0.,0.,-1.));
#914=DIRECTION('center_axis',(0.,1.,0.));
#915=DIRECTION('ref_axis',(0.,0.,1.));
#916=DIRECTION('',(-1.,0.,0.));
#917=DIRECTION('',(0.,0.,-1.));
#918=DIRECTION('center_axis',(1.,0.,0.));
#919=DIRECTION('ref_axis',(0.,-1.,0.));
#920=DIRECTION('',(0.,-1.,0.));
#921=DIRECTION('center_axis',(0.,0.,-1.));
#922=DIRECTION('ref_axis',(-1.,0.,0.));
#923=DIRECTION('center_axis',(0.,0.,-1.));
#924=DIRECTION('ref_axis',(-1.,0.,0.));
#925=DIRECTION('',(0.,-1.,0.));
#926=DIRECTION('center_axis',(1.,0.,0.));
#927=DIRECTION('ref_axis',(0.,1.,0.));
#928=DIRECTION('',(0.,0.,1.));
#929=DIRECTION('center_axis',(0.,1.,0.));
#930=DIRECTION('ref_axis',(-1.,0.,0.));
#931=DIRECTION('',(0.,0.,1.));
#932=DIRECTION('center_axis',(0.999999999999999,3.54789552234468E-8,0.));
#933=DIRECTION('ref_axis',(-3.54789552234468E-8,0.999999999999999,0.));
#934=DIRECTION('',(0.,0.,1.));
#935=DIRECTION('center_axis',(0.,1.,0.));
#936=DIRECTION('ref_axis',(-1.,0.,0.));
#937=DIRECTION('center_axis',(0.,1.,0.));
#938=DIRECTION('ref_axis',(-1.,0.,0.));
#939=DIRECTION('',(0.,0.,1.));
#940=DIRECTION('center_axis',(-1.,1.11022302462516E-16,0.));
#941=DIRECTION('ref_axis',(-1.11022302462516E-16,-1.,0.));
#942=DIRECTION('center_axis',(1.,1.53134210293125E-16,0.));
#943=DIRECTION('ref_axis',(-1.53134210293125E-16,1.,0.));
#944=DIRECTION('center_axis',(0.,-1.,0.));
#945=DIRECTION('ref_axis',(1.,0.,0.));
#946=CARTESIAN_POINT('',(0.,0.,0.));
#947=CARTESIAN_POINT('Origin',(-71.,164.9,22.));
#948=CARTESIAN_POINT('',(71.,164.9,22.));
#949=CARTESIAN_POINT('',(-71.,164.9,22.));
#950=CARTESIAN_POINT('',(-35.5,164.9,22.));
#951=CARTESIAN_POINT('',(71.,164.9,19.2));
#952=CARTESIAN_POINT('',(71.,164.9,22.));
#953=CARTESIAN_POINT('',(-71.,164.9,19.2));
#954=CARTESIAN_POINT('',(-35.5,164.9,19.2));
#955=CARTESIAN_POINT('',(-71.,164.9,22.));
#956=CARTESIAN_POINT('Origin',(-71.,164.,22.));
#957=CARTESIAN_POINT('',(-71.,164.,19.2));
#958=CARTESIAN_POINT('',(-71.,165.,19.2));
#959=CARTESIAN_POINT('',(-71.,164.,22.));
#960=CARTESIAN_POINT('',(-71.,164.,22.));
#961=CARTESIAN_POINT('',(-71.,172.25,22.));
#962=CARTESIAN_POINT('Origin',(-8.88178419700125E-15,164.5,19.2));
#963=CARTESIAN_POINT('',(71.,164.,19.2));
#964=CARTESIAN_POINT('',(71.,164.,19.2));
#965=CARTESIAN_POINT('',(-71.,164.,19.2));
#966=CARTESIAN_POINT('Origin',(71.,165.,22.));
#967=CARTESIAN_POINT('',(71.,164.,22.));
#968=CARTESIAN_POINT('',(71.,172.75,22.));
#969=CARTESIAN_POINT('',(71.,164.,22.));
#970=CARTESIAN_POINT('Origin',(1.77635683940025E-14,180.5,22.));
#971=CARTESIAN_POINT('',(-75.,164.,22.));
#972=CARTESIAN_POINT('',(-78.,164.,22.));
#973=CARTESIAN_POINT('',(-78.,167.,22.));
#974=CARTESIAN_POINT('Origin',(-75.,167.,22.));
#975=CARTESIAN_POINT('',(-78.,167.1,22.));
#976=CARTESIAN_POINT('',(-78.,338.,22.));
#977=CARTESIAN_POINT('',(-74.,167.1,22.));
#978=CARTESIAN_POINT('',(-37.,167.1,22.));
#979=CARTESIAN_POINT('',(-74.,176.9,22.));
#980=CARTESIAN_POINT('',(-74.,178.75,22.));
#981=CARTESIAN_POINT('',(-78.,176.9,22.));
#982=CARTESIAN_POINT('',(-39.,176.9,22.));
#983=CARTESIAN_POINT('',(-78.,197.,22.));
#984=CARTESIAN_POINT('',(-78.,187.,22.));
#985=CARTESIAN_POINT('',(-76.,197.,22.));
#986=CARTESIAN_POINT('',(-78.,197.,22.));
#987=CARTESIAN_POINT('',(-75.,196.,22.));
#988=CARTESIAN_POINT('',(-52.6250000000003,173.625,22.));
#989=CARTESIAN_POINT('',(-75.,187.,22.));
#990=CARTESIAN_POINT('',(-75.,187.,22.));
#991=CARTESIAN_POINT('',(-71.0000007450581,187.,22.));
#992=CARTESIAN_POINT('',(-71.0000007450581,187.,22.));
#993=CARTESIAN_POINT('',(-71.,166.,22.));
#994=CARTESIAN_POINT('',(-71.,166.,22.));
#995=CARTESIAN_POINT('',(71.,166.,22.));
#996=CARTESIAN_POINT('',(71.,166.,22.));
#997=CARTESIAN_POINT('',(71.,187.,22.));
#998=CARTESIAN_POINT('',(71.,187.,22.));
#999=CARTESIAN_POINT('',(75.,187.,22.));
#1000=CARTESIAN_POINT('',(75.,187.,22.));
#1001=CARTESIAN_POINT('',(75.,196.,22.));
#1002=CARTESIAN_POINT('',(75.,267.,22.));
#1003=CARTESIAN_POINT('',(76.,197.,22.));
#1004=CARTESIAN_POINT('',(52.6250000000002,173.625,22.));
#1005=CARTESIAN_POINT('',(78.,197.,22.));
#1006=CARTESIAN_POINT('',(-78.,197.,22.));
#1007=CARTESIAN_POINT('',(78.,176.9,22.));
#1008=CARTESIAN_POINT('',(78.,164.,22.));
#1009=CARTESIAN_POINT('',(74.,176.9,22.));
#1010=CARTESIAN_POINT('',(37.,176.9,22.));
#1011=CARTESIAN_POINT('',(74.,167.1,22.));
#1012=CARTESIAN_POINT('',(74.,173.75,22.));
#1013=CARTESIAN_POINT('',(78.,167.1,22.));
#1014=CARTESIAN_POINT('',(39.,167.1,22.));
#1015=CARTESIAN_POINT('',(78.,167.,22.));
#1016=CARTESIAN_POINT('',(78.,172.,22.));
#1017=CARTESIAN_POINT('',(75.,164.,22.));
#1018=CARTESIAN_POINT('Origin',(75.,167.,22.));
#1019=CARTESIAN_POINT('',(-78.,164.,22.));
#1020=CARTESIAN_POINT('Origin',(75.5,196.5,22.));
#1021=CARTESIAN_POINT('',(76.,197.,61.5));
#1022=CARTESIAN_POINT('',(76.,197.,22.));
#1023=CARTESIAN_POINT('',(75.,196.,60.5));
#1024=CARTESIAN_POINT('',(75.,196.,22.));
#1025=CARTESIAN_POINT('',(75.,196.,60.5));
#1026=CARTESIAN_POINT('Origin',(-75.5,196.5,22.));
#1027=CARTESIAN_POINT('',(-75.,196.,60.5));
#1028=CARTESIAN_POINT('',(-75.,196.,22.));
#1029=CARTESIAN_POINT('',(-76.,197.,61.5));
#1030=CARTESIAN_POINT('',(-76.,197.,22.));
#1031=CARTESIAN_POINT('',(-76.,197.,61.5));
#1032=CARTESIAN_POINT('Origin',(-37.5,196.5,61.));
#1033=CARTESIAN_POINT('',(-37.5,196.,60.5));
#1034=CARTESIAN_POINT('',(-37.5,197.,61.5));
#1035=CARTESIAN_POINT('Origin',(-75.,197.,22.));
#1036=CARTESIAN_POINT('',(-78.,197.,60.5));
#1037=CARTESIAN_POINT('',(-78.,197.,22.));
#1038=CARTESIAN_POINT('',(-75.,197.,63.5));
#1039=CARTESIAN_POINT('Origin',(-75.,197.,60.5));
#1040=CARTESIAN_POINT('',(75.,197.,63.5));
#1041=CARTESIAN_POINT('',(78.,197.,63.5));
#1042=CARTESIAN_POINT('',(78.,197.,60.5));
#1043=CARTESIAN_POINT('Origin',(75.,197.,60.5));
#1044=CARTESIAN_POINT('',(78.,197.,22.));
#1045=CARTESIAN_POINT('Origin',(-75.,167.,60.5));
#1046=CARTESIAN_POINT('',(-78.,167.,60.5));
#1047=CARTESIAN_POINT('',(-75.,167.,63.5));
#1048=CARTESIAN_POINT('Origin',(-75.,167.,60.5));
#1049=CARTESIAN_POINT('',(-75.,164.,60.5));
#1050=CARTESIAN_POINT('Origin',(-75.,167.,60.5));
#1051=CARTESIAN_POINT('Origin',(-75.,167.,60.5));
#1052=CARTESIAN_POINT('Origin',(-75.,167.,22.));
#1053=CARTESIAN_POINT('',(-75.,164.,22.));
#1054=CARTESIAN_POINT('',(-78.,167.,22.));
#1055=CARTESIAN_POINT('Origin',(75.,167.,60.5));
#1056=CARTESIAN_POINT('',(75.,164.,60.5));
#1057=CARTESIAN_POINT('',(75.,167.,63.5));
#1058=CARTESIAN_POINT('Origin',(75.,167.,60.5));
#1059=CARTESIAN_POINT('',(78.,167.,60.5));
#1060=CARTESIAN_POINT('Origin',(75.,167.,60.5));
#1061=CARTESIAN_POINT('Origin',(75.,167.,60.5));
#1062=CARTESIAN_POINT('Origin',(75.,167.,22.));
#1063=CARTESIAN_POINT('',(78.,167.,22.));
#1064=CARTESIAN_POINT('',(75.,164.,22.));
#1065=CARTESIAN_POINT('Origin',(75.,178.75,60.5));
#1066=CARTESIAN_POINT('',(75.,178.75,63.5));
#1067=CARTESIAN_POINT('',(78.,178.75,60.5));
#1068=CARTESIAN_POINT('Origin',(-39.,167.,60.5));
#1069=CARTESIAN_POINT('',(-39.,167.,63.5));
#1070=CARTESIAN_POINT('',(-39.,164.,60.5));
#1071=CARTESIAN_POINT('Origin',(-75.,188.75,60.5));
#1072=CARTESIAN_POINT('',(-78.,188.75,60.5));
#1073=CARTESIAN_POINT('',(-75.,188.75,63.5));
#1074=CARTESIAN_POINT('Origin',(-78.,197.,22.));
#1075=CARTESIAN_POINT('',(-78.,176.9,15.2));
#1076=CARTESIAN_POINT('',(-78.,176.9,22.));
#1077=CARTESIAN_POINT('',(-78.,167.1,15.2));
#1078=CARTESIAN_POINT('',(-78.,177.,15.2));
#1079=CARTESIAN_POINT('',(-78.,167.1,22.));
#1080=CARTESIAN_POINT('Origin',(1.77635683940025E-14,180.5,63.5));
#1081=CARTESIAN_POINT('Origin',(35.5,176.,50.5));
#1082=CARTESIAN_POINT('',(-71.0000003547896,176.,60.5));
#1083=CARTESIAN_POINT('',(-71.,166.,50.5));
#1084=CARTESIAN_POINT('Origin',(-71.0000003547896,176.,50.5));
#1085=CARTESIAN_POINT('',(71.,176.,60.5));
#1086=CARTESIAN_POINT('',(35.5,176.,60.5));
#1087=CARTESIAN_POINT('',(71.,166.,50.5));
#1088=CARTESIAN_POINT('Origin',(71.,176.,50.5));
#1089=CARTESIAN_POINT('',(35.5,166.,50.5));
#1090=CARTESIAN_POINT('Origin',(71.,187.,22.));
#1091=CARTESIAN_POINT('',(71.,187.,60.5));
#1092=CARTESIAN_POINT('',(71.,187.,60.5));
#1093=CARTESIAN_POINT('',(71.,187.,22.));
#1094=CARTESIAN_POINT('',(71.,166.,22.));
#1095=CARTESIAN_POINT('Origin',(1.77635683940025E-14,180.5,60.5));
#1096=CARTESIAN_POINT('',(75.,187.,60.5));
#1097=CARTESIAN_POINT('',(75.,267.,60.5));
#1098=CARTESIAN_POINT('',(75.,187.,60.5));
#1099=CARTESIAN_POINT('',(-71.0000007450581,187.,60.5));
#1100=CARTESIAN_POINT('',(-71.,166.,60.5));
#1101=CARTESIAN_POINT('',(-75.,187.,60.5));
#1102=CARTESIAN_POINT('',(-71.0000007450581,187.,60.5));
#1103=CARTESIAN_POINT('',(-75.,187.,60.5));
#1104=CARTESIAN_POINT('Origin',(-78.,176.9,22.));
#1105=CARTESIAN_POINT('',(-74.,176.9,15.2));
#1106=CARTESIAN_POINT('',(-74.,176.9,22.));
#1107=CARTESIAN_POINT('',(-77.,176.9,15.2));
#1108=CARTESIAN_POINT('Origin',(74.,176.9,22.));
#1109=CARTESIAN_POINT('',(78.,176.9,15.2));
#1110=CARTESIAN_POINT('',(78.,176.9,22.));
#1111=CARTESIAN_POINT('',(74.,176.9,15.2));
#1112=CARTESIAN_POINT('',(75.,176.9,15.2));
#1113=CARTESIAN_POINT('',(74.,176.9,22.));
#1114=CARTESIAN_POINT('Origin',(74.,167.,22.));
#1115=CARTESIAN_POINT('',(74.,167.1,15.2));
#1116=CARTESIAN_POINT('',(74.,167.,15.2));
#1117=CARTESIAN_POINT('',(74.,167.1,22.));
#1118=CARTESIAN_POINT('Origin',(-74.,167.1,22.));
#1119=CARTESIAN_POINT('',(-74.,167.1,15.2));
#1120=CARTESIAN_POINT('',(-75.,167.1,15.2));
#1121=CARTESIAN_POINT('',(-74.,167.1,22.));
#1122=CARTESIAN_POINT('Origin',(78.,167.1,22.));
#1123=CARTESIAN_POINT('',(78.,167.1,15.2));
#1124=CARTESIAN_POINT('',(77.,167.1,15.2));
#1125=CARTESIAN_POINT('',(78.,167.1,22.));
#1126=CARTESIAN_POINT('Origin',(-74.,177.,22.));
#1127=CARTESIAN_POINT('',(-74.,167.,15.2));
#1128=CARTESIAN_POINT('Origin',(-76.,172.,15.2));
#1129=CARTESIAN_POINT('Origin',(76.,172.,15.2));
#1130=CARTESIAN_POINT('',(78.,177.,15.2));
#1131=CARTESIAN_POINT('Origin',(-75.,187.,22.));
#1132=CARTESIAN_POINT('',(-75.,187.,22.));
#1133=CARTESIAN_POINT('Origin',(-71.0000007450581,187.,22.));
#1134=CARTESIAN_POINT('',(-71.0000007450581,187.,22.));
#1135=CARTESIAN_POINT('Origin',(-71.,166.,22.));
#1136=CARTESIAN_POINT('',(-71.,166.,22.));
#1137=CARTESIAN_POINT('Origin',(71.,166.,22.));
#1138=CARTESIAN_POINT('Origin',(75.,187.,22.));
#1139=CARTESIAN_POINT('',(75.,187.,22.));
#1140=CARTESIAN_POINT('Origin',(75.,197.,22.));
#1141=CARTESIAN_POINT('Origin',(78.,177.,22.));
#1142=CARTESIAN_POINT('Origin',(-78.,164.,22.));
#1143=UNCERTAINTY_MEASURE_WITH_UNIT(LENGTH_MEASURE(0.01),#1147,
'DISTANCE_ACCURACY_VALUE',
'Maximum model space distance between geometric entities at asserted c
onnectivities');
#1144=UNCERTAINTY_MEASURE_WITH_UNIT(LENGTH_MEASURE(0.01),#1147,
'DISTANCE_ACCURACY_VALUE',
'Maximum model space distance between geometric entities at asserted c
onnectivities');
#1145=(
GEOMETRIC_REPRESENTATION_CONTEXT(3)
GLOBAL_UNCERTAINTY_ASSIGNED_CONTEXT((#1143))
GLOBAL_UNIT_ASSIGNED_CONTEXT((#1147,#1149,#1150))
REPRESENTATION_CONTEXT('','3D')
);
#1146=(
GEOMETRIC_REPRESENTATION_CONTEXT(3)
GLOBAL_UNCERTAINTY_ASSIGNED_CONTEXT((#1144))
GLOBAL_UNIT_ASSIGNED_CONTEXT((#1147,#1149,#1150))
REPRESENTATION_CONTEXT('','3D')
);
#1147=(
LENGTH_UNIT()
NAMED_UNIT(*)
SI_UNIT(.MILLI.,.METRE.)
);
#1148=(
LENGTH_UNIT()
NAMED_UNIT(*)
SI_UNIT($,.METRE.)
);
#1149=(
NAMED_UNIT(*)
PLANE_ANGLE_UNIT()
SI_UNIT($,.RADIAN.)
);
#1150=(
NAMED_UNIT(*)
SI_UNIT($,.STERADIAN.)
SOLID_ANGLE_UNIT()
);
#1151=SHAPE_DEFINITION_REPRESENTATION(#1152,#1153);
#1152=PRODUCT_DEFINITION_SHAPE('',$,#1155);
#1153=SHAPE_REPRESENTATION('',(#711),#1145);
#1154=PRODUCT_DEFINITION_CONTEXT('part definition',#1159,'design');
#1155=PRODUCT_DEFINITION('2026-08-26-01-39-52-755','DGX Front Shroud',#1156,
#1154);
#1156=PRODUCT_DEFINITION_FORMATION('',$,#1161);
#1157=PRODUCT_RELATED_PRODUCT_CATEGORY('DGX Front Shroud',
'DGX Front Shroud',(#1161));
#1158=APPLICATION_PROTOCOL_DEFINITION('international standard',
'automotive_design',2009,#1159);
#1159=APPLICATION_CONTEXT(
'Core Data for Automotive Mechanical Design Process');
#1160=PRODUCT_CONTEXT('part definition',#1159,'mechanical');
#1161=PRODUCT('2026-08-26-01-39-52-755','DGX Front Shroud',$,(#1160));
#1162=PRESENTATION_STYLE_ASSIGNMENT((#1164));
#1163=PRESENTATION_STYLE_ASSIGNMENT((#1165));
#1164=SURFACE_STYLE_USAGE(.BOTH.,#1166);
#1165=SURFACE_STYLE_USAGE(.BOTH.,#1167);
#1166=SURFACE_SIDE_STYLE('',(#1168));
#1167=SURFACE_SIDE_STYLE('',(#1169));
#1168=SURFACE_STYLE_FILL_AREA(#1170);
#1169=SURFACE_STYLE_FILL_AREA(#1171);
#1170=FILL_AREA_STYLE('Steel - Satin',(#1172));
#1171=FILL_AREA_STYLE('Nylon 12 (with Formlabs Fuse 1 3D Printer)',(#1173));
#1172=FILL_AREA_STYLE_COLOUR('Steel - Satin',#1174);
#1173=FILL_AREA_STYLE_COLOUR(
'Nylon 12 (with Formlabs Fuse 1 3D Printer)',#1175);
#1174=COLOUR_RGB('Steel - Satin',0.627450980392157,0.627450980392157,0.627450980392157);
#1175=COLOUR_RGB('Nylon 12 (with Formlabs Fuse 1 3D Printer)',0.247058823529412,
0.247058823529412,0.247058823529412);
ENDSEC;
END-ISO-10303-21;
