ISO-10303-21;
HEADER;
/* Generated by software containing ST-Developer
 * from STEP Tools, Inc. (www.steptools.com) 
 */

FILE_DESCRIPTION(
/* description */ (''),
/* implementation_level */ '2;1');

FILE_NAME(
/* name */ 'MSI Front Shroud.step',
/* time_stamp */ '2026-08-26T01:47:41-07:00',
/* author */ (''),
/* organization */ (''),
/* preprocessor_version */ 'ST-DEVELOPER v20.1',
/* originating_system */ 'Autodesk Translation Framework v15.8.0.0',
/* authorisation */ '');

FILE_SCHEMA (('AUTOMOTIVE_DESIGN { 1 0 10303 214 3 1 1 }'));
ENDSEC;

DATA;
#10=MECHANICAL_DESIGN_GEOMETRIC_PRESENTATION_REPRESENTATION('',(#13),#1146);
#11=SHAPE_REPRESENTATION_RELATIONSHIP('SRR','None',#1153,#12);
#12=ADVANCED_BREP_SHAPE_REPRESENTATION('',(#14),#1145);
#13=STYLED_ITEM('',(#1163),#14);
#14=MANIFOLD_SOLID_BREP('MSI Front Shroud',#698);
#15=SPHERICAL_SURFACE('',#724,3.);
#16=SPHERICAL_SURFACE('',#729,3.);
#17=PLANE('',#715);
#18=PLANE('',#716);
#19=PLANE('',#717);
#20=PLANE('',#731);
#21=PLANE('',#732);
#22=PLANE('',#733);
#23=PLANE('',#734);
#24=PLANE('',#735);
#25=PLANE('',#738);
#26=PLANE('',#741);
#27=PLANE('',#742);
#28=PLANE('',#743);
#29=PLANE('',#744);
#30=PLANE('',#745);
#31=PLANE('',#746);
#32=PLANE('',#747);
#33=PLANE('',#748);
#34=PLANE('',#749);
#35=PLANE('',#750);
#36=PLANE('',#751);
#37=PLANE('',#752);
#38=PLANE('',#753);
#39=PLANE('',#754);
#40=PLANE('',#755);
#41=PLANE('',#756);
#42=PLANE('',#757);
#43=PLANE('',#758);
#44=PLANE('',#759);
#45=PLANE('',#760);
#46=FACE_OUTER_BOUND('',#83,.T.);
#47=FACE_OUTER_BOUND('',#84,.T.);
#48=FACE_OUTER_BOUND('',#85,.T.);
#49=FACE_OUTER_BOUND('',#86,.T.);
#50=FACE_OUTER_BOUND('',#87,.T.);
#51=FACE_OUTER_BOUND('',#88,.T.);
#52=FACE_OUTER_BOUND('',#89,.T.);
#53=FACE_OUTER_BOUND('',#90,.T.);
#54=FACE_OUTER_BOUND('',#91,.T.);
#55=FACE_OUTER_BOUND('',#92,.T.);
#56=FACE_OUTER_BOUND('',#93,.T.);
#57=FACE_OUTER_BOUND('',#94,.T.);
#58=FACE_OUTER_BOUND('',#95,.T.);
#59=FACE_OUTER_BOUND('',#96,.T.);
#60=FACE_OUTER_BOUND('',#97,.T.);
#61=FACE_OUTER_BOUND('',#98,.T.);
#62=FACE_OUTER_BOUND('',#99,.T.);
#63=FACE_OUTER_BOUND('',#100,.T.);
#64=FACE_OUTER_BOUND('',#101,.T.);
#65=FACE_OUTER_BOUND('',#102,.T.);
#66=FACE_OUTER_BOUND('',#103,.T.);
#67=FACE_OUTER_BOUND('',#104,.T.);
#68=FACE_OUTER_BOUND('',#105,.T.);
#69=FACE_OUTER_BOUND('',#106,.T.);
#70=FACE_OUTER_BOUND('',#107,.T.);
#71=FACE_OUTER_BOUND('',#108,.T.);
#72=FACE_OUTER_BOUND('',#109,.T.);
#73=FACE_OUTER_BOUND('',#110,.T.);
#74=FACE_OUTER_BOUND('',#111,.T.);
#75=FACE_OUTER_BOUND('',#112,.T.);
#76=FACE_OUTER_BOUND('',#113,.T.);
#77=FACE_OUTER_BOUND('',#114,.T.);
#78=FACE_OUTER_BOUND('',#115,.T.);
#79=FACE_OUTER_BOUND('',#116,.T.);
#80=FACE_OUTER_BOUND('',#117,.T.);
#81=FACE_OUTER_BOUND('',#118,.T.);
#82=FACE_OUTER_BOUND('',#119,.T.);
#83=EDGE_LOOP('',(#461,#462,#463,#464));
#84=EDGE_LOOP('',(#465,#466,#467,#468,#469));
#85=EDGE_LOOP('',(#470,#471,#472,#473,#474,#475,#476,#477));
#86=EDGE_LOOP('',(#478,#479,#480,#481));
#87=EDGE_LOOP('',(#482,#483,#484,#485));
#88=EDGE_LOOP('',(#486,#487,#488,#489));
#89=EDGE_LOOP('',(#490,#491,#492));
#90=EDGE_LOOP('',(#493,#494,#495,#496));
#91=EDGE_LOOP('',(#497,#498,#499));
#92=EDGE_LOOP('',(#500,#501,#502,#503));
#93=EDGE_LOOP('',(#504,#505,#506,#507,#508,#509,#510,#511,#512,#513));
#94=EDGE_LOOP('',(#514,#515,#516,#517));
#95=EDGE_LOOP('',(#518,#519,#520,#521,#522));
#96=EDGE_LOOP('',(#523,#524,#525,#526,#527,#528,#529,#530));
#97=EDGE_LOOP('',(#531,#532,#533,#534));
#98=EDGE_LOOP('',(#535,#536,#537,#538,#539,#540,#541,#542));
#99=EDGE_LOOP('',(#543,#544,#545,#546));
#100=EDGE_LOOP('',(#547,#548,#549,#550,#551,#552,#553,#554));
#101=EDGE_LOOP('',(#555,#556,#557,#558));
#102=EDGE_LOOP('',(#559,#560,#561,#562));
#103=EDGE_LOOP('',(#563,#564,#565,#566));
#104=EDGE_LOOP('',(#567,#568,#569,#570));
#105=EDGE_LOOP('',(#571,#572,#573,#574,#575,#576,#577,#578,#579,#580,#581,
#582,#583,#584,#585,#586,#587,#588,#589,#590,#591,#592,#593,#594,#595,#596,
#597,#598));
#106=EDGE_LOOP('',(#599,#600,#601,#602));
#107=EDGE_LOOP('',(#603,#604,#605,#606));
#108=EDGE_LOOP('',(#607,#608,#609,#610));
#109=EDGE_LOOP('',(#611,#612,#613,#614));
#110=EDGE_LOOP('',(#615,#616,#617,#618));
#111=EDGE_LOOP('',(#619,#620,#621,#622));
#112=EDGE_LOOP('',(#623,#624,#625,#626));
#113=EDGE_LOOP('',(#627,#628,#629,#630));
#114=EDGE_LOOP('',(#631,#632,#633,#634));
#115=EDGE_LOOP('',(#635,#636,#637,#638));
#116=EDGE_LOOP('',(#639,#640,#641,#642));
#117=EDGE_LOOP('',(#643,#644,#645,#646));
#118=EDGE_LOOP('',(#647,#648,#649,#650));
#119=EDGE_LOOP('',(#651,#652,#653,#654));
#120=LINE('',#952,#205);
#121=LINE('',#955,#206);
#122=LINE('',#958,#207);
#123=LINE('',#960,#208);
#124=LINE('',#962,#209);
#125=LINE('',#963,#210);
#126=LINE('',#966,#211);
#127=LINE('',#968,#212);
#128=LINE('',#970,#213);
#129=LINE('',#972,#214);
#130=LINE('',#974,#215);
#131=LINE('',#975,#216);
#132=LINE('',#978,#217);
#133=LINE('',#980,#218);
#134=LINE('',#981,#219);
#135=LINE('',#987,#220);
#136=LINE('',#990,#221);
#137=LINE('',#995,#222);
#138=LINE('',#998,#223);
#139=LINE('',#1005,#224);
#140=LINE('',#1008,#225);
#141=LINE('',#1012,#226);
#142=LINE('',#1015,#227);
#143=LINE('',#1017,#228);
#144=LINE('',#1018,#229);
#145=LINE('',#1020,#230);
#146=LINE('',#1022,#231);
#147=LINE('',#1023,#232);
#148=LINE('',#1026,#233);
#149=LINE('',#1027,#234);
#150=LINE('',#1030,#235);
#151=LINE('',#1032,#236);
#152=LINE('',#1033,#237);
#153=LINE('',#1036,#238);
#154=LINE('',#1038,#239);
#155=LINE('',#1040,#240);
#156=LINE('',#1042,#241);
#157=LINE('',#1044,#242);
#158=LINE('',#1045,#243);
#159=LINE('',#1049,#244);
#160=LINE('',#1052,#245);
#161=LINE('',#1054,#246);
#162=LINE('',#1056,#247);
#163=LINE('',#1058,#248);
#164=LINE('',#1060,#249);
#165=LINE('',#1061,#250);
#166=LINE('',#1065,#251);
#167=LINE('',#1068,#252);
#168=LINE('',#1070,#253);
#169=LINE('',#1072,#254);
#170=LINE('',#1074,#255);
#171=LINE('',#1075,#256);
#172=LINE('',#1079,#257);
#173=LINE('',#1081,#258);
#174=LINE('',#1083,#259);
#175=LINE('',#1084,#260);
#176=LINE('',#1086,#261);
#177=LINE('',#1087,#262);
#178=LINE('',#1089,#263);
#179=LINE('',#1091,#264);
#180=LINE('',#1094,#265);
#181=LINE('',#1096,#266);
#182=LINE('',#1097,#267);
#183=LINE('',#1099,#268);
#184=LINE('',#1101,#269);
#185=LINE('',#1102,#270);
#186=LINE('',#1103,#271);
#187=LINE('',#1105,#272);
#188=LINE('',#1106,#273);
#189=LINE('',#1108,#274);
#190=LINE('',#1110,#275);
#191=LINE('',#1111,#276);
#192=LINE('',#1113,#277);
#193=LINE('',#1116,#278);
#194=LINE('',#1117,#279);
#195=LINE('',#1120,#280);
#196=LINE('',#1121,#281);
#197=LINE('',#1124,#282);
#198=LINE('',#1125,#283);
#199=LINE('',#1128,#284);
#200=LINE('',#1129,#285);
#201=LINE('',#1131,#286);
#202=LINE('',#1133,#287);
#203=LINE('',#1137,#288);
#204=LINE('',#1141,#289);
#205=VECTOR('',#767,10.);
#206=VECTOR('',#770,10.);
#207=VECTOR('',#773,10.);
#208=VECTOR('',#774,10.);
#209=VECTOR('',#775,10.);
#210=VECTOR('',#776,10.);
#211=VECTOR('',#779,10.);
#212=VECTOR('',#780,10.);
#213=VECTOR('',#781,10.);
#214=VECTOR('',#782,10.);
#215=VECTOR('',#783,10.);
#216=VECTOR('',#784,10.);
#217=VECTOR('',#787,10.);
#218=VECTOR('',#788,10.);
#219=VECTOR('',#789,10.);
#220=VECTOR('',#794,10.);
#221=VECTOR('',#797,10.);
#222=VECTOR('',#802,10.);
#223=VECTOR('',#805,10.);
#224=VECTOR('',#814,10.);
#225=VECTOR('',#817,10.);
#226=VECTOR('',#824,10.);
#227=VECTOR('',#827,10.);
#228=VECTOR('',#828,10.);
#229=VECTOR('',#829,10.);
#230=VECTOR('',#830,10.);
#231=VECTOR('',#831,10.);
#232=VECTOR('',#832,10.);
#233=VECTOR('',#835,10.);
#234=VECTOR('',#836,10.);
#235=VECTOR('',#839,10.);
#236=VECTOR('',#840,10.);
#237=VECTOR('',#841,10.);
#238=VECTOR('',#844,10.);
#239=VECTOR('',#845,10.);
#240=VECTOR('',#846,10.);
#241=VECTOR('',#847,10.);
#242=VECTOR('',#848,10.);
#243=VECTOR('',#849,10.);
#244=VECTOR('',#854,10.);
#245=VECTOR('',#857,10.);
#246=VECTOR('',#858,10.);
#247=VECTOR('',#859,10.);
#248=VECTOR('',#860,10.);
#249=VECTOR('',#861,10.);
#250=VECTOR('',#862,10.);
#251=VECTOR('',#867,10.);
#252=VECTOR('',#870,10.);
#253=VECTOR('',#871,10.);
#254=VECTOR('',#872,10.);
#255=VECTOR('',#873,10.);
#256=VECTOR('',#874,10.);
#257=VECTOR('',#877,10.);
#258=VECTOR('',#878,10.);
#259=VECTOR('',#879,10.);
#260=VECTOR('',#880,10.);
#261=VECTOR('',#883,10.);
#262=VECTOR('',#884,10.);
#263=VECTOR('',#887,10.);
#264=VECTOR('',#890,10.);
#265=VECTOR('',#893,10.);
#266=VECTOR('',#894,10.);
#267=VECTOR('',#895,10.);
#268=VECTOR('',#896,10.);
#269=VECTOR('',#897,10.);
#270=VECTOR('',#898,10.);
#271=VECTOR('',#899,10.);
#272=VECTOR('',#900,10.);
#273=VECTOR('',#901,10.);
#274=VECTOR('',#902,10.);
#275=VECTOR('',#903,10.);
#276=VECTOR('',#904,10.);
#277=VECTOR('',#907,10.);
#278=VECTOR('',#910,10.);
#279=VECTOR('',#911,10.);
#280=VECTOR('',#914,10.);
#281=VECTOR('',#915,10.);
#282=VECTOR('',#918,10.);
#283=VECTOR('',#919,10.);
#284=VECTOR('',#922,10.);
#285=VECTOR('',#923,10.);
#286=VECTOR('',#926,10.);
#287=VECTOR('',#929,10.);
#288=VECTOR('',#936,10.);
#289=VECTOR('',#943,10.);
#290=CIRCLE('',#713,10.);
#291=CIRCLE('',#714,10.);
#292=CIRCLE('',#719,3.);
#293=CIRCLE('',#720,2.99999999999999);
#294=CIRCLE('',#722,3.);
#295=CIRCLE('',#723,3.00000000000001);
#296=CIRCLE('',#725,2.99999999999999);
#297=CIRCLE('',#727,3.);
#298=CIRCLE('',#728,3.);
#299=CIRCLE('',#730,3.);
#300=CIRCLE('',#737,3.);
#301=CIRCLE('',#740,3.);
#302=VERTEX_POINT('',#948);
#303=VERTEX_POINT('',#949);
#304=VERTEX_POINT('',#951);
#305=VERTEX_POINT('',#953);
#306=VERTEX_POINT('',#957);
#307=VERTEX_POINT('',#959);
#308=VERTEX_POINT('',#961);
#309=VERTEX_POINT('',#965);
#310=VERTEX_POINT('',#967);
#311=VERTEX_POINT('',#969);
#312=VERTEX_POINT('',#971);
#313=VERTEX_POINT('',#973);
#314=VERTEX_POINT('',#977);
#315=VERTEX_POINT('',#979);
#316=VERTEX_POINT('',#983);
#317=VERTEX_POINT('',#984);
#318=VERTEX_POINT('',#986);
#319=VERTEX_POINT('',#988);
#320=VERTEX_POINT('',#992);
#321=VERTEX_POINT('',#994);
#322=VERTEX_POINT('',#996);
#323=VERTEX_POINT('',#1002);
#324=VERTEX_POINT('',#1003);
#325=VERTEX_POINT('',#1006);
#326=VERTEX_POINT('',#1014);
#327=VERTEX_POINT('',#1016);
#328=VERTEX_POINT('',#1019);
#329=VERTEX_POINT('',#1021);
#330=VERTEX_POINT('',#1025);
#331=VERTEX_POINT('',#1029);
#332=VERTEX_POINT('',#1031);
#333=VERTEX_POINT('',#1035);
#334=VERTEX_POINT('',#1037);
#335=VERTEX_POINT('',#1039);
#336=VERTEX_POINT('',#1041);
#337=VERTEX_POINT('',#1043);
#338=VERTEX_POINT('',#1047);
#339=VERTEX_POINT('',#1051);
#340=VERTEX_POINT('',#1053);
#341=VERTEX_POINT('',#1055);
#342=VERTEX_POINT('',#1057);
#343=VERTEX_POINT('',#1059);
#344=VERTEX_POINT('',#1063);
#345=VERTEX_POINT('',#1067);
#346=VERTEX_POINT('',#1069);
#347=VERTEX_POINT('',#1071);
#348=VERTEX_POINT('',#1073);
#349=VERTEX_POINT('',#1077);
#350=VERTEX_POINT('',#1078);
#351=VERTEX_POINT('',#1080);
#352=VERTEX_POINT('',#1082);
#353=VERTEX_POINT('',#1093);
#354=VERTEX_POINT('',#1095);
#355=VERTEX_POINT('',#1098);
#356=VERTEX_POINT('',#1100);
#357=VERTEX_POINT('',#1104);
#358=VERTEX_POINT('',#1107);
#359=VERTEX_POINT('',#1109);
#360=VERTEX_POINT('',#1115);
#361=VERTEX_POINT('',#1119);
#362=VERTEX_POINT('',#1123);
#363=VERTEX_POINT('',#1127);
#364=EDGE_CURVE('',#302,#303,#290,.T.);
#365=EDGE_CURVE('',#302,#304,#120,.T.);
#366=EDGE_CURVE('',#305,#304,#291,.T.);
#367=EDGE_CURVE('',#305,#303,#121,.T.);
#368=EDGE_CURVE('',#303,#306,#122,.T.);
#369=EDGE_CURVE('',#307,#306,#123,.T.);
#370=EDGE_CURVE('',#307,#308,#124,.T.);
#371=EDGE_CURVE('',#308,#302,#125,.T.);
#372=EDGE_CURVE('',#309,#305,#126,.T.);
#373=EDGE_CURVE('',#310,#309,#127,.T.);
#374=EDGE_CURVE('',#311,#310,#128,.T.);
#375=EDGE_CURVE('',#312,#311,#129,.T.);
#376=EDGE_CURVE('',#313,#312,#130,.T.);
#377=EDGE_CURVE('',#306,#313,#131,.T.);
#378=EDGE_CURVE('',#314,#312,#132,.F.);
#379=EDGE_CURVE('',#311,#315,#133,.F.);
#380=EDGE_CURVE('',#315,#314,#134,.T.);
#381=EDGE_CURVE('',#316,#317,#292,.T.);
#382=EDGE_CURVE('',#317,#318,#135,.T.);
#383=EDGE_CURVE('',#318,#319,#293,.T.);
#384=EDGE_CURVE('',#319,#316,#136,.T.);
#385=EDGE_CURVE('',#319,#320,#294,.T.);
#386=EDGE_CURVE('',#320,#321,#137,.T.);
#387=EDGE_CURVE('',#321,#322,#295,.T.);
#388=EDGE_CURVE('',#322,#319,#138,.T.);
#389=EDGE_CURVE('',#318,#320,#296,.T.);
#390=EDGE_CURVE('',#323,#324,#297,.T.);
#391=EDGE_CURVE('',#324,#322,#139,.T.);
#392=EDGE_CURVE('',#322,#325,#298,.T.);
#393=EDGE_CURVE('',#325,#323,#140,.T.);
#394=EDGE_CURVE('',#321,#325,#299,.T.);
#395=EDGE_CURVE('',#324,#316,#141,.T.);
#396=EDGE_CURVE('',#326,#315,#142,.T.);
#397=EDGE_CURVE('',#327,#326,#143,.T.);
#398=EDGE_CURVE('',#327,#317,#144,.T.);
#399=EDGE_CURVE('',#328,#323,#145,.T.);
#400=EDGE_CURVE('',#329,#328,#146,.T.);
#401=EDGE_CURVE('',#314,#329,#147,.T.);
#402=EDGE_CURVE('',#329,#330,#148,.T.);
#403=EDGE_CURVE('',#330,#312,#149,.T.);
#404=EDGE_CURVE('',#331,#304,#150,.T.);
#405=EDGE_CURVE('',#331,#332,#151,.T.);
#406=EDGE_CURVE('',#332,#309,#152,.T.);
#407=EDGE_CURVE('',#327,#333,#153,.T.);
#408=EDGE_CURVE('',#333,#334,#154,.T.);
#409=EDGE_CURVE('',#335,#334,#155,.T.);
#410=EDGE_CURVE('',#335,#336,#156,.T.);
#411=EDGE_CURVE('',#336,#337,#157,.T.);
#412=EDGE_CURVE('',#318,#337,#158,.T.);
#413=EDGE_CURVE('',#337,#338,#300,.T.);
#414=EDGE_CURVE('',#338,#320,#159,.T.);
#415=EDGE_CURVE('',#338,#339,#160,.T.);
#416=EDGE_CURVE('',#339,#340,#161,.T.);
#417=EDGE_CURVE('',#341,#340,#162,.T.);
#418=EDGE_CURVE('',#342,#341,#163,.T.);
#419=EDGE_CURVE('',#342,#343,#164,.T.);
#420=EDGE_CURVE('',#321,#343,#165,.T.);
#421=EDGE_CURVE('',#343,#344,#301,.T.);
#422=EDGE_CURVE('',#344,#325,#166,.T.);
#423=EDGE_CURVE('',#344,#345,#167,.T.);
#424=EDGE_CURVE('',#345,#346,#168,.T.);
#425=EDGE_CURVE('',#347,#346,#169,.T.);
#426=EDGE_CURVE('',#347,#348,#170,.T.);
#427=EDGE_CURVE('',#348,#328,#171,.T.);
#428=EDGE_CURVE('',#349,#350,#172,.T.);
#429=EDGE_CURVE('',#351,#349,#173,.T.);
#430=EDGE_CURVE('',#352,#351,#174,.T.);
#431=EDGE_CURVE('',#350,#352,#175,.T.);
#432=EDGE_CURVE('',#340,#352,#176,.T.);
#433=EDGE_CURVE('',#350,#339,#177,.T.);
#434=EDGE_CURVE('',#351,#341,#178,.T.);
#435=EDGE_CURVE('',#342,#349,#179,.T.);
#436=EDGE_CURVE('',#336,#353,#180,.T.);
#437=EDGE_CURVE('',#353,#354,#181,.T.);
#438=EDGE_CURVE('',#354,#333,#182,.T.);
#439=EDGE_CURVE('',#355,#326,#183,.T.);
#440=EDGE_CURVE('',#356,#355,#184,.T.);
#441=EDGE_CURVE('',#332,#356,#185,.T.);
#442=EDGE_CURVE('',#308,#331,#186,.T.);
#443=EDGE_CURVE('',#357,#307,#187,.T.);
#444=EDGE_CURVE('',#330,#357,#188,.T.);
#445=EDGE_CURVE('',#348,#358,#189,.T.);
#446=EDGE_CURVE('',#358,#359,#190,.T.);
#447=EDGE_CURVE('',#359,#345,#191,.T.);
#448=EDGE_CURVE('',#311,#355,#192,.T.);
#449=EDGE_CURVE('',#360,#354,#193,.T.);
#450=EDGE_CURVE('',#334,#360,#194,.T.);
#451=EDGE_CURVE('',#361,#347,#195,.T.);
#452=EDGE_CURVE('',#358,#361,#196,.T.);
#453=EDGE_CURVE('',#362,#361,#197,.T.);
#454=EDGE_CURVE('',#362,#359,#198,.T.);
#455=EDGE_CURVE('',#363,#335,#199,.T.);
#456=EDGE_CURVE('',#353,#363,#200,.T.);
#457=EDGE_CURVE('',#346,#362,#201,.T.);
#458=EDGE_CURVE('',#360,#363,#202,.T.);
#459=EDGE_CURVE('',#356,#310,#203,.T.);
#460=EDGE_CURVE('',#357,#313,#204,.T.);
#461=ORIENTED_EDGE('',*,*,#364,.F.);
#462=ORIENTED_EDGE('',*,*,#365,.T.);
#463=ORIENTED_EDGE('',*,*,#366,.F.);
#464=ORIENTED_EDGE('',*,*,#367,.T.);
#465=ORIENTED_EDGE('',*,*,#364,.T.);
#466=ORIENTED_EDGE('',*,*,#368,.T.);
#467=ORIENTED_EDGE('',*,*,#369,.F.);
#468=ORIENTED_EDGE('',*,*,#370,.T.);
#469=ORIENTED_EDGE('',*,*,#371,.T.);
#470=ORIENTED_EDGE('',*,*,#367,.F.);
#471=ORIENTED_EDGE('',*,*,#372,.F.);
#472=ORIENTED_EDGE('',*,*,#373,.F.);
#473=ORIENTED_EDGE('',*,*,#374,.F.);
#474=ORIENTED_EDGE('',*,*,#375,.F.);
#475=ORIENTED_EDGE('',*,*,#376,.F.);
#476=ORIENTED_EDGE('',*,*,#377,.F.);
#477=ORIENTED_EDGE('',*,*,#368,.F.);
#478=ORIENTED_EDGE('',*,*,#378,.T.);
#479=ORIENTED_EDGE('',*,*,#375,.T.);
#480=ORIENTED_EDGE('',*,*,#379,.T.);
#481=ORIENTED_EDGE('',*,*,#380,.T.);
#482=ORIENTED_EDGE('',*,*,#381,.T.);
#483=ORIENTED_EDGE('',*,*,#382,.T.);
#484=ORIENTED_EDGE('',*,*,#383,.T.);
#485=ORIENTED_EDGE('',*,*,#384,.T.);
#486=ORIENTED_EDGE('',*,*,#385,.T.);
#487=ORIENTED_EDGE('',*,*,#386,.T.);
#488=ORIENTED_EDGE('',*,*,#387,.T.);
#489=ORIENTED_EDGE('',*,*,#388,.T.);
#490=ORIENTED_EDGE('',*,*,#385,.F.);
#491=ORIENTED_EDGE('',*,*,#383,.F.);
#492=ORIENTED_EDGE('',*,*,#389,.T.);
#493=ORIENTED_EDGE('',*,*,#390,.T.);
#494=ORIENTED_EDGE('',*,*,#391,.T.);
#495=ORIENTED_EDGE('',*,*,#392,.T.);
#496=ORIENTED_EDGE('',*,*,#393,.T.);
#497=ORIENTED_EDGE('',*,*,#392,.F.);
#498=ORIENTED_EDGE('',*,*,#387,.F.);
#499=ORIENTED_EDGE('',*,*,#394,.T.);
#500=ORIENTED_EDGE('',*,*,#384,.F.);
#501=ORIENTED_EDGE('',*,*,#388,.F.);
#502=ORIENTED_EDGE('',*,*,#391,.F.);
#503=ORIENTED_EDGE('',*,*,#395,.T.);
#504=ORIENTED_EDGE('',*,*,#396,.F.);
#505=ORIENTED_EDGE('',*,*,#397,.F.);
#506=ORIENTED_EDGE('',*,*,#398,.T.);
#507=ORIENTED_EDGE('',*,*,#381,.F.);
#508=ORIENTED_EDGE('',*,*,#395,.F.);
#509=ORIENTED_EDGE('',*,*,#390,.F.);
#510=ORIENTED_EDGE('',*,*,#399,.F.);
#511=ORIENTED_EDGE('',*,*,#400,.F.);
#512=ORIENTED_EDGE('',*,*,#401,.F.);
#513=ORIENTED_EDGE('',*,*,#380,.F.);
#514=ORIENTED_EDGE('',*,*,#401,.T.);
#515=ORIENTED_EDGE('',*,*,#402,.T.);
#516=ORIENTED_EDGE('',*,*,#403,.T.);
#517=ORIENTED_EDGE('',*,*,#378,.F.);
#518=ORIENTED_EDGE('',*,*,#366,.T.);
#519=ORIENTED_EDGE('',*,*,#404,.F.);
#520=ORIENTED_EDGE('',*,*,#405,.T.);
#521=ORIENTED_EDGE('',*,*,#406,.T.);
#522=ORIENTED_EDGE('',*,*,#372,.T.);
#523=ORIENTED_EDGE('',*,*,#382,.F.);
#524=ORIENTED_EDGE('',*,*,#398,.F.);
#525=ORIENTED_EDGE('',*,*,#407,.T.);
#526=ORIENTED_EDGE('',*,*,#408,.T.);
#527=ORIENTED_EDGE('',*,*,#409,.F.);
#528=ORIENTED_EDGE('',*,*,#410,.T.);
#529=ORIENTED_EDGE('',*,*,#411,.T.);
#530=ORIENTED_EDGE('',*,*,#412,.F.);
#531=ORIENTED_EDGE('',*,*,#389,.F.);
#532=ORIENTED_EDGE('',*,*,#412,.T.);
#533=ORIENTED_EDGE('',*,*,#413,.T.);
#534=ORIENTED_EDGE('',*,*,#414,.T.);
#535=ORIENTED_EDGE('',*,*,#386,.F.);
#536=ORIENTED_EDGE('',*,*,#414,.F.);
#537=ORIENTED_EDGE('',*,*,#415,.T.);
#538=ORIENTED_EDGE('',*,*,#416,.T.);
#539=ORIENTED_EDGE('',*,*,#417,.F.);
#540=ORIENTED_EDGE('',*,*,#418,.F.);
#541=ORIENTED_EDGE('',*,*,#419,.T.);
#542=ORIENTED_EDGE('',*,*,#420,.F.);
#543=ORIENTED_EDGE('',*,*,#394,.F.);
#544=ORIENTED_EDGE('',*,*,#420,.T.);
#545=ORIENTED_EDGE('',*,*,#421,.T.);
#546=ORIENTED_EDGE('',*,*,#422,.T.);
#547=ORIENTED_EDGE('',*,*,#393,.F.);
#548=ORIENTED_EDGE('',*,*,#422,.F.);
#549=ORIENTED_EDGE('',*,*,#423,.T.);
#550=ORIENTED_EDGE('',*,*,#424,.T.);
#551=ORIENTED_EDGE('',*,*,#425,.F.);
#552=ORIENTED_EDGE('',*,*,#426,.T.);
#553=ORIENTED_EDGE('',*,*,#427,.T.);
#554=ORIENTED_EDGE('',*,*,#399,.T.);
#555=ORIENTED_EDGE('',*,*,#428,.F.);
#556=ORIENTED_EDGE('',*,*,#429,.F.);
#557=ORIENTED_EDGE('',*,*,#430,.F.);
#558=ORIENTED_EDGE('',*,*,#431,.F.);
#559=ORIENTED_EDGE('',*,*,#431,.T.);
#560=ORIENTED_EDGE('',*,*,#432,.F.);
#561=ORIENTED_EDGE('',*,*,#416,.F.);
#562=ORIENTED_EDGE('',*,*,#433,.F.);
#563=ORIENTED_EDGE('',*,*,#430,.T.);
#564=ORIENTED_EDGE('',*,*,#434,.T.);
#565=ORIENTED_EDGE('',*,*,#417,.T.);
#566=ORIENTED_EDGE('',*,*,#432,.T.);
#567=ORIENTED_EDGE('',*,*,#429,.T.);
#568=ORIENTED_EDGE('',*,*,#435,.F.);
#569=ORIENTED_EDGE('',*,*,#418,.T.);
#570=ORIENTED_EDGE('',*,*,#434,.F.);
#571=ORIENTED_EDGE('',*,*,#435,.T.);
#572=ORIENTED_EDGE('',*,*,#428,.T.);
#573=ORIENTED_EDGE('',*,*,#433,.T.);
#574=ORIENTED_EDGE('',*,*,#415,.F.);
#575=ORIENTED_EDGE('',*,*,#413,.F.);
#576=ORIENTED_EDGE('',*,*,#411,.F.);
#577=ORIENTED_EDGE('',*,*,#436,.T.);
#578=ORIENTED_EDGE('',*,*,#437,.T.);
#579=ORIENTED_EDGE('',*,*,#438,.T.);
#580=ORIENTED_EDGE('',*,*,#407,.F.);
#581=ORIENTED_EDGE('',*,*,#397,.T.);
#582=ORIENTED_EDGE('',*,*,#439,.F.);
#583=ORIENTED_EDGE('',*,*,#440,.F.);
#584=ORIENTED_EDGE('',*,*,#441,.F.);
#585=ORIENTED_EDGE('',*,*,#405,.F.);
#586=ORIENTED_EDGE('',*,*,#442,.F.);
#587=ORIENTED_EDGE('',*,*,#370,.F.);
#588=ORIENTED_EDGE('',*,*,#443,.F.);
#589=ORIENTED_EDGE('',*,*,#444,.F.);
#590=ORIENTED_EDGE('',*,*,#402,.F.);
#591=ORIENTED_EDGE('',*,*,#400,.T.);
#592=ORIENTED_EDGE('',*,*,#427,.F.);
#593=ORIENTED_EDGE('',*,*,#445,.T.);
#594=ORIENTED_EDGE('',*,*,#446,.T.);
#595=ORIENTED_EDGE('',*,*,#447,.T.);
#596=ORIENTED_EDGE('',*,*,#423,.F.);
#597=ORIENTED_EDGE('',*,*,#421,.F.);
#598=ORIENTED_EDGE('',*,*,#419,.F.);
#599=ORIENTED_EDGE('',*,*,#448,.T.);
#600=ORIENTED_EDGE('',*,*,#439,.T.);
#601=ORIENTED_EDGE('',*,*,#396,.T.);
#602=ORIENTED_EDGE('',*,*,#379,.F.);
#603=ORIENTED_EDGE('',*,*,#438,.F.);
#604=ORIENTED_EDGE('',*,*,#449,.F.);
#605=ORIENTED_EDGE('',*,*,#450,.F.);
#606=ORIENTED_EDGE('',*,*,#408,.F.);
#607=ORIENTED_EDGE('',*,*,#445,.F.);
#608=ORIENTED_EDGE('',*,*,#426,.F.);
#609=ORIENTED_EDGE('',*,*,#451,.F.);
#610=ORIENTED_EDGE('',*,*,#452,.F.);
#611=ORIENTED_EDGE('',*,*,#452,.T.);
#612=ORIENTED_EDGE('',*,*,#453,.F.);
#613=ORIENTED_EDGE('',*,*,#454,.T.);
#614=ORIENTED_EDGE('',*,*,#446,.F.);
#615=ORIENTED_EDGE('',*,*,#436,.F.);
#616=ORIENTED_EDGE('',*,*,#410,.F.);
#617=ORIENTED_EDGE('',*,*,#455,.F.);
#618=ORIENTED_EDGE('',*,*,#456,.F.);
#619=ORIENTED_EDGE('',*,*,#447,.F.);
#620=ORIENTED_EDGE('',*,*,#454,.F.);
#621=ORIENTED_EDGE('',*,*,#457,.F.);
#622=ORIENTED_EDGE('',*,*,#424,.F.);
#623=ORIENTED_EDGE('',*,*,#449,.T.);
#624=ORIENTED_EDGE('',*,*,#437,.F.);
#625=ORIENTED_EDGE('',*,*,#456,.T.);
#626=ORIENTED_EDGE('',*,*,#458,.F.);
#627=ORIENTED_EDGE('',*,*,#450,.T.);
#628=ORIENTED_EDGE('',*,*,#458,.T.);
#629=ORIENTED_EDGE('',*,*,#455,.T.);
#630=ORIENTED_EDGE('',*,*,#409,.T.);
#631=ORIENTED_EDGE('',*,*,#451,.T.);
#632=ORIENTED_EDGE('',*,*,#425,.T.);
#633=ORIENTED_EDGE('',*,*,#457,.T.);
#634=ORIENTED_EDGE('',*,*,#453,.T.);
#635=ORIENTED_EDGE('',*,*,#448,.F.);
#636=ORIENTED_EDGE('',*,*,#374,.T.);
#637=ORIENTED_EDGE('',*,*,#459,.F.);
#638=ORIENTED_EDGE('',*,*,#440,.T.);
#639=ORIENTED_EDGE('',*,*,#441,.T.);
#640=ORIENTED_EDGE('',*,*,#459,.T.);
#641=ORIENTED_EDGE('',*,*,#373,.T.);
#642=ORIENTED_EDGE('',*,*,#406,.F.);
#643=ORIENTED_EDGE('',*,*,#365,.F.);
#644=ORIENTED_EDGE('',*,*,#371,.F.);
#645=ORIENTED_EDGE('',*,*,#442,.T.);
#646=ORIENTED_EDGE('',*,*,#404,.T.);
#647=ORIENTED_EDGE('',*,*,#443,.T.);
#648=ORIENTED_EDGE('',*,*,#369,.T.);
#649=ORIENTED_EDGE('',*,*,#377,.T.);
#650=ORIENTED_EDGE('',*,*,#460,.F.);
#651=ORIENTED_EDGE('',*,*,#403,.F.);
#652=ORIENTED_EDGE('',*,*,#444,.T.);
#653=ORIENTED_EDGE('',*,*,#460,.T.);
#654=ORIENTED_EDGE('',*,*,#376,.T.);
#655=CYLINDRICAL_SURFACE('',#712,10.);
#656=CYLINDRICAL_SURFACE('',#718,3.);
#657=CYLINDRICAL_SURFACE('',#721,3.);
#658=CYLINDRICAL_SURFACE('',#726,3.);
#659=CYLINDRICAL_SURFACE('',#736,3.);
#660=CYLINDRICAL_SURFACE('',#739,3.);
#661=ADVANCED_FACE('',(#46),#655,.F.);
#662=ADVANCED_FACE('',(#47),#17,.T.);
#663=ADVANCED_FACE('',(#48),#18,.F.);
#664=ADVANCED_FACE('',(#49),#19,.T.);
#665=ADVANCED_FACE('',(#50),#656,.T.);
#666=ADVANCED_FACE('',(#51),#657,.T.);
#667=ADVANCED_FACE('',(#52),#15,.T.);
#668=ADVANCED_FACE('',(#53),#658,.T.);
#669=ADVANCED_FACE('',(#54),#16,.T.);
#670=ADVANCED_FACE('',(#55),#20,.T.);
#671=ADVANCED_FACE('',(#56),#21,.T.);
#672=ADVANCED_FACE('',(#57),#22,.T.);
#673=ADVANCED_FACE('',(#58),#23,.T.);
#674=ADVANCED_FACE('',(#59),#24,.T.);
#675=ADVANCED_FACE('',(#60),#659,.T.);
#676=ADVANCED_FACE('',(#61),#25,.T.);
#677=ADVANCED_FACE('',(#62),#660,.T.);
#678=ADVANCED_FACE('',(#63),#26,.T.);
#679=ADVANCED_FACE('',(#64),#27,.F.);
#680=ADVANCED_FACE('',(#65),#28,.T.);
#681=ADVANCED_FACE('',(#66),#29,.T.);
#682=ADVANCED_FACE('',(#67),#30,.T.);
#683=ADVANCED_FACE('',(#68),#31,.F.);
#684=ADVANCED_FACE('',(#69),#32,.T.);
#685=ADVANCED_FACE('',(#70),#33,.F.);
#686=ADVANCED_FACE('',(#71),#34,.F.);
#687=ADVANCED_FACE('',(#72),#35,.T.);
#688=ADVANCED_FACE('',(#73),#36,.F.);
#689=ADVANCED_FACE('',(#74),#37,.F.);
#690=ADVANCED_FACE('',(#75),#38,.T.);
#691=ADVANCED_FACE('',(#76),#39,.T.);
#692=ADVANCED_FACE('',(#77),#40,.T.);
#693=ADVANCED_FACE('',(#78),#41,.T.);
#694=ADVANCED_FACE('',(#79),#42,.T.);
#695=ADVANCED_FACE('',(#80),#43,.T.);
#696=ADVANCED_FACE('',(#81),#44,.T.);
#697=ADVANCED_FACE('',(#82),#45,.T.);
#698=CLOSED_SHELL('',(#661,#662,#663,#664,#665,#666,#667,#668,#669,#670,
#671,#672,#673,#674,#675,#676,#677,#678,#679,#680,#681,#682,#683,#684,#685,
#686,#687,#688,#689,#690,#691,#692,#693,#694,#695,#696,#697));
#699=DERIVED_UNIT_ELEMENT(#701,1.);
#700=DERIVED_UNIT_ELEMENT(#1148,-3.);
#701=(
MASS_UNIT()
NAMED_UNIT(*)
SI_UNIT(.KILO.,.GRAM.)
);
#702=DERIVED_UNIT((#699,#700));
#703=MEASURE_REPRESENTATION_ITEM('density measure',
POSITIVE_RATIO_MEASURE(7850.),#702);
#704=PROPERTY_DEFINITION_REPRESENTATION(#709,#706);
#705=PROPERTY_DEFINITION_REPRESENTATION(#710,#707);
#706=REPRESENTATION('material name',(#708),#1145);
#707=REPRESENTATION('density',(#703),#1145);
#708=DESCRIPTIVE_REPRESENTATION_ITEM('Steel','Steel');
#709=PROPERTY_DEFINITION('material property','material name',#1155);
#710=PROPERTY_DEFINITION('material property','density of part',#1155);
#711=AXIS2_PLACEMENT_3D('',#946,#761,#762);
#712=AXIS2_PLACEMENT_3D('',#947,#763,#764);
#713=AXIS2_PLACEMENT_3D('',#950,#765,#766);
#714=AXIS2_PLACEMENT_3D('',#954,#768,#769);
#715=AXIS2_PLACEMENT_3D('',#956,#771,#772);
#716=AXIS2_PLACEMENT_3D('',#964,#777,#778);
#717=AXIS2_PLACEMENT_3D('',#976,#785,#786);
#718=AXIS2_PLACEMENT_3D('',#982,#790,#791);
#719=AXIS2_PLACEMENT_3D('',#985,#792,#793);
#720=AXIS2_PLACEMENT_3D('',#989,#795,#796);
#721=AXIS2_PLACEMENT_3D('',#991,#798,#799);
#722=AXIS2_PLACEMENT_3D('',#993,#800,#801);
#723=AXIS2_PLACEMENT_3D('',#997,#803,#804);
#724=AXIS2_PLACEMENT_3D('',#999,#806,#807);
#725=AXIS2_PLACEMENT_3D('',#1000,#808,#809);
#726=AXIS2_PLACEMENT_3D('',#1001,#810,#811);
#727=AXIS2_PLACEMENT_3D('',#1004,#812,#813);
#728=AXIS2_PLACEMENT_3D('',#1007,#815,#816);
#729=AXIS2_PLACEMENT_3D('',#1009,#818,#819);
#730=AXIS2_PLACEMENT_3D('',#1010,#820,#821);
#731=AXIS2_PLACEMENT_3D('',#1011,#822,#823);
#732=AXIS2_PLACEMENT_3D('',#1013,#825,#826);
#733=AXIS2_PLACEMENT_3D('',#1024,#833,#834);
#734=AXIS2_PLACEMENT_3D('',#1028,#837,#838);
#735=AXIS2_PLACEMENT_3D('',#1034,#842,#843);
#736=AXIS2_PLACEMENT_3D('',#1046,#850,#851);
#737=AXIS2_PLACEMENT_3D('',#1048,#852,#853);
#738=AXIS2_PLACEMENT_3D('',#1050,#855,#856);
#739=AXIS2_PLACEMENT_3D('',#1062,#863,#864);
#740=AXIS2_PLACEMENT_3D('',#1064,#865,#866);
#741=AXIS2_PLACEMENT_3D('',#1066,#868,#869);
#742=AXIS2_PLACEMENT_3D('',#1076,#875,#876);
#743=AXIS2_PLACEMENT_3D('',#1085,#881,#882);
#744=AXIS2_PLACEMENT_3D('',#1088,#885,#886);
#745=AXIS2_PLACEMENT_3D('',#1090,#888,#889);
#746=AXIS2_PLACEMENT_3D('',#1092,#891,#892);
#747=AXIS2_PLACEMENT_3D('',#1112,#905,#906);
#748=AXIS2_PLACEMENT_3D('',#1114,#908,#909);
#749=AXIS2_PLACEMENT_3D('',#1118,#912,#913);
#750=AXIS2_PLACEMENT_3D('',#1122,#916,#917);
#751=AXIS2_PLACEMENT_3D('',#1126,#920,#921);
#752=AXIS2_PLACEMENT_3D('',#1130,#924,#925);
#753=AXIS2_PLACEMENT_3D('',#1132,#927,#928);
#754=AXIS2_PLACEMENT_3D('',#1134,#930,#931);
#755=AXIS2_PLACEMENT_3D('',#1135,#932,#933);
#756=AXIS2_PLACEMENT_3D('',#1136,#934,#935);
#757=AXIS2_PLACEMENT_3D('',#1138,#937,#938);
#758=AXIS2_PLACEMENT_3D('',#1139,#939,#940);
#759=AXIS2_PLACEMENT_3D('',#1140,#941,#942);
#760=AXIS2_PLACEMENT_3D('',#1142,#944,#945);
#761=DIRECTION('axis',(0.,0.,1.));
#762=DIRECTION('refdir',(1.,0.,0.));
#763=DIRECTION('center_axis',(1.,0.,0.));
#764=DIRECTION('ref_axis',(0.,-0.707106781186547,0.707106781186547));
#765=DIRECTION('center_axis',(-1.,4.22942104619107E-16,0.));
#766=DIRECTION('ref_axis',(0.,-0.707106781186547,0.707106781186547));
#767=DIRECTION('',(-1.,0.,0.));
#768=DIRECTION('center_axis',(0.999999999999999,3.54789552234468E-8,0.));
#769=DIRECTION('ref_axis',(2.50874098279131E-8,-0.707106781186547,0.707106781186547));
#770=DIRECTION('',(1.,0.,0.));
#771=DIRECTION('center_axis',(-1.,4.22942104619107E-16,0.));
#772=DIRECTION('ref_axis',(-4.22942104619107E-16,-1.,0.));
#773=DIRECTION('',(4.22942104619107E-16,1.,0.));
#774=DIRECTION('',(0.,0.,1.));
#775=DIRECTION('',(-4.22942104619107E-16,-1.,0.));
#776=DIRECTION('',(0.,0.,1.));
#777=DIRECTION('center_axis',(0.,0.,1.));
#778=DIRECTION('ref_axis',(1.,0.,0.));
#779=DIRECTION('',(3.54789552234468E-8,-0.999999999999999,0.));
#780=DIRECTION('',(1.,0.,0.));
#781=DIRECTION('',(0.,-1.,0.));
#782=DIRECTION('',(-1.,0.,0.));
#783=DIRECTION('',(1.11022302462516E-16,1.,0.));
#784=DIRECTION('',(1.,0.,0.));
#785=DIRECTION('center_axis',(0.,0.707106781186554,-0.707106781186541));
#786=DIRECTION('ref_axis',(-1.,0.,0.));
#787=DIRECTION('',(0.577350269189619,0.577350269189624,0.577350269189634));
#788=DIRECTION('',(0.577350269189616,-0.577350269189626,-0.577350269189636));
#789=DIRECTION('',(1.,0.,0.));
#790=DIRECTION('center_axis',(1.53134210293125E-16,-1.,0.));
#791=DIRECTION('ref_axis',(-0.70710678118655,0.,0.707106781186545));
#792=DIRECTION('center_axis',(0.,-1.,0.));
#793=DIRECTION('ref_axis',(-0.70710678118655,0.,0.707106781186545));
#794=DIRECTION('',(1.53134210293125E-16,-1.,0.));
#795=DIRECTION('center_axis',(0.,1.,0.));
#796=DIRECTION('ref_axis',(-1.,0.,0.));
#797=DIRECTION('',(-1.53134210293125E-16,1.,0.));
#798=DIRECTION('center_axis',(1.,0.,0.));
#799=DIRECTION('ref_axis',(0.,-0.70710678118655,0.707106781186545));
#800=DIRECTION('center_axis',(1.,0.,0.));
#801=DIRECTION('ref_axis',(0.,0.,1.));
#802=DIRECTION('',(1.,0.,0.));
#803=DIRECTION('center_axis',(-1.,0.,0.));
#804=DIRECTION('ref_axis',(0.,-1.,0.));
#805=DIRECTION('',(-1.,0.,0.));
#806=DIRECTION('center_axis',(-0.816496580927728,0.408248290463864,-0.408248290463859));
#807=DIRECTION('ref_axis',(-0.577350269189623,-0.577350269189627,0.577350269189627));
#808=DIRECTION('center_axis',(0.,0.,1.));
#809=DIRECTION('ref_axis',(-0.707106781186542,-0.707106781186553,0.));
#810=DIRECTION('center_axis',(-1.53134210293125E-16,1.,0.));
#811=DIRECTION('ref_axis',(0.707106781186548,0.,0.707106781186548));
#812=DIRECTION('center_axis',(0.,-1.,0.));
#813=DIRECTION('ref_axis',(0.707106781186548,0.,0.707106781186548));
#814=DIRECTION('',(1.53134210293125E-16,-1.,0.));
#815=DIRECTION('center_axis',(0.,1.,0.));
#816=DIRECTION('ref_axis',(0.,0.,1.));
#817=DIRECTION('',(-1.53134210293125E-16,1.,0.));
#818=DIRECTION('center_axis',(-0.816496580927724,-0.408248290463865,0.408248290463865));
#819=DIRECTION('ref_axis',(0.577350269189627,-0.577350269189627,0.577350269189623));
#820=DIRECTION('center_axis',(0.,0.,1.));
#821=DIRECTION('ref_axis',(0.707106781186543,-0.707106781186552,0.));
#822=DIRECTION('center_axis',(0.,0.,1.));
#823=DIRECTION('ref_axis',(1.,0.,0.));
#824=DIRECTION('',(-1.,0.,0.));
#825=DIRECTION('center_axis',(0.,1.,0.));
#826=DIRECTION('ref_axis',(-1.,0.,0.));
#827=DIRECTION('',(0.,0.,1.));
#828=DIRECTION('',(1.,0.,0.));
#829=DIRECTION('',(0.,0.,1.));
#830=DIRECTION('',(0.,0.,1.));
#831=DIRECTION('',(1.,0.,0.));
#832=DIRECTION('',(0.,0.,-1.));
#833=DIRECTION('center_axis',(-0.707106781186551,0.707106781186544,0.));
#834=DIRECTION('ref_axis',(0.,0.,1.));
#835=DIRECTION('',(-0.707106781186544,-0.707106781186551,0.));
#836=DIRECTION('',(0.,0.,1.));
#837=DIRECTION('center_axis',(0.999999999999999,3.54789552234468E-8,0.));
#838=DIRECTION('ref_axis',(-3.54789552234468E-8,0.999999999999999,0.));
#839=DIRECTION('',(0.,0.,1.));
#840=DIRECTION('',(-3.54789552234468E-8,0.999999999999999,0.));
#841=DIRECTION('',(0.,0.,1.));
#842=DIRECTION('center_axis',(-1.,-1.53134210293125E-16,0.));
#843=DIRECTION('ref_axis',(1.53134210293125E-16,-1.,0.));
#844=DIRECTION('',(1.53134210293125E-16,-1.,0.));
#845=DIRECTION('',(0.,0.,-1.));
#846=DIRECTION('',(0.,1.,0.));
#847=DIRECTION('',(0.,0.,1.));
#848=DIRECTION('',(1.53134210293125E-16,-1.,0.));
#849=DIRECTION('',(0.,0.,-1.));
#850=DIRECTION('center_axis',(0.,0.,1.));
#851=DIRECTION('ref_axis',(-0.707106781186541,-0.707106781186554,0.));
#852=DIRECTION('center_axis',(0.,0.,1.));
#853=DIRECTION('ref_axis',(-0.707106781186541,-0.707106781186554,0.));
#854=DIRECTION('',(0.,0.,1.));
#855=DIRECTION('center_axis',(0.,-1.,0.));
#856=DIRECTION('ref_axis',(1.,0.,0.));
#857=DIRECTION('',(1.,0.,0.));
#858=DIRECTION('',(0.,0.,-1.));
#859=DIRECTION('',(-1.,0.,0.));
#860=DIRECTION('',(0.,0.,-1.));
#861=DIRECTION('',(1.,0.,0.));
#862=DIRECTION('',(0.,0.,-1.));
#863=DIRECTION('center_axis',(0.,0.,1.));
#864=DIRECTION('ref_axis',(0.707106781186543,-0.707106781186552,0.));
#865=DIRECTION('center_axis',(0.,0.,1.));
#866=DIRECTION('ref_axis',(0.707106781186543,-0.707106781186552,0.));
#867=DIRECTION('',(0.,0.,1.));
#868=DIRECTION('center_axis',(1.,1.53134210293125E-16,0.));
#869=DIRECTION('ref_axis',(-1.53134210293125E-16,1.,0.));
#870=DIRECTION('',(-1.53134210293125E-16,1.,0.));
#871=DIRECTION('',(0.,0.,-1.));
#872=DIRECTION('',(0.,-1.,0.));
#873=DIRECTION('',(0.,0.,1.));
#874=DIRECTION('',(0.,1.,0.));
#875=DIRECTION('center_axis',(0.,-1.,0.));
#876=DIRECTION('ref_axis',(0.,0.,-1.));
#877=DIRECTION('',(-1.,0.,0.));
#878=DIRECTION('',(0.,0.,1.));
#879=DIRECTION('',(1.,0.,0.));
#880=DIRECTION('',(0.,0.,-1.));
#881=DIRECTION('center_axis',(-1.,0.,0.));
#882=DIRECTION('ref_axis',(0.,1.,0.));
#883=DIRECTION('',(0.,1.,0.));
#884=DIRECTION('',(0.,-1.,0.));
#885=DIRECTION('center_axis',(0.,0.,-1.));
#886=DIRECTION('ref_axis',(-1.,0.,0.));
#887=DIRECTION('',(0.,-1.,0.));
#888=DIRECTION('center_axis',(1.,0.,0.));
#889=DIRECTION('ref_axis',(0.,-1.,0.));
#890=DIRECTION('',(0.,1.,0.));
#891=DIRECTION('center_axis',(0.,0.,1.));
#892=DIRECTION('ref_axis',(-1.,0.,0.));
#893=DIRECTION('',(1.,0.,0.));
#894=DIRECTION('',(0.,1.,0.));
#895=DIRECTION('',(-1.,0.,0.));
#896=DIRECTION('',(-0.707106781186541,0.707106781186554,0.));
#897=DIRECTION('',(0.,1.,0.));
#898=DIRECTION('',(-1.,0.,0.));
#899=DIRECTION('',(-1.,0.,0.));
#900=DIRECTION('',(-1.,0.,0.));
#901=DIRECTION('',(-1.11022302462516E-16,-1.,0.));
#902=DIRECTION('',(-1.,0.,0.));
#903=DIRECTION('',(0.,-1.,0.));
#904=DIRECTION('',(1.,0.,0.));
#905=DIRECTION('center_axis',(0.707106781186554,0.707106781186541,0.));
#906=DIRECTION('ref_axis',(0.,0.,-1.));
#907=DIRECTION('',(0.,0.,-1.));
#908=DIRECTION('center_axis',(0.,-1.,0.));
#909=DIRECTION('ref_axis',(0.,0.,-1.));
#910=DIRECTION('',(0.,0.,1.));
#911=DIRECTION('',(1.,0.,0.));
#912=DIRECTION('center_axis',(0.,-1.,0.));
#913=DIRECTION('ref_axis',(0.,0.,-1.));
#914=DIRECTION('',(1.,0.,0.));
#915=DIRECTION('',(0.,0.,-1.));
#916=DIRECTION('center_axis',(-1.,0.,0.));
#917=DIRECTION('ref_axis',(0.,1.,0.));
#918=DIRECTION('',(0.,1.,0.));
#919=DIRECTION('',(0.,0.,1.));
#920=DIRECTION('center_axis',(0.,1.,0.));
#921=DIRECTION('ref_axis',(0.,0.,1.));
#922=DIRECTION('',(-1.,0.,0.));
#923=DIRECTION('',(0.,0.,-1.));
#924=DIRECTION('center_axis',(0.,1.,0.));
#925=DIRECTION('ref_axis',(0.,0.,1.));
#926=DIRECTION('',(-1.,0.,0.));
#927=DIRECTION('center_axis',(1.,0.,0.));
#928=DIRECTION('ref_axis',(0.,-1.,0.));
#929=DIRECTION('',(0.,-1.,0.));
#930=DIRECTION('center_axis',(0.,0.,-1.));
#931=DIRECTION('ref_axis',(-1.,0.,0.));
#932=DIRECTION('center_axis',(0.,0.,-1.));
#933=DIRECTION('ref_axis',(-1.,0.,0.));
#934=DIRECTION('center_axis',(1.,0.,0.));
#935=DIRECTION('ref_axis',(0.,1.,0.));
#936=DIRECTION('',(0.,0.,1.));
#937=DIRECTION('center_axis',(0.,1.,0.));
#938=DIRECTION('ref_axis',(-1.,0.,0.));
#939=DIRECTION('center_axis',(0.,1.,0.));
#940=DIRECTION('ref_axis',(-1.,0.,0.));
#941=DIRECTION('center_axis',(0.,1.,0.));
#942=DIRECTION('ref_axis',(-1.,0.,0.));
#943=DIRECTION('',(0.,0.,1.));
#944=DIRECTION('center_axis',(-1.,1.11022302462516E-16,0.));
#945=DIRECTION('ref_axis',(-1.11022302462516E-16,-1.,0.));
#946=CARTESIAN_POINT('',(0.,0.,0.));
#947=CARTESIAN_POINT('Origin',(35.5,126.,57.5));
#948=CARTESIAN_POINT('',(71.,116.,57.5));
#949=CARTESIAN_POINT('',(71.,126.,67.5));
#950=CARTESIAN_POINT('Origin',(71.,126.,57.5));
#951=CARTESIAN_POINT('',(-71.,116.,57.5));
#952=CARTESIAN_POINT('',(35.5,116.,57.5));
#953=CARTESIAN_POINT('',(-71.0000003547896,126.,67.5));
#954=CARTESIAN_POINT('Origin',(-71.0000003547896,126.,57.5));
#955=CARTESIAN_POINT('',(35.5,126.,67.5));
#956=CARTESIAN_POINT('Origin',(71.,137.,22.));
#957=CARTESIAN_POINT('',(71.,137.,67.5));
#958=CARTESIAN_POINT('',(71.,137.,67.5));
#959=CARTESIAN_POINT('',(71.,137.,22.));
#960=CARTESIAN_POINT('',(71.,137.,22.));
#961=CARTESIAN_POINT('',(71.,116.,22.));
#962=CARTESIAN_POINT('',(71.,137.,22.));
#963=CARTESIAN_POINT('',(71.,116.,60.5));
#964=CARTESIAN_POINT('Origin',(1.77635683940025E-14,130.5,67.5));
#965=CARTESIAN_POINT('',(-71.0000007450581,137.,67.5));
#966=CARTESIAN_POINT('',(-71.,116.,67.5));
#967=CARTESIAN_POINT('',(-75.,137.,67.5));
#968=CARTESIAN_POINT('',(-71.0000007450581,137.,67.5));
#969=CARTESIAN_POINT('',(-75.,146.,67.5));
#970=CARTESIAN_POINT('',(-75.,137.,67.5));
#971=CARTESIAN_POINT('',(75.,146.,67.5));
#972=CARTESIAN_POINT('',(-37.5,146.,67.5));
#973=CARTESIAN_POINT('',(75.,137.,67.5));
#974=CARTESIAN_POINT('',(75.,217.,67.5));
#975=CARTESIAN_POINT('',(75.,137.,67.5));
#976=CARTESIAN_POINT('Origin',(-37.5,146.5,68.));
#977=CARTESIAN_POINT('',(76.,147.,68.5));
#978=CARTESIAN_POINT('',(49.0000000000004,120.,41.4999999999997));
#979=CARTESIAN_POINT('',(-76.,147.,68.5));
#980=CARTESIAN_POINT('',(-61.5000000000002,132.5,53.9999999999997));
#981=CARTESIAN_POINT('',(-37.5,147.,68.5));
#982=CARTESIAN_POINT('Origin',(-75.,138.75,67.5));
#983=CARTESIAN_POINT('',(-75.,147.,70.5));
#984=CARTESIAN_POINT('',(-78.,147.,67.5));
#985=CARTESIAN_POINT('Origin',(-75.,147.,67.5));
#986=CARTESIAN_POINT('',(-78.,117.,67.5));
#987=CARTESIAN_POINT('',(-78.,138.75,67.5));
#988=CARTESIAN_POINT('',(-75.,117.,70.5));
#989=CARTESIAN_POINT('Origin',(-75.,117.,67.5));
#990=CARTESIAN_POINT('',(-75.,138.75,70.5));
#991=CARTESIAN_POINT('Origin',(-39.,117.,67.5));
#992=CARTESIAN_POINT('',(-75.,114.,67.5));
#993=CARTESIAN_POINT('Origin',(-75.,117.,67.5));
#994=CARTESIAN_POINT('',(75.,114.,67.5));
#995=CARTESIAN_POINT('',(-39.,114.,67.5));
#996=CARTESIAN_POINT('',(75.,117.,70.5));
#997=CARTESIAN_POINT('Origin',(75.,117.,67.5));
#998=CARTESIAN_POINT('',(-39.,117.,70.5));
#999=CARTESIAN_POINT('Origin',(-75.,117.,67.5));
#1000=CARTESIAN_POINT('Origin',(-75.,117.,67.5));
#1001=CARTESIAN_POINT('Origin',(75.,128.75,67.5));
#1002=CARTESIAN_POINT('',(78.,147.,67.5));
#1003=CARTESIAN_POINT('',(75.,147.,70.5));
#1004=CARTESIAN_POINT('Origin',(75.,147.,67.5));
#1005=CARTESIAN_POINT('',(75.,128.75,70.5));
#1006=CARTESIAN_POINT('',(78.,117.,67.5));
#1007=CARTESIAN_POINT('Origin',(75.,117.,67.5));
#1008=CARTESIAN_POINT('',(78.,128.75,67.5));
#1009=CARTESIAN_POINT('Origin',(75.,117.,67.5));
#1010=CARTESIAN_POINT('Origin',(75.,117.,67.5));
#1011=CARTESIAN_POINT('Origin',(1.77635683940025E-14,130.5,70.5));
#1012=CARTESIAN_POINT('',(78.,147.,70.5));
#1013=CARTESIAN_POINT('Origin',(-75.,147.,22.));
#1014=CARTESIAN_POINT('',(-76.,147.,22.));
#1015=CARTESIAN_POINT('',(-76.,147.,22.));
#1016=CARTESIAN_POINT('',(-78.,147.,22.));
#1017=CARTESIAN_POINT('',(-78.,147.,22.));
#1018=CARTESIAN_POINT('',(-78.,147.,22.));
#1019=CARTESIAN_POINT('',(78.,147.,22.));
#1020=CARTESIAN_POINT('',(78.,147.,22.));
#1021=CARTESIAN_POINT('',(76.,147.,22.));
#1022=CARTESIAN_POINT('',(-78.,147.,22.));
#1023=CARTESIAN_POINT('',(76.,147.,22.));
#1024=CARTESIAN_POINT('Origin',(75.5,146.5,22.));
#1025=CARTESIAN_POINT('',(75.,146.,22.));
#1026=CARTESIAN_POINT('',(52.6250000000002,123.625,22.));
#1027=CARTESIAN_POINT('',(75.,146.,22.));
#1028=CARTESIAN_POINT('Origin',(-71.,116.,22.));
#1029=CARTESIAN_POINT('',(-71.,116.,22.));
#1030=CARTESIAN_POINT('',(-71.,116.,22.));
#1031=CARTESIAN_POINT('',(-71.0000007450581,137.,22.));
#1032=CARTESIAN_POINT('',(-71.,116.,22.));
#1033=CARTESIAN_POINT('',(-71.0000007450581,137.,22.));
#1034=CARTESIAN_POINT('Origin',(-78.,147.,22.));
#1035=CARTESIAN_POINT('',(-78.,126.9,22.));
#1036=CARTESIAN_POINT('',(-78.,137.,22.));
#1037=CARTESIAN_POINT('',(-78.,126.9,15.2));
#1038=CARTESIAN_POINT('',(-78.,126.9,22.));
#1039=CARTESIAN_POINT('',(-78.,117.1,15.2));
#1040=CARTESIAN_POINT('',(-78.,127.,15.2));
#1041=CARTESIAN_POINT('',(-78.,117.1,22.));
#1042=CARTESIAN_POINT('',(-78.,117.1,22.));
#1043=CARTESIAN_POINT('',(-78.,117.,22.));
#1044=CARTESIAN_POINT('',(-78.,288.,22.));
#1045=CARTESIAN_POINT('',(-78.,117.,22.));
#1046=CARTESIAN_POINT('Origin',(-75.,117.,22.));
#1047=CARTESIAN_POINT('',(-75.,114.,22.));
#1048=CARTESIAN_POINT('Origin',(-75.,117.,22.));
#1049=CARTESIAN_POINT('',(-75.,114.,22.));
#1050=CARTESIAN_POINT('Origin',(-78.,114.,22.));
#1051=CARTESIAN_POINT('',(-71.,114.,22.));
#1052=CARTESIAN_POINT('',(-78.,114.,22.));
#1053=CARTESIAN_POINT('',(-71.,114.,19.2));
#1054=CARTESIAN_POINT('',(-71.,114.,22.));
#1055=CARTESIAN_POINT('',(71.,114.,19.2));
#1056=CARTESIAN_POINT('',(-71.,114.,19.2));
#1057=CARTESIAN_POINT('',(71.,114.,22.));
#1058=CARTESIAN_POINT('',(71.,114.,22.));
#1059=CARTESIAN_POINT('',(75.,114.,22.));
#1060=CARTESIAN_POINT('',(-78.,114.,22.));
#1061=CARTESIAN_POINT('',(75.,114.,22.));
#1062=CARTESIAN_POINT('Origin',(75.,117.,22.));
#1063=CARTESIAN_POINT('',(78.,117.,22.));
#1064=CARTESIAN_POINT('Origin',(75.,117.,22.));
#1065=CARTESIAN_POINT('',(78.,117.,63.5));
#1066=CARTESIAN_POINT('Origin',(78.,127.,22.));
#1067=CARTESIAN_POINT('',(78.,117.1,22.));
#1068=CARTESIAN_POINT('',(78.,122.,22.));
#1069=CARTESIAN_POINT('',(78.,117.1,15.2));
#1070=CARTESIAN_POINT('',(78.,117.1,22.));
#1071=CARTESIAN_POINT('',(78.,126.9,15.2));
#1072=CARTESIAN_POINT('',(78.,127.,15.2));
#1073=CARTESIAN_POINT('',(78.,126.9,22.));
#1074=CARTESIAN_POINT('',(78.,126.9,22.));
#1075=CARTESIAN_POINT('',(78.,114.,22.));
#1076=CARTESIAN_POINT('Origin',(-71.,114.9,22.));
#1077=CARTESIAN_POINT('',(71.,114.9,22.));
#1078=CARTESIAN_POINT('',(-71.,114.9,22.));
#1079=CARTESIAN_POINT('',(-35.5,114.9,22.));
#1080=CARTESIAN_POINT('',(71.,114.9,19.2));
#1081=CARTESIAN_POINT('',(71.,114.9,22.));
#1082=CARTESIAN_POINT('',(-71.,114.9,19.2));
#1083=CARTESIAN_POINT('',(-35.5,114.9,19.2));
#1084=CARTESIAN_POINT('',(-71.,114.9,22.));
#1085=CARTESIAN_POINT('Origin',(-71.,114.,22.));
#1086=CARTESIAN_POINT('',(-71.,115.,19.2));
#1087=CARTESIAN_POINT('',(-71.,122.25,22.));
#1088=CARTESIAN_POINT('Origin',(-8.88178419700125E-15,114.5,19.2));
#1089=CARTESIAN_POINT('',(71.,114.,19.2));
#1090=CARTESIAN_POINT('Origin',(71.,115.,22.));
#1091=CARTESIAN_POINT('',(71.,122.75,22.));
#1092=CARTESIAN_POINT('Origin',(1.77635683940025E-14,130.5,22.));
#1093=CARTESIAN_POINT('',(-74.,117.1,22.));
#1094=CARTESIAN_POINT('',(-37.,117.1,22.));
#1095=CARTESIAN_POINT('',(-74.,126.9,22.));
#1096=CARTESIAN_POINT('',(-74.,128.75,22.));
#1097=CARTESIAN_POINT('',(-39.,126.9,22.));
#1098=CARTESIAN_POINT('',(-75.,146.,22.));
#1099=CARTESIAN_POINT('',(-52.6250000000003,123.625,22.));
#1100=CARTESIAN_POINT('',(-75.,137.,22.));
#1101=CARTESIAN_POINT('',(-75.,137.,22.));
#1102=CARTESIAN_POINT('',(-71.0000007450581,137.,22.));
#1103=CARTESIAN_POINT('',(71.,116.,22.));
#1104=CARTESIAN_POINT('',(75.,137.,22.));
#1105=CARTESIAN_POINT('',(75.,137.,22.));
#1106=CARTESIAN_POINT('',(75.,217.,22.));
#1107=CARTESIAN_POINT('',(74.,126.9,22.));
#1108=CARTESIAN_POINT('',(37.,126.9,22.));
#1109=CARTESIAN_POINT('',(74.,117.1,22.));
#1110=CARTESIAN_POINT('',(74.,123.75,22.));
#1111=CARTESIAN_POINT('',(39.,117.1,22.));
#1112=CARTESIAN_POINT('Origin',(-75.5,146.5,22.));
#1113=CARTESIAN_POINT('',(-75.,146.,22.));
#1114=CARTESIAN_POINT('Origin',(-78.,126.9,22.));
#1115=CARTESIAN_POINT('',(-74.,126.9,15.2));
#1116=CARTESIAN_POINT('',(-74.,126.9,22.));
#1117=CARTESIAN_POINT('',(-77.,126.9,15.2));
#1118=CARTESIAN_POINT('Origin',(74.,126.9,22.));
#1119=CARTESIAN_POINT('',(74.,126.9,15.2));
#1120=CARTESIAN_POINT('',(75.,126.9,15.2));
#1121=CARTESIAN_POINT('',(74.,126.9,22.));
#1122=CARTESIAN_POINT('Origin',(74.,117.,22.));
#1123=CARTESIAN_POINT('',(74.,117.1,15.2));
#1124=CARTESIAN_POINT('',(74.,117.,15.2));
#1125=CARTESIAN_POINT('',(74.,117.1,22.));
#1126=CARTESIAN_POINT('Origin',(-74.,117.1,22.));
#1127=CARTESIAN_POINT('',(-74.,117.1,15.2));
#1128=CARTESIAN_POINT('',(-75.,117.1,15.2));
#1129=CARTESIAN_POINT('',(-74.,117.1,22.));
#1130=CARTESIAN_POINT('Origin',(78.,117.1,22.));
#1131=CARTESIAN_POINT('',(77.,117.1,15.2));
#1132=CARTESIAN_POINT('Origin',(-74.,127.,22.));
#1133=CARTESIAN_POINT('',(-74.,117.,15.2));
#1134=CARTESIAN_POINT('Origin',(-76.,122.,15.2));
#1135=CARTESIAN_POINT('Origin',(76.,122.,15.2));
#1136=CARTESIAN_POINT('Origin',(-75.,137.,22.));
#1137=CARTESIAN_POINT('',(-75.,137.,22.));
#1138=CARTESIAN_POINT('Origin',(-71.0000007450581,137.,22.));
#1139=CARTESIAN_POINT('Origin',(71.,116.,22.));
#1140=CARTESIAN_POINT('Origin',(75.,137.,22.));
#1141=CARTESIAN_POINT('',(75.,137.,22.));
#1142=CARTESIAN_POINT('Origin',(75.,147.,22.));
#1143=UNCERTAINTY_MEASURE_WITH_UNIT(LENGTH_MEASURE(0.01),#1147,
'DISTANCE_ACCURACY_VALUE',
'Maximum model space distance between geometric entities at asserted c
onnectivities');
#1144=UNCERTAINTY_MEASURE_WITH_UNIT(LENGTH_MEASURE(0.01),#1147,
'DISTANCE_ACCURACY_VALUE',
'Maximum model space distance between geometric entities at asserted c
onnectivities');
#1145=(
GEOMETRIC_REPRESENTATION_CONTEXT(3)
GLOBAL_UNCERTAINTY_ASSIGNED_CONTEXT((#1143))
GLOBAL_UNIT_ASSIGNED_CONTEXT((#1147,#1149,#1150))
REPRESENTATION_CONTEXT('','3D')
);
#1146=(
GEOMETRIC_REPRESENTATION_CONTEXT(3)
GLOBAL_UNCERTAINTY_ASSIGNED_CONTEXT((#1144))
GLOBAL_UNIT_ASSIGNED_CONTEXT((#1147,#1149,#1150))
REPRESENTATION_CONTEXT('','3D')
);
#1147=(
LENGTH_UNIT()
NAMED_UNIT(*)
SI_UNIT(.MILLI.,.METRE.)
);
#1148=(
LENGTH_UNIT()
NAMED_UNIT(*)
SI_UNIT($,.METRE.)
);
#1149=(
NAMED_UNIT(*)
PLANE_ANGLE_UNIT()
SI_UNIT($,.RADIAN.)
);
#1150=(
NAMED_UNIT(*)
SI_UNIT($,.STERADIAN.)
SOLID_ANGLE_UNIT()
);
#1151=SHAPE_DEFINITION_REPRESENTATION(#1152,#1153);
#1152=PRODUCT_DEFINITION_SHAPE('',$,#1155);
#1153=SHAPE_REPRESENTATION('',(#711),#1145);
#1154=PRODUCT_DEFINITION_CONTEXT('part definition',#1159,'design');
#1155=PRODUCT_DEFINITION('2026-08-26-01-47-40-937','MSI Front Shroud',#1156,
#1154);
#1156=PRODUCT_DEFINITION_FORMATION('',$,#1161);
#1157=PRODUCT_RELATED_PRODUCT_CATEGORY('MSI Front Shroud',
'MSI Front Shroud',(#1161));
#1158=APPLICATION_PROTOCOL_DEFINITION('international standard',
'automotive_design',2009,#1159);
#1159=APPLICATION_CONTEXT(
'Core Data for Automotive Mechanical Design Process');
#1160=PRODUCT_CONTEXT('part definition',#1159,'mechanical');
#1161=PRODUCT('2026-08-26-01-47-40-937','MSI Front Shroud',$,(#1160));
#1162=PRESENTATION_STYLE_ASSIGNMENT((#1164));
#1163=PRESENTATION_STYLE_ASSIGNMENT((#1165));
#1164=SURFACE_STYLE_USAGE(.BOTH.,#1166);
#1165=SURFACE_STYLE_USAGE(.BOTH.,#1167);
#1166=SURFACE_SIDE_STYLE('',(#1168));
#1167=SURFACE_SIDE_STYLE('',(#1169));
#1168=SURFACE_STYLE_FILL_AREA(#1170);
#1169=SURFACE_STYLE_FILL_AREA(#1171);
#1170=FILL_AREA_STYLE('Steel - Satin',(#1172));
#1171=FILL_AREA_STYLE('Nylon 12 (with Formlabs Fuse 1 3D Printer)',(#1173));
#1172=FILL_AREA_STYLE_COLOUR('Steel - Satin',#1174);
#1173=FILL_AREA_STYLE_COLOUR(
'Nylon 12 (with Formlabs Fuse 1 3D Printer)',#1175);
#1174=COLOUR_RGB('Steel - Satin',0.627450980392157,0.627450980392157,0.627450980392157);
#1175=COLOUR_RGB('Nylon 12 (with Formlabs Fuse 1 3D Printer)',0.247058823529412,
0.247058823529412,0.247058823529412);
ENDSEC;
END-ISO-10303-21;
